<svg id="圖層_1" data-name="圖層 1" xmlns="http://www.w3.org/2000/svg" xmlns:xlink="http://www.w3.org/1999/xlink" viewBox="0 0 425.2 425.2"><defs><style>.cls-1{fill:url(#未命名漸層_11);}.cls-2{fill:url(#未命名漸層_11-2);}.cls-3{fill:url(#未命名漸層_11-3);}.cls-4{fill:url(#未命名漸層_11-4);}</style><linearGradient id="未命名漸層_11" x1="210.06" y1="76.39" x2="210.06" y2="367.85" gradientUnits="userSpaceOnUse"><stop offset="0" stop-color="#a9dadb"/><stop offset="1" stop-color="#3593c3"/></linearGradient><linearGradient id="未命名漸層_11-2" x1="281.99" y1="76.39" x2="281.99" y2="367.85" xlink:href="#未命名漸層_11"/><linearGradient id="未命名漸層_11-3" x1="132.33" y1="76.39" x2="132.33" y2="367.85" xlink:href="#未命名漸層_11"/><linearGradient id="未命名漸層_11-4" x1="282" y1="76.39" x2="282" y2="367.85" xlink:href="#未命名漸層_11"/></defs><path class="cls-1" d="M96.31,122.81h4.13q48.85,0,97.7,0a7.48,7.48,0,0,0,5.86-2.43q44.66-44.82,89.44-89.51c13-13,32.39-13.4,44.94-1.13s12.89,32.05.2,44.94c-14.71,15-29.61,29.69-44.46,44.49a25.87,25.87,0,0,1-3.3,2.41l.64,1.18h96.32c6.25,0,8,1.74,8,8V384.25c0,6.44-1.71,8.13-8.21,8.13h-320c-25,0-43.07-18.19-43.07-43.23,0-75,.21-150-.13-225C24.22,99.92,43.8,79.94,67.87,80.84c7,.26,14,0,21,0,5.49,0,7.46,1.94,7.46,7.36C96.32,99.59,96.31,110.93,96.31,122.81Zm287.37,12h-4.05q-48.67,0-97.33-.07a8.28,8.28,0,0,0-6.47,2.76q-44.64,44.84-89.47,89.47a17.58,17.58,0,0,1-6.46,4.17c-16.58,5.69-33.24,11.13-49.86,16.69-2.85.95-5.6,1.46-8-.93s-1.91-5.14-1-8c5.56-16.63,11-33.29,16.69-49.88a16.91,16.91,0,0,1,3.89-6.2c14.82-15,29.77-29.88,44.67-44.79.89-.89,1.72-1.82,2.81-3H96.31v4.68q0,86.67,0,173.34c0,5.47-2,7.43-7.38,7.45-7.61,0-15.23-.16-22.84.06-18.84.54-32.06,16.65-29,35.18,2.39,14.52,14.9,24.67,30.7,24.68q156.46,0,312.92,0c1,0,1.92-.12,3-.19ZM84.16,92.84c-5.51,0-10.84,0-16.17,0-18.61.09-31.55,12.93-31.56,31.51q-.06,96.38,0,192.75c0,1,.15,2.07.23,3.13,3.22-2.25,6-4.6,9.16-6.28s6.77-3.45,10.35-4C62,309,68,308.86,74,308.56c3.42-.17,6.86,0,10.19,0ZM305.9,89.51c8.47-8.28,17.42-16.27,25.45-25.1,6.79-7.45,5.48-19.26-1.81-26a19.28,19.28,0,0,0-26.18-.17c-2.68,2.42-5.15,5.07-7.72,7.63L279,62.49Zm-53.48.83-91.87,91.89c1.58.61,4.35.93,5.86,2.47s1.67,4.29,2.26,6L260.79,98.6ZM186.27,208.43,278,116.73l-8.1-8.77-93.14,92.21C185.2,201.48,185.83,202.13,186.27,208.43ZM296.51,99.31,269.92,72.75l-8.34,8.07,26.73,26.75C291,104.84,294,101.88,296.51,99.31ZM156.23,195c-7.47-.75-7.47-.75-9.57,5.54a11.41,11.41,0,0,1-.56,1.77c-1,2-.42,3.39,1.15,4.87,3.79,3.59,7.41,7.35,11.11,11.05,6.06,6,6.08,6.1,13.88,2.63a4,4,0,0,0,1.87-2.62,34.13,34.13,0,0,0,.08-5.57c-4.27,0-8,.07-11.71,0-4-.09-6.16-2.27-6.24-6.28C156.17,202.64,156.23,198.92,156.23,195Zm-15.56,23.57c-1.54,4.72-3.06,9.33-4.75,14.47l14.43-4.86Z"/><path class="cls-2" d="M207.69,329.56c1.59-3.81,2.91-7.3,4.51-10.66,1.06-2.23,1.19-4.13-.19-6.3a15.71,15.71,0,0,1-2.39-5.44c-.93-5.4-4.31-8-9.28-9.23-1.56-.38-3.36-.82-4.42-1.87-1.55-1.53-3.49-3.59-3.59-5.5-.39-8-.15-16-.17-23.95,0-3.05,1.57-5.21,4.31-5.86,8-1.86,12.56-6.47,14.92-14.46,1.11-3.72,1.58-6.52,0-10.09-4.53-10-5.07-9.23,3.35-17.5,3.82-3.76,7.64-7.53,11.37-11.39,2.46-2.55,5.31-3.56,8.38-1.65,6.72,4.17,13,4.08,20.11.31,3.62-1.93,6.06-3.74,7.53-7.67,3.88-10.35,3.25-9.65,14.25-9.59,5.49,0,11,.12,16.46,0,3.6-.1,6.25,1.2,7.12,4.69,1.88,7.62,6.3,12,14,14.46,4.18,1.34,7.28,1.55,11.13-.2,9.14-4.14,9.2-4,16.29,3.1,4,4,7.89,8,11.92,11.9,2.54,2.47,3.58,5.33,1.66,8.39-4.22,6.73-4,13.05-.32,20.12,1.92,3.65,3.58,6.47,7.71,7.46a49.84,49.84,0,0,1,4.83,2c3.39,1.2,4.83,3.51,4.76,7.13q-.21,10.85,0,21.71c.07,3.59-1.2,6.25-4.7,7.11-7.6,1.89-12,6.29-14.45,14-1.3,4.15-1.6,7.23.21,11.13,4.21,9.1,4,9.18-3.11,16.3-3.89,3.88-7.82,7.71-11.62,11.67-2.66,2.77-5.62,3.83-9,1.75-6.33-3.87-12.25-3.89-19.08-.43-4.17,2.11-7.37,4-8.49,8.65a31.37,31.37,0,0,1-1.88,4.87,6.12,6.12,0,0,1-6.12,4q-11.6-.09-23.2,0c-3.19,0-5.58-1.43-6.22-4.34-1.81-8.25-6.89-12.61-14.79-15.1-3.49-1.09-6.14-1.41-9.41.08-10.82,4.92-9.75,4.93-18.11-3.48-3.79-3.81-7.66-7.52-11.34-11.43A26.79,26.79,0,0,1,207.69,329.56Zm37.56,4.34,4.64,2c4,1.73,7.82,4.07,12,5.06,5.38,1.29,8.23,4.21,9.92,9.34,2,6.26,2.35,6.16,9.09,6.16,8.94,0,9.09.05,12.18-8.25a10.16,10.16,0,0,1,7.26-6.7,62.58,62.58,0,0,0,12.4-5c4-2.25,7.38-2.51,11.55-.52,7.05,3.38,7.16,3.15,12.64-2.34,5.65-5.65,5.81-5.73,2.3-13.28a10.49,10.49,0,0,1,.43-10.54,46.08,46.08,0,0,0,4.93-11.63c1.14-4.82,3.69-7.44,8.25-9.06,7.11-2.52,7-2.73,7-10,0-8.5.06-8.66-8.06-11.59a10.2,10.2,0,0,1-6.93-7.51,47.9,47.9,0,0,0-4.7-11.73c-2.62-4.33-2.72-8.08-.55-12.57,3.15-6.51,2.91-6.62-2.18-11.71-6-6-6-6.09-13.83-2.58a10.33,10.33,0,0,1-10.2-.46,48.07,48.07,0,0,0-12-5.06c-4.84-1.18-7.39-3.81-9-8.35-2.42-6.94-2.63-6.87-10.12-6.87-8.15,0-8.32-.06-11.12,7.58a10.91,10.91,0,0,1-8.31,7.56,47.65,47.65,0,0,0-11.67,4.84c-4,2.28-7.39,2.47-11.55.45-7-3.38-7.09-3.14-12.63,2.39s-5.83,5.73-2.44,12.94a10.88,10.88,0,0,1-.47,11.21,39.33,39.33,0,0,0-4.62,11c-1.19,5.27-4.09,8-9.07,9.7-6.42,2.14-6.33,2.41-6.33,9.34,0,8.7,0,8.74,8.06,12,2.86,1.14,5.18,2.46,6.33,5.74,2,5.61,4.66,11,6.69,16.56.7,1.93,1.23,4.86.27,6.29-5.08,7.58-2.9,13.14,4,17.85a3.16,3.16,0,0,1,.79.8c1.45,2.16,3.14,2.18,5.39,1.06C238.75,336.37,242,335.22,245.25,333.9Z"/><path class="cls-3" d="M72.53,350.34V338.49H77q43.4,0,86.8,0c7.71,0,13.62-4,15.61-10.43,3.05-9.82-3.95-19.29-14.56-19.51-7-.14-14,0-20.95,0a23.72,23.72,0,0,1-23.57-23.56c0-8,0-15.92,0-24.11H132a25.93,25.93,0,0,1,.26,2.68c0,6.23,0,12.47,0,18.71,0,9.57,4.69,14.31,14.15,14.33,6.61,0,13.22-.07,19.83,0,14.28.18,25.92,12.34,25.91,27s-11.71,26.81-26,26.85c-30.44.1-60.87,0-91.3,0C74.18,350.44,73.57,350.39,72.53,350.34Z"/><path class="cls-4" d="M329.9,278.42a47.91,47.91,0,1,1-48.14-47.77A47.73,47.73,0,0,1,329.9,278.42Zm-12,.21a35.93,35.93,0,1,0-35.71,35.87C301.64,314.43,318,298,317.92,278.63Z"/></svg>