<svg id="圖層_1" data-name="圖層 1" xmlns="http://www.w3.org/2000/svg" xmlns:xlink="http://www.w3.org/1999/xlink" viewBox="0 0 425.2 425.2"><defs><style>.cls-1{fill:url(#未命名漸層_11);}.cls-2{fill:url(#未命名漸層_11-2);}.cls-3{fill:url(#未命名漸層_11-3);}.cls-4{fill:url(#未命名漸層_11-4);}.cls-5{fill:url(#未命名漸層_11-5);}.cls-6{fill:url(#未命名漸層_11-6);}.cls-7{fill:url(#未命名漸層_11-7);}.cls-8{fill:url(#未命名漸層_11-8);}</style><linearGradient id="未命名漸層_11" x1="213.1" y1="76.39" x2="213.1" y2="367.85" gradientUnits="userSpaceOnUse"><stop offset="0" stop-color="#a9dadb"/><stop offset="1" stop-color="#3593c3"/></linearGradient><linearGradient id="未命名漸層_11-2" x1="213.11" y1="76.39" x2="213.11" y2="367.85" xlink:href="#未命名漸層_11"/><linearGradient id="未命名漸層_11-3" x1="49.32" y1="76.39" x2="49.32" y2="367.85" xlink:href="#未命名漸層_11"/><linearGradient id="未命名漸層_11-4" x1="212.95" y1="76.39" x2="212.95" y2="367.85" xlink:href="#未命名漸層_11"/><linearGradient id="未命名漸層_11-5" x1="376.75" y1="76.39" x2="376.75" y2="367.85" xlink:href="#未命名漸層_11"/><linearGradient id="未命名漸層_11-6" x1="213.11" y1="76.39" x2="213.11" y2="367.85" xlink:href="#未命名漸層_11"/><linearGradient id="未命名漸層_11-7" x1="213.13" y1="76.39" x2="213.13" y2="367.85" xlink:href="#未命名漸層_11"/><linearGradient id="未命名漸層_11-8" x1="213.11" y1="76.39" x2="213.11" y2="367.85" xlink:href="#未命名漸層_11"/></defs><path class="cls-1" d="M304,332.78c-1.78-.63-3.09-1-4.33-1.55-5.7-2.49-11.33-5.17-17.11-7.45a7.64,7.64,0,0,0-5.12.17q-14,5.58-27.86,11.59a7,7,0,0,0-3.44,3.21c-2.48,5.84-4.7,11.78-6.88,17.74a7.08,7.08,0,0,1-7.37,5.12q-18.72,0-37.44,0c-3.85,0-6.26-1.63-7.58-5.33-2.09-5.85-4.31-11.67-6.78-17.38a7.49,7.49,0,0,0-3.67-3.48q-13.83-6-27.85-11.58a7.08,7.08,0,0,0-4.78-.1c-5.89,2.36-11.7,4.94-17.44,7.62-3.41,1.6-6.12,1.1-8.76-1.57q-13.27-13.46-26.74-26.74c-2.54-2.51-3.1-5.14-1.58-8.43,2.68-5.75,5.31-11.54,7.65-17.43a7.57,7.57,0,0,0-.1-5.12q-5.56-14-11.58-27.86a7,7,0,0,0-3.18-3.49Q73.51,237,64.68,234c-3.85-1.35-5.6-3.78-5.58-7.8q.07-18.53,0-37.06c0-3.82,1.55-6.31,5.26-7.64,6-2.14,11.91-4.4,17.74-6.88a7.06,7.06,0,0,0,3.17-3.52q6-13.84,11.59-27.84a7.09,7.09,0,0,0,.18-4.78c-2.4-6-5.06-11.91-7.77-17.78-1.52-3.3-.92-5.92,1.62-8.43q13.44-13.29,26.73-26.73c2.65-2.68,5.36-3.14,8.76-1.54,5.63,2.64,11.3,5.23,17.09,7.49a8.24,8.24,0,0,0,5.45-.19c9.13-3.59,18.11-7.54,27.26-11.08a6.26,6.26,0,0,0,4.19-4.1c2.09-5.85,4.47-11.6,6.64-17.43a6.9,6.9,0,0,1,7.1-4.94q19.09,0,38.19,0a6.74,6.74,0,0,1,6.84,4.76c2.29,6.06,4.5,12.14,7,18.09a6.87,6.87,0,0,0,3.45,3.2q13.83,6,27.85,11.6a7.64,7.64,0,0,0,5.12.16c5.78-2.29,11.47-4.84,17.09-7.51,3.54-1.68,6.32-1.19,9.07,1.61Q321.87,99,335.21,112.11c2.66,2.62,3.27,5.32,1.66,8.74-2.65,5.63-5.24,11.3-7.51,17.09a8.13,8.13,0,0,0,.12,5.46c3.64,9.24,7.47,18.4,11.42,27.51a7.54,7.54,0,0,0,3.41,3.73c5.71,2.47,11.53,4.69,17.39,6.77,3.69,1.31,5.42,3.68,5.41,7.54q0,18.7,0,37.43c0,3.85-1.73,6.22-5.42,7.53q-9,3.18-17.75,6.86a6.49,6.49,0,0,0-2.94,3.28q-6,13.86-11.55,27.87a7.63,7.63,0,0,0-.21,5.11c2.33,5.9,4.94,11.69,7.63,17.44,1.6,3.43,1,6.12-1.67,8.74-8.88,8.77-17.63,17.66-26.53,26.41A29.2,29.2,0,0,1,304,332.78Zm-2.13-13.87a21,21,0,0,0,1.93-1.54c6.37-6.33,12.77-12.64,19-19.11a4.26,4.26,0,0,0,.68-3.74c-2.28-5.65-4.77-11.23-7.35-16.74a7.56,7.56,0,0,1,.3-7.76,116,116,0,0,0,13.8-33.31,7.7,7.7,0,0,1,5.24-5.79c5.61-2,11.13-4.35,16.75-6.35,2-.71,2.63-1.75,2.6-3.82q-.15-13.09,0-26.2c0-2.09-.64-3.1-2.62-3.81-5.62-2-11.14-4.29-16.75-6.35a7.71,7.71,0,0,1-5.22-5.81,116,116,0,0,0-13.8-33.3,7.54,7.54,0,0,1-.29-7.76c2.53-5.41,4.75-11,7.33-16.35.92-1.93.63-3.06-.84-4.5q-9.37-9.15-18.53-18.52c-1.45-1.49-2.59-1.73-4.51-.81-5.39,2.56-10.93,4.8-16.34,7.32a7.58,7.58,0,0,1-7.77-.3,115.53,115.53,0,0,0-33.31-13.8,7.68,7.68,0,0,1-5.8-5.24c-2.05-5.6-4.35-11.11-6.34-16.74-.72-2-1.77-2.62-3.83-2.59q-13.09.15-26.2,0a3.39,3.39,0,0,0-3.81,2.62c-2,5.61-4.3,11.13-6.35,16.74A7.7,7.7,0,0,1,184,90.57a116.33,116.33,0,0,0-33.31,13.8,7.34,7.34,0,0,1-7.42.45c-5.55-2.54-11.1-5.08-16.75-7.35a4.67,4.67,0,0,0-4.06.55c-6.49,6.2-12.84,12.57-19.06,19a4.26,4.26,0,0,0-.68,3.74c2.28,5.65,4.76,11.22,7.35,16.74a7.56,7.56,0,0,1-.31,7.76A115.65,115.65,0,0,0,96,178.61a7.7,7.7,0,0,1-5.24,5.79c-5.61,2-11.12,4.36-16.75,6.35-2,.72-2.62,1.77-2.59,3.83q.15,13.1,0,26.19c0,2.1.66,3.1,2.63,3.81,5.62,2,11.14,4.29,16.75,6.35A7.69,7.69,0,0,1,96,236.74a116,116,0,0,0,13.8,33.31,7.56,7.56,0,0,1,.29,7.76c-2.54,5.4-4.76,11-7.33,16.34-.93,1.94-.62,3.07.85,4.5q9.36,9.15,18.52,18.53c1.46,1.49,2.6,1.71,4.51.8,5.39-2.57,11-4.79,16.35-7.33a7.56,7.56,0,0,1,7.76.31,116.45,116.45,0,0,0,33.31,13.8,7.7,7.7,0,0,1,5.8,5.24c2.05,5.6,4.35,11.12,6.35,16.74.71,2,1.76,2.61,3.82,2.59q13.11-.15,26.2,0c2.09,0,3.11-.63,3.81-2.62,2-5.62,4.3-11.13,6.35-16.74a7.67,7.67,0,0,1,5.82-5.21A116.61,116.61,0,0,0,275.51,311a7.35,7.35,0,0,1,7.42-.46c5.43,2.5,10.91,4.87,16.37,7.29Z"/><path class="cls-2" d="M297,41.13c-.92-1.64-1.91-3.17-2.68-4.81a6.06,6.06,0,0,1,2.41-8.08,5.62,5.62,0,0,1,7.88,1.94C310,39,315.27,47.86,320.31,56.88c2.26,4-.12,8.53-4.77,8.73-10.46.44-20.94.45-31.41.39-3.19,0-5.53-3-5.51-6a5.91,5.91,0,0,1,5.62-5.87C285.61,54,287,54,288.35,54c1.2,0,2.4,0,3.59,0l.28-.91c-4.56-2.06-9-4.4-13.68-6.13-56.73-21-110.85-16-162.12,16.56-.42.26-.83.56-1.25.82-3.67,2.24-7.2,1.7-9.15-1.4s-1.08-6.59,2.43-8.62c9.69-5.61,19.18-11.69,29.35-16.28,29.9-13.5,61.42-18.23,94-15.07a183.27,183.27,0,0,1,61.51,17.16c.89.43,1.78.88,2.69,1.27C296.21,41.43,296.49,41.25,297,41.13Z"/><path class="cls-3" d="M47.94,122c-2.62,1.39-4.45,2.45-6.36,3.35-3.44,1.64-6.81.72-8.44-2.21a6,6,0,0,1,2.58-8.3c8.7-4.85,17.43-9.66,26.26-14.26,4.63-2.41,9.16.26,9.15,5.47,0,9.85-.3,19.7-.7,29.54-.16,4.21-2.74,6.64-6.2,6.55s-6-2.88-6-7.15c0-1.33,0-2.66,0-4l-1-.31c-2.69,6.71-5.81,13.29-8,20.17C31.88,205.13,38,256.45,69,304.52c1.71,2.64,3.33,5.51,1,8.18a9,9,0,0,1-6,2.59c-1.44,0-3.4-1.54-4.36-2.93a179.74,179.74,0,0,1-29.32-71.62q-10.68-61,16.7-116.61C47.33,123.72,47.46,123.27,47.94,122Z"/><path class="cls-4" d="M135,363c7.07,2.86,14,6.18,21.24,8.49C210.5,388.8,261.86,382.71,310,351.71c2.65-1.7,5.46-3.33,8.2-1.1a8.15,8.15,0,0,1,2.66,5.6c0,1.6-1.5,3.73-2.95,4.73a179.22,179.22,0,0,1-71.27,29.31c-40.52,7.15-79.35,1.8-116.35-16.34a13.74,13.74,0,0,0-1.38-.56c-.07,0-.2.08-.65.26.92,1.72,1.87,3.41,2.73,5.13,1.82,3.64,1,7-2.12,8.68s-6.35.79-8.3-2.6c-5-8.64-9.85-17.32-14.53-26.11-2.37-4.44.15-9,5.14-9.09,10.35-.12,20.71.13,31.06.44a6,6,0,0,1-.37,11.89c-2.17.12-4.36,0-6.54,0Z"/><path class="cls-5" d="M378.81,292.16c2.59-1.43,4.15-2.41,5.82-3.17a6.07,6.07,0,0,1,7.88,2.17,5.62,5.62,0,0,1-1.88,8.16c-8.84,5.35-17.74,10.62-26.81,15.56-4.42,2.41-8.63-.58-8.83-6-.22-6.48-.12-13-.16-19.45,0-3.12-.1-6.24,0-9.36.12-4.1,2.46-6.73,5.93-6.87s6.11,2.51,6.35,6.83a22.44,22.44,0,0,0,.7,6,28.94,28.94,0,0,0,1.61-2.66c14.11-29.44,19.83-60.44,16.57-92.92a171.35,171.35,0,0,0-28.52-79.27c-.49-.73-1-1.44-1.42-2.2-1.71-3.16-1-6.43,1.67-8.27a5.94,5.94,0,0,1,8.49,1.83c4.63,7.52,9.47,15,13.37,22.88a186.92,186.92,0,0,1,.7,163.31C379.9,289.49,379.6,290.28,378.81,292.16Z"/><path class="cls-6" d="M323.8,207.7c0,60.75-50,110.68-110.74,110.64s-110.69-50-110.64-110.73S152.39,96.94,213.15,97,323.83,146.94,323.8,207.7ZM213,306a98.36,98.36,0,0,0,.33-196.71c-54.28-.3-98.44,43.66-98.62,98.19A98.25,98.25,0,0,0,213,306Z"/><path class="cls-7" d="M126.94,207.29c0-3.37,0-6.73,0-10.1,0-3,1.21-5.42,4-6,8-1.62,11.53-6.84,14.17-14.13,1.62-4.51,1.94-7.9-.15-12.14-3.65-7.42-3.39-7.74,2.41-13.54,3.89-3.88,7.82-7.72,11.63-11.66,2.5-2.58,5.43-3.41,8.42-1.52,5.91,3.74,11.16,3.24,17.63.44,5.68-2.46,9.08-5.35,10.8-11.16,1.62-5.45,2.85-6,8.41-6,6.24,0,12.48.09,18.71,0,3.47-.07,6,1.25,6.82,4.56,1.68,7.18,6.09,10.7,13,13.32,5.35,2,9.34,2.12,14.2-.37,5.73-2.95,6.88-2.5,11.43,2.05,4.15,4.14,8.24,8.35,12.46,12.42,2.7,2.6,3.54,5.57,1.58,8.73-3.57,5.78-3.21,10.91-.44,17.28,2.51,5.79,5.45,9.31,11.41,11,5.17,1.49,5.79,2.89,5.8,8.16,0,6.23-.1,12.47,0,18.71.09,3.61-1.29,6.27-4.75,7.08-6.89,1.61-10.35,5.7-12.94,12.4-2.2,5.68-2.4,10,.34,15.23s2.19,6.49-1.82,10.51c-4.23,4.24-8.55,8.4-12.69,12.72-2.69,2.82-5.73,3.7-9,1.64-5.65-3.52-10.67-3.08-16.94-.46s-9.83,5.73-11.32,12.05c-.87,3.71-3.47,5.42-7.49,5.3-6.48-.2-13-.14-19.46,0-3.46.07-6-1.26-6.82-4.56-1.68-7.19-6.1-10.7-13-13.33-5.35-2-9.34-2.11-14.19.38-5.73,2.94-6.88,2.49-11.44-2.06-4.15-4.14-8.23-8.35-12.46-12.41-2.7-2.61-3.53-5.58-1.58-8.74,3.58-5.78,3.22-10.91.44-17.28-2.51-5.76-5.39-9.34-11.41-11-5.17-1.45-5.78-2.88-5.8-8.15C126.93,213.53,126.94,210.41,126.94,207.29Zm133.45,57.3,1.08,1a48.77,48.77,0,0,1,4-5.39c4.72-4.91,5-5,1.91-11.11-2-4-1.74-7.32.46-11.19a56.1,56.1,0,0,0,5.26-12.69c1.26-4.58,3.69-7.19,8.2-8.63,6-1.93,6-2.17,6-8.44,0-7.1.05-7.26-6.87-9.67-3.95-1.37-5.95-3.83-7.12-7.8a61,61,0,0,0-5.36-13.05c-2.26-4-2.56-7.39-.46-11.52,3-6,2.79-6.08-1.91-10.78s-4.9-5-10.76-2c-4.09,2.07-7.51,2-11.52-.36a54,54,0,0,0-12.69-5.27c-4.44-1.21-7-3.5-8.49-7.86-2.11-6.33-2.31-6.26-9-6.26s-6.89-.07-9,6.25c-1.44,4.36-4.06,6.67-8.47,7.91a55.71,55.71,0,0,0-12.7,5.23c-4,2.31-7.42,2.44-11.52.36-5.88-3-6-2.75-10.76,2s-4.94,4.82-1.93,10.77c2.09,4.13,1.87,7.55-.46,11.51a48,48,0,0,0-5,12c-1.26,4.8-3.49,8.1-8.5,9.2-1.08.24-2.05.95-3.13,1.2-2.27.51-3,1.88-2.69,4.05a19.07,19.07,0,0,1,0,2.62c0,7.6-.06,7.77,7.05,10.31,3.81,1.37,5.73,3.72,6.86,7.56a59.58,59.58,0,0,0,5.35,13.06c2.37,4.11,2.66,7.6.46,11.85-3,5.76-2.71,5.89,1.88,10.47,4.9,4.9,5,5.15,11.06,2.07,4.18-2.14,7.55-1.71,11.51.56a54.9,54.9,0,0,0,12.36,5.08c4.51,1.27,7.26,3.57,8.72,8.13,2,6.15,2.21,6.07,8.73,6.07,6.83,0,7,.06,9.22-6.44,1.43-4.22,4-6.41,8.26-7.62a59.72,59.72,0,0,0,13-5.43c3.9-2.22,7.32-2.57,11.18-.32A55.5,55.5,0,0,0,260.39,264.59Z"/><path class="cls-8" d="M262.76,207.53A49.65,49.65,0,1,1,213,158,49.6,49.6,0,0,1,262.76,207.53Zm-87.15-.05a37.5,37.5,0,1,0,37.67-37.31A37.44,37.44,0,0,0,175.61,207.48Z"/></svg>