<svg id="版本1" xmlns="http://www.w3.org/2000/svg" xmlns:xlink="http://www.w3.org/1999/xlink" viewBox="0 0 1400 600"><defs><style>.cls-1,.cls-15,.cls-2{fill:none;stroke-miterlimit:10;}.cls-1,.cls-2{stroke:#f7f8f8;}.cls-1{stroke-width:0.75px;}.cls-2{stroke-width:0.5px;}.cls-3{fill:url(#未命名漸層_12);}.cls-4{isolation:isolate;}.cls-5{clip-path:url(#clip-path);}.cls-6{clip-path:url(#clip-path-2);}.cls-7{clip-path:url(#clip-path-3);}.cls-8{clip-path:url(#clip-path-4);}.cls-9{clip-path:url(#clip-path-5);}.cls-10{clip-path:url(#clip-path-6);}.cls-11{clip-path:url(#clip-path-7);}.cls-12{clip-path:url(#clip-path-8);}.cls-13{clip-path:url(#clip-path-9);}.cls-14{fill:#eaf9ff;opacity:0.3;}.cls-15{stroke-width:3px;stroke:url(#未命名漸層_27);}.cls-16{fill:orange;}.cls-17{fill:#abe5e4;}.cls-18{fill:#339cd1;}.cls-19{fill:#0c68ab;}.cls-20{fill:#fff;}.cls-21{opacity:0.8;}</style><linearGradient id="未命名漸層_12" x1="-0.01" y1="301.03" x2="1399.99" y2="301.03" gradientUnits="userSpaceOnUse"><stop offset="0" stop-color="#339cd1"/><stop offset="1" stop-color="#abe5e4"/></linearGradient><clipPath id="clip-path"><path class="cls-1" d="M740.72,195.37l-1.25-57.27c-.26-12.08,4.38-27.44,15.29-46.24,25.38-43.72,58-56.06,82-48.7,12.23,3.77,17.95,11.26,21.47,20.81l1.25,57.27c-3.52-9.55-9.24-17-21.47-20.8-23.9-7.36-56.57,5-82,48.7C745.1,167.93,740.46,183.29,740.72,195.37Z"/></clipPath><clipPath id="clip-path-2"><path class="cls-1" d="M711.81,193.92l-1.25-57.28c.54,25.05,16.71,41.63,41.3,49.2,19.93,6.14,39.78,4.3,60.27-3.84l1.25,57.28c-20.49,8.13-40.34,10-60.27,3.84C728.52,235.54,712.35,219,711.81,193.92Z"/></clipPath><clipPath id="clip-path-3"><path class="cls-1" d="M993.84,91.46l1.25,57.27c-7.94,16-15.89,33.71-25.08,49.56L968.76,141C978,125.17,985.9,107.44,993.84,91.46Z"/></clipPath><clipPath id="clip-path-4"><path class="cls-2" d="M1382.25,216.28l1.25,57.28c-.24-11.3-10.86-18.88-29.53-24.63l-1.25-57.27C1371.39,197.41,1382,205,1382.25,216.28Z"/></clipPath><clipPath id="clip-path-5"><path class="cls-2" d="M1410.7,216.4l1.25,57.28c.16,7-2.1,14.79-7.17,23.53-13.12,22.6-35.56,32.37-61.19,31.44l-1.25-57.28c25.63.93,48.07-8.83,61.19-31.44C1408.6,231.2,1410.86,223.38,1410.7,216.4Z"/></clipPath><clipPath id="clip-path-6"><path class="cls-1" d="M774.53,312.07l1.25,57.28c-14,24.07-40,39.45-79.57,27.27C678,391,663,378.17,659.33,359.62l-1.25-57.28c3.65,18.55,18.66,31.39,36.88,37C734.51,351.53,760.56,336.14,774.53,312.07Z"/></clipPath><clipPath id="clip-path-7"><path class="cls-1" d="M907.91,252.14l1.26,57.27c-.26-11.47-6.31-18-16.35-21.11-20.21-6.22-42.9,5.71-69.75,52-13.8,23.77-19.68,41-19.41,53L802.41,336c-.27-12,5.61-29.21,19.41-53,26.85-46.25,49.54-58.18,69.75-52C901.61,234.12,907.66,240.66,907.91,252.14Z"/></clipPath><clipPath id="clip-path-8"><path class="cls-1" d="M934.73,255,936,312.24c.34,15.25-5.52,34.3-18.72,57-31.52,54.29-71.73,73.27-107.58,62.23-20.51-6.32-32.34-20.24-32.8-41.16l-1.25-57.28c.46,20.93,12.29,34.84,32.8,41.16,35.85,11,76.06-7.94,107.58-62.23C929.21,289.27,935.07,270.22,934.73,255Z"/></clipPath><clipPath id="clip-path-9"><path class="cls-1" d="M1044.92,290.26l1.25,57.27c-7.94,16-15.88,33.7-25.08,49.55l-1.25-57.28C1029,324,1037,306.24,1044.92,290.26Z"/></clipPath><linearGradient id="未命名漸層_27" x1="707.93" y1="275.85" x2="1344.57" y2="275.85" gradientUnits="userSpaceOnUse"><stop offset="0" stop-color="orange"/><stop offset="0.29" stop-color="#abe5e4"/><stop offset="0.34" stop-color="#9bdbe1"/><stop offset="0.64" stop-color="#339cd1"/><stop offset="1" stop-color="#0c68ab"/></linearGradient></defs><rect class="cls-3" x="-0.01" y="1.03" width="1400" height="600"/><g id="字"><polygon class="cls-1" points="880.93 56.54 882.18 113.82 859.43 121.24 858.18 63.97 880.93 56.54"/><g class="cls-4"><g class="cls-5"><g class="cls-4"><path class="cls-1" d="M858.18,64l1.25,57.27c-3.52-9.55-9.24-17-21.47-20.8-1.21-.37-2.44-.7-3.69-1L833,42.2q1.88.4,3.69,1c12.23,3.77,17.95,11.26,21.47,20.81"/><path class="cls-1" d="M833,42.2l1.25,57.28a45.71,45.71,0,0,0-6-.89L827,41.32a45.7,45.7,0,0,1,6,.88"/><path class="cls-1" d="M827,41.32l1.25,57.27a48.53,48.53,0,0,0-5.41-.12L821.58,41.2a48.65,48.65,0,0,1,5.42.12"/><path class="cls-1" d="M821.58,41.2l1.26,57.27a55,55,0,0,0-5.5.49l-1.25-57.27a49.71,49.71,0,0,1,5.49-.49"/><path class="cls-1" d="M816.09,41.69,817.34,99a57.21,57.21,0,0,0-6.22,1.27L809.87,43a52.82,52.82,0,0,1,6.22-1.27"/><path class="cls-1" d="M809.87,43l1.25,57.27a62,62,0,0,0-8.42,2.92l-1.25-57.27A59.35,59.35,0,0,1,809.87,43"/><path class="cls-1" d="M801.45,45.88l1.25,57.27c-16,6.85-32.47,21.5-46.69,46a157.05,157.05,0,0,0-7.64,14.79l-1.25-57.28a157.05,157.05,0,0,1,7.64-14.79c14.22-24.49,30.72-39.13,46.69-46"/><path class="cls-1" d="M747.12,106.65l1.25,57.28a92.08,92.08,0,0,0-6.7,20.57l-1.25-57.28a92.4,92.4,0,0,1,6.7-20.57"/><path class="cls-1" d="M740.42,127.22l1.25,57.28a53.5,53.5,0,0,0-.95,10.87l-1.25-57.27a53.59,53.59,0,0,1,.95-10.88"/></g></g><path class="cls-1" d="M740.72,195.37l-1.25-57.27c-.26-12.08,4.38-27.44,15.29-46.24,25.38-43.72,58-56.06,82-48.7,12.23,3.77,17.95,11.26,21.47,20.81l1.25,57.27c-3.52-9.55-9.24-17-21.47-20.8-23.9-7.36-56.57,5-82,48.7C745.1,167.93,740.46,183.29,740.72,195.37Z"/></g><path class="cls-1" d="M845.79,25.79c19.91,6.13,30.34,18.81,35.14,30.75L858.18,64c-3.52-9.55-9.24-17-21.47-20.81-23.9-7.36-56.57,5-82,48.7-25.75,44.36-16.59,69.6,9.59,77.67,12.24,3.77,24.61,2.1,39-4.18L812.13,182c-20.49,8.14-40.34,10-60.27,3.84-39-12-56.79-46.62-24.79-101.76C759,29.17,806.81,13.78,845.79,25.79Z"/><g class="cls-4"><g class="cls-6"><g class="cls-4"><path class="cls-1" d="M812.13,182l1.25,57.28a115.76,115.76,0,0,1-13.16,4.36L799,186.37A118.55,118.55,0,0,0,812.13,182"/><path class="cls-1" d="M799,186.37l1.25,57.27a98.76,98.76,0,0,1-11,2.25L788,188.61a96.48,96.48,0,0,0,11-2.24"/><path class="cls-1" d="M788,188.61l1.25,57.28a85.93,85.93,0,0,1-9.28.82l-1.25-57.27a88.57,88.57,0,0,0,9.28-.83"/><path class="cls-1" d="M778.7,189.44,780,246.71a79.63,79.63,0,0,1-9.14-.2l-1.25-57.27a81.92,81.92,0,0,0,9.14.2"/><path class="cls-1" d="M769.56,189.24l1.25,57.27a79.55,79.55,0,0,1-10.76-1.58l-1.26-57.27a81.56,81.56,0,0,0,10.77,1.58"/><path class="cls-1" d="M758.79,187.66l1.26,57.27q-3.48-.75-6.94-1.81c-24.59-7.58-40.76-24.15-41.3-49.2l-1.25-57.28c.54,25.05,16.71,41.63,41.3,49.2q3.46,1.07,6.93,1.82"/></g></g><path class="cls-1" d="M711.81,193.92l-1.25-57.28c.54,25.05,16.71,41.63,41.3,49.2,19.93,6.14,39.78,4.3,60.27-3.84l1.25,57.28c-20.49,8.13-40.34,10-60.27,3.84C728.52,235.54,712.35,219,711.81,193.92Z"/></g><polygon class="cls-1" points="989.85 61.44 991.1 118.71 981.29 135.61 980.04 78.33 989.85 61.44"/><polygon class="cls-1" points="980.04 78.33 981.29 135.61 907.87 112.99 906.62 55.71 980.04 78.33"/><polygon class="cls-1" points="906.62 55.71 907.87 112.99 879.67 161.57 878.42 104.3 906.62 55.71"/><polygon class="cls-1" points="939.61 123.14 940.86 180.42 931.17 197.11 929.92 139.83 939.61 123.14"/><polygon class="cls-1" points="929.92 139.83 931.17 197.11 869.98 178.26 868.73 120.98 929.92 139.83"/><polygon class="cls-1" points="868.73 120.98 869.98 178.26 837.24 234.66 835.99 177.39 868.73 120.98"/><polygon class="cls-1" points="902.29 217.48 903.54 274.76 801.09 243.2 799.84 185.92 902.29 217.48"/><polygon class="cls-1" points="911.97 200.79 913.22 258.07 903.54 274.76 902.29 217.48 911.97 200.79"/><polygon class="cls-1" points="989.85 61.44 980.04 78.33 906.62 55.71 878.42 104.3 939.61 123.14 929.92 139.83 868.73 120.98 835.99 177.39 911.97 200.79 902.29 217.48 799.84 185.92 889.97 30.67 989.85 61.44"/><polygon class="cls-1" points="994.98 91.81 996.23 149.08 995.09 148.73 993.84 91.46 994.98 91.81"/><g class="cls-4"><g class="cls-7"><g class="cls-4"><path class="cls-1" d="M993.84,91.46l1.25,57.27c-7.94,16-15.89,33.71-25.08,49.56L968.76,141c9.19-15.84,17.14-33.57,25.08-49.55"/></g></g><path class="cls-1" d="M993.84,91.46l1.25,57.27c-7.94,16-15.89,33.71-25.08,49.56L968.76,141C978,125.17,985.9,107.44,993.84,91.46Z"/></g><polygon class="cls-1" points="1016.52 68.57 1017.78 125.85 1007.67 236.28 1006.42 179.01 1016.52 68.57"/><polygon class="cls-1" points="1006.42 179.01 1007.67 236.28 1002.11 274.15 1000.86 216.88 1006.42 179.01"/><polygon class="cls-1" points="968.75 141.01 970.01 198.29 922.8 279.61 921.55 222.33 968.75 141.01"/><polygon class="cls-1" points="921.55 222.33 922.8 279.61 900.61 272.77 899.36 215.5 921.55 222.33"/><polygon class="cls-1" points="1006.35 248.46 1007.6 305.73 980.57 297.4 979.31 240.13 1006.35 248.46"/><polygon class="cls-1" points="1096.48 93.2 1097.73 150.48 1007.6 305.73 1006.35 248.46 1096.48 93.2"/><path class="cls-1" d="M1096.48,93.2l-90.13,155.25-27-8.32,10.44-109.84L995,91.81l-1.13-.35c-7.94,16-15.89,33.71-25.08,49.55l-47.21,81.32-22.19-6.83L989.49,60.25l27,8.32L1006.42,179l-5.56,37.87,1.15.35c7.68-15.56,15.86-33.7,25.06-49.55l47.21-81.32Z"/><polygon class="cls-1" points="1135.33 125.11 1136.56 182.12 1087.03 166.76 1085.79 109.75 1135.33 125.11"/><polygon class="cls-1" points="1220.43 131.68 1221.67 188.69 1211.97 205.51 1210.73 148.49 1220.43 131.68"/><polygon class="cls-1" points="1210.73 148.49 1211.97 205.51 1162.73 190.24 1161.49 133.22 1210.73 148.49"/><polygon class="cls-1" points="1220.43 131.68 1210.73 148.49 1161.49 133.22 1082.06 270.95 1055.89 262.83 1135.33 125.11 1085.79 109.75 1095.49 92.94 1220.43 131.68"/><polygon class="cls-1" points="1161.49 133.22 1162.73 190.24 1083.3 327.96 1082.06 270.95 1161.49 133.22"/><polygon class="cls-1" points="1082.06 270.95 1083.3 327.96 1057.13 319.85 1055.89 262.83 1082.06 270.95"/><polygon class="cls-1" points="1319.97 162.96 1321.22 220.23 1311.42 237.13 1310.16 179.85 1319.97 162.96"/><polygon class="cls-1" points="1310.16 179.85 1311.42 237.13 1237.99 214.51 1236.74 157.23 1310.16 179.85"/><polygon class="cls-1" points="1236.74 157.23 1237.99 214.51 1209.79 263.09 1208.54 205.81 1236.74 157.23"/><polygon class="cls-1" points="1269.71 224.66 1270.96 281.93 1261.28 298.62 1260.03 241.34 1269.71 224.66"/><polygon class="cls-1" points="1260.03 241.34 1261.28 298.62 1200.1 279.77 1198.85 222.5 1260.03 241.34"/><polygon class="cls-1" points="1198.85 222.5 1200.1 279.77 1167.36 336.18 1166.11 278.9 1198.85 222.5"/><polygon class="cls-1" points="1232.39 318.99 1233.64 376.27 1131.21 344.71 1129.96 287.44 1232.39 318.99"/><polygon class="cls-1" points="1242.08 302.31 1243.33 359.58 1233.64 376.27 1232.39 318.99 1242.08 302.31"/><polygon class="cls-1" points="1319.97 162.96 1310.16 179.85 1236.74 157.23 1208.54 205.81 1269.71 224.66 1260.03 241.34 1198.85 222.5 1166.11 278.9 1242.08 302.31 1232.39 318.99 1129.96 287.44 1220.09 132.19 1319.97 162.96"/><polygon class="cls-2" points="1352.72 191.66 1353.97 248.93 1338.89 244.29 1337.64 187.01 1352.72 191.66"/><g class="cls-4"><g class="cls-8"><g class="cls-4"><path class="cls-2" d="M1382.25,216.28l1.25,57.28c-.24-11.3-10.86-18.88-29.53-24.63l-1.25-57.27c18.67,5.75,29.29,13.32,29.53,24.62"/></g></g><path class="cls-2" d="M1382.25,216.28l1.25,57.28c-.24-11.3-10.86-18.88-29.53-24.63l-1.25-57.27C1371.39,197.41,1382,205,1382.25,216.28Z"/></g><polygon class="cls-2" points="1337.64 187.01 1338.89 244.29 1305.42 301.95 1304.17 244.67 1337.64 187.01"/><polygon class="cls-2" points="1313.75 266.3 1315 323.58 1296.22 317.79 1294.97 260.52 1313.75 266.3"/><polygon class="cls-2" points="1315.46 266.83 1316.71 324.11 1315 323.58 1313.75 266.3 1315.46 266.83"/><g class="cls-4"><g class="cls-9"><g class="cls-4"><path class="cls-2" d="M1406.76,233.68,1408,291a65.71,65.71,0,0,1-3.23,6.26,60.53,60.53,0,0,1-28.94,25.94l-1.25-57.28a60.53,60.53,0,0,0,28.94-25.94,65.59,65.59,0,0,0,3.23-6.25"/><path class="cls-2" d="M1374.59,265.87l1.25,57.28a65.49,65.49,0,0,1-9,3.08L1365.58,269a65.52,65.52,0,0,0,9-3.09"/><path class="cls-2" d="M1365.58,269l1.25,57.27a71.88,71.88,0,0,1-8.26,1.67l-1.25-57.28a71.86,71.86,0,0,0,8.26-1.66"/><path class="cls-2" d="M1357.32,270.62l1.25,57.28a79.87,79.87,0,0,1-8.71.76l-1.25-57.28a80.09,80.09,0,0,0,8.71-.76"/><path class="cls-2" d="M1348.61,271.38l1.25,57.28c-2.07.07-4.15.06-6.27,0l-1.25-57.28q3.17.12,6.27,0"/></g></g><path class="cls-2" d="M1410.7,216.4l1.25,57.28c.16,7-2.1,14.79-7.17,23.53-13.12,22.6-35.56,32.37-61.19,31.44l-1.25-57.28c25.63.93,48.07-8.83,61.19-31.44C1408.6,231.2,1410.86,223.38,1410.7,216.4Z"/></g><polygon class="cls-2" points="1294.97 260.52 1296.22 317.79 1258.08 383.49 1256.83 326.21 1294.97 260.52"/><polygon class="cls-2" points="1256.83 326.21 1258.08 383.49 1231.34 375.25 1230.09 317.97 1256.83 326.21"/><path class="cls-2" d="M1342.34,271.37l.72,81.41-28.18-8.69.58-77.26-1.71-.53L1295,260.52l-38.14,65.69L1230.09,318l90.13-155.25,45.52,14c37,11.39,56.43,31.08,37.79,63.18C1390.41,262.54,1368,272.3,1342.34,271.37Zm-23.09-22.05c26.17,8.06,46.33,2.82,58.1-17.45,11.9-20.5,1.55-32.15-24.63-40.21L1337.64,187l-33.47,57.66,15.08,4.65"/><polygon class="cls-2" points="1343.06 352.78 1344.31 410.05 1316.13 401.37 1314.88 344.09 1343.06 352.78"/><polygon class="cls-2" points="1342.34 271.37 1343.59 328.65 1344.31 410.05 1343.06 352.78 1342.34 271.37"/><g class="cls-4"><polygon class="cls-1" points="840.63 198.22 841.88 255.5 775.78 369.35 774.53 312.07 840.63 198.22"/><path class="cls-1" d="M840.63,198.22l-66.1,113.85c-14,24.07-40,39.46-79.57,27.28-18.22-5.62-33.23-18.46-36.88-37l23.65-6.66c1.8,14.24,10.51,22.91,21.61,26.33,18.78,5.79,34.3-.15,45.82-20l65-111.94Z"/><g class="cls-4"><g class="cls-10"><g class="cls-4"><path class="cls-1" d="M774.53,312.07l1.25,57.28C769,381,759.36,390.68,746.71,396.11l-1.25-57.28c12.65-5.43,22.29-15.07,29.07-26.76"/><path class="cls-1" d="M745.46,338.83l1.25,57.28a56.51,56.51,0,0,1-7.9,2.72l-1.25-57.27a57,57,0,0,0,7.9-2.73"/><path class="cls-1" d="M737.56,341.56l1.25,57.27a60.08,60.08,0,0,1-6.92,1.4L730.64,343a60.08,60.08,0,0,0,6.92-1.4"/><path class="cls-1" d="M730.64,343l1.25,57.27a64.08,64.08,0,0,1-7.07.62l-1.25-57.28a66.64,66.64,0,0,0,7.07-.61"/><path class="cls-1" d="M723.57,343.57l1.25,57.28a72.62,72.62,0,0,1-8.29-.2l-1.25-57.27a74.93,74.93,0,0,0,8.29.19"/><path class="cls-1" d="M715.28,343.38l1.25,57.27a86.31,86.31,0,0,1-11.68-1.75l-1.25-57.28a88,88,0,0,0,11.68,1.76"/><path class="cls-1" d="M703.6,341.62l1.25,57.28q-4.22-.91-8.64-2.28C678,391,663,378.17,659.33,359.62l-1.25-57.28c3.65,18.55,18.66,31.39,36.88,37,2.95.91,5.83,1.66,8.64,2.27"/></g></g><path class="cls-1" d="M774.53,312.07l1.25,57.28c-14,24.07-40,39.45-79.57,27.27C678,391,663,378.17,659.33,359.62l-1.25-57.28c3.65,18.55,18.66,31.39,36.88,37C734.51,351.53,760.56,336.14,774.53,312.07Z"/></g></g><g class="cls-4"><g class="cls-4"><g class="cls-11"><g class="cls-4"><path class="cls-1" d="M907.91,252.14l1.26,57.27c-.26-11.47-6.31-18-16.35-21.11-1-.3-2-.56-3-.77l-1.26-57.28q1.5.31,3,.78c10,3.09,16.09,9.63,16.34,21.11"/><path class="cls-1" d="M888.6,230.25l1.26,57.28a32.59,32.59,0,0,0-4.38-.65l-1.25-57.28a33.86,33.86,0,0,1,4.37.65"/><path class="cls-1" d="M884.23,229.6l1.25,57.28a31.43,31.43,0,0,0-3.64-.09l-1.25-57.27a33.91,33.91,0,0,1,3.64.08"/><path class="cls-1" d="M880.59,229.52l1.25,57.27a32.83,32.83,0,0,0-3.53.32l-1.25-57.28a32.79,32.79,0,0,1,3.53-.31"/><path class="cls-1" d="M877.06,229.83l1.25,57.28a34.56,34.56,0,0,0-3.9.79l-1.25-57.27a34.62,34.62,0,0,1,3.9-.8"/><path class="cls-1" d="M873.16,230.63l1.25,57.27a39.09,39.09,0,0,0-5.4,1.89l-1.25-57.28a37.74,37.74,0,0,1,5.4-1.88"/><path class="cls-1" d="M867.76,232.51,869,289.79c-14,6-29.14,21.52-45.94,50.47a230.45,230.45,0,0,0-11.19,21.56l-1.25-57.28A233,233,0,0,1,821.82,283c16.8-28.94,32-44.45,45.94-50.47"/><path class="cls-1" d="M810.63,304.54l1.25,57.28a100.81,100.81,0,0,0-7.39,22.2l-1.25-57.28a101,101,0,0,1,7.39-22.2"/><path class="cls-1" d="M803.24,326.74,804.49,384a45.74,45.74,0,0,0-.83,9.22L802.41,336a45.06,45.06,0,0,1,.83-9.23"/></g></g><path class="cls-1" d="M907.91,252.14l1.26,57.27c-.26-11.47-6.31-18-16.35-21.11-20.21-6.22-42.9,5.71-69.75,52-13.8,23.77-19.68,41-19.41,53L802.41,336c-.27-12,5.61-29.21,19.41-53,26.85-46.25,49.54-58.18,69.75-52C901.61,234.12,907.66,240.66,907.91,252.14Z"/></g><g class="cls-4"><g class="cls-12"><g class="cls-4"><path class="cls-1" d="M934.73,255,936,312.24a66.56,66.56,0,0,1-1.19,13.67l-1.25-57.28A66.5,66.5,0,0,0,934.73,255"/><path class="cls-1" d="M933.54,268.63l1.25,57.28a114.11,114.11,0,0,1-8.27,25.43l-1.25-57.28a114.11,114.11,0,0,0,8.27-25.43"/><path class="cls-1" d="M925.27,294.06l1.25,57.28a193.18,193.18,0,0,1-9.26,17.94c-17.86,30.75-38.5,50.18-59.56,59.23l-1.25-57.27c21.06-9.06,41.7-28.48,59.56-59.24a193.18,193.18,0,0,0,9.26-17.94"/><path class="cls-1" d="M856.45,371.24l1.25,57.27a76.66,76.66,0,0,1-10.63,3.69l-1.25-57.28a76.59,76.59,0,0,0,10.63-3.68"/><path class="cls-1" d="M845.82,374.92l1.25,57.28a71.76,71.76,0,0,1-8,1.64l-1.25-57.28a69.58,69.58,0,0,0,8-1.64"/><path class="cls-1" d="M837.8,376.56l1.25,57.28a66.85,66.85,0,0,1-7.29.64l-1.25-57.27a69.47,69.47,0,0,0,7.29-.65"/><path class="cls-1" d="M830.51,377.21l1.25,57.27a64.66,64.66,0,0,1-7.5-.17L823,377a67,67,0,0,0,7.5.17"/><path class="cls-1" d="M823,377l1.25,57.27a66.49,66.49,0,0,1-8.85-1.3l-1.25-57.28A66.52,66.52,0,0,0,823,377"/><path class="cls-1" d="M814.16,375.73,815.41,433q-2.88-.63-5.73-1.5c-20.51-6.32-32.34-20.24-32.8-41.16l-1.25-57.28c.46,20.93,12.29,34.84,32.8,41.16q2.85.88,5.73,1.5"/></g></g><path class="cls-1" d="M934.73,255,936,312.24c.34,15.25-5.52,34.3-18.72,57-31.52,54.29-71.73,73.27-107.58,62.23-20.51-6.32-32.34-20.24-32.8-41.16l-1.25-57.28c.46,20.93,12.29,34.84,32.8,41.16,35.85,11,76.06-7.94,107.58-62.23C929.21,289.27,935.07,270.22,934.73,255Z"/></g><path class="cls-1" d="M901.5,213.91C937.35,225,947.28,258.15,916,312c-31.52,54.29-71.73,73.27-107.58,62.23S763.27,329,794.78,274.66C826.05,220.8,865.65,202.87,901.5,213.91ZM818.36,357.12c20.21,6.22,43.64-7,70.62-53.45,26.85-46.25,22.8-66.42,2.59-72.64s-42.9,5.7-69.75,52c-27,46.47-23.66,67.91-3.46,74.14"/></g><g class="cls-4"><polygon class="cls-1" points="965.64 255.52 966.89 312.8 929.32 301.22 928.07 243.95 965.64 255.52"/><polygon class="cls-1" points="1040.04 258.52 1041.29 315.8 1031.48 332.69 1030.23 275.42 1040.04 258.52"/><polygon class="cls-1" points="1030.23 275.42 1031.48 332.69 993.63 321.03 992.38 263.76 1030.23 275.42"/><polygon class="cls-1" points="992.38 263.76 993.63 321.03 922.76 443.12 921.5 385.85 992.38 263.76"/><polygon class="cls-1" points="1040.04 258.52 1030.23 275.42 992.38 263.76 921.5 385.85 959.36 397.51 949.92 413.77 847.75 382.29 857.19 366.03 894.77 377.61 965.64 255.52 928.07 243.95 937.88 227.05 1040.04 258.52"/><polygon class="cls-1" points="959.36 397.51 960.61 454.78 951.17 471.04 949.92 413.77 959.36 397.51"/><polygon class="cls-1" points="949.92 413.77 951.17 471.04 849 439.57 847.75 382.29 949.92 413.77"/></g><g class="cls-4"><polygon class="cls-1" points="1046.06 290.61 1047.31 347.88 1046.17 347.54 1044.92 290.26 1046.06 290.61"/><g class="cls-4"><g class="cls-13"><g class="cls-4"><path class="cls-1" d="M1044.92,290.26l1.25,57.27c-7.94,16-15.88,33.7-25.08,49.55l-1.25-57.28c9.2-15.84,17.14-33.56,25.08-49.54"/></g></g><path class="cls-1" d="M1044.92,290.26l1.25,57.27c-7.94,16-15.88,33.7-25.08,49.55l-1.25-57.28C1029,324,1037,306.24,1044.92,290.26Z"/></g><polygon class="cls-1" points="1067.59 267.37 1068.84 324.65 1058.74 435.07 1057.49 377.79 1067.59 267.37"/><polygon class="cls-1" points="1057.49 377.79 1058.74 435.07 1053.19 472.95 1051.94 415.68 1057.49 377.79"/><polygon class="cls-1" points="1019.84 339.8 1021.09 397.08 973.88 478.4 972.63 421.12 1019.84 339.8"/><polygon class="cls-1" points="972.63 421.12 973.88 478.4 951.7 471.56 950.45 414.29 972.63 421.12"/><polygon class="cls-1" points="1057.43 447.25 1058.68 504.52 1031.65 496.19 1030.4 438.92 1057.43 447.25"/><polygon class="cls-1" points="1147.56 292 1148.81 349.28 1058.68 504.52 1057.43 447.25 1147.56 292"/><path class="cls-1" d="M1147.56,292l-90.13,155.25-27-8.33,10.43-109.83,5.22-38.48-1.13-.35c-7.94,16-15.88,33.7-25.08,49.54l-47.21,81.32-22.18-6.83,90.12-155.24,27,8.32-10.1,110.42-5.55,37.89,1.15.35c7.68-15.56,15.86-33.7,25.06-49.55l47.21-81.31Z"/></g><g class="cls-4"><polygon class="cls-1" points="1185.8 324.01 1187.05 381.28 1136.96 365.85 1135.71 308.58 1185.8 324.01"/><polygon class="cls-1" points="1271.86 330.6 1273.11 387.88 1263.3 404.77 1262.05 347.5 1271.86 330.6"/><polygon class="cls-1" points="1262.05 347.5 1263.3 404.77 1213.51 389.44 1212.26 332.16 1262.05 347.5"/><polygon class="cls-1" points="1271.86 330.6 1262.05 347.5 1212.26 332.16 1131.94 470.51 1105.48 462.36 1185.8 324.01 1135.71 308.58 1145.52 291.68 1271.86 330.6"/><polygon class="cls-1" points="1212.26 332.16 1213.51 389.44 1133.19 527.78 1131.94 470.51 1212.26 332.16"/><polygon class="cls-1" points="1131.94 470.51 1133.19 527.78 1106.73 519.63 1105.48 462.36 1131.94 470.51"/></g><path class="cls-14" d="M1365,177.91l-45.52-14h0l-99.64-30.69v0L1095.6,94.7h0l-22.2-6.84-47.2,81.32c-9.2,15.84-17.39,34-25.07,49.55l-1.15-.36,5.57-37.87,10.1-110.43-26.44-8.15h0L889.34,31.14,877.68,51.23C872.06,41.11,862,31.28,845.21,26.1c-39-12-86.83,3.38-118.71,58.3-32,55.13-14.18,89.75,24.79,101.76,15.94,4.91,31.84,4.71,48,.27L898.5,217h0l22.18,6.84,47.21-81.32c9.2-15.85,17.14-33.57,25.08-49.56l1.14.35-5.22,38.48L978.45,241.61l27,8.33,80.37-138.44,49.23,15.27-79.43,137.72,26.16,8.11,79.44-137.72L1210.08,150l-80.37,138.43L1232.15,320h0l23.94,7.38,38.14-65.7,18.78,5.79,1.71.52-.58,77.27,28.18,8.68-.72-81.4c25.63.93,48.07-8.84,61.19-31.45C1421.43,209,1402,189.31,1365,177.91ZM802.77,165.67c-14.38,6.27-26.75,7.94-39,4.17-26.18-8.06-35.35-33.3-9.59-77.66,25.38-43.72,58-56.06,81.95-48.7,12.23,3.77,17.94,11.25,21.47,20.8l15.41-5L806.8,173.31Zm105.42,34.62-72.83-22.44,32.74-56.4,61.19,18.85L939,123.61l-61.19-18.85L906,56.18l72.83,22.44ZM1239,302.45l-73.18-22.54,32.75-56.4,61.17,18.84,9.69-16.68-61.18-18.85,28.21-48.58,73.17,22.54ZM1376.61,233c-11.77,20.28-31.93,25.52-58.11,17.45l-15.08-4.64,33.48-57.66,15.08,4.64C1378.16,200.89,1388.51,212.54,1376.61,233Z"/><path class="cls-14" d="M1144.4,293.19h0l-20.87-6.43-47.21,81.32c-9.19,15.84-17.38,34-25.06,49.55l-1.15-.36,5.56-37.88L1065.76,269l-27-8.33v0l-101.94-31.4-6.73,11.59c-4.84-12.17-15.26-20.6-30.18-25.2-29.86-9.2-62.33,1.71-90.41,36.73l30.81-53.07-26.47-8.15-65,111.94C737.3,323,721.77,328.9,703,323.11c-11.1-3.42-19.81-12.08-21.6-26.32l-23.66,6.65c3.65,18.55,18.67,31.4,36.88,37,39.55,12.18,65.6-3.21,79.58-27.28l6.53-11.25C765.5,341.48,777,366.78,806.81,376c14.92,4.59,30.6,4,46.09-2.21l-6.23,10.74L948.83,416l0,0,22,6.77L1018,341.4c9.2-15.84,17.14-33.56,25.08-49.55l1.14.35L1039,330.68l-10.43,109.83,27,8.33,80.31-138.35,48.76,15-80.31,138.35,26.46,8.15,80.31-138.35,49.8,15.34,9.8-16.89ZM816.74,358.86c-20.21-6.22-23.52-27.66,3.45-74.13,26.85-46.25,49.54-58.18,69.75-52s24.26,26.4-2.59,72.65C860.37,351.89,837,365.09,816.74,358.86Zm44.57,11c18.79-10.05,37.06-28.51,53.07-56.1,15.93-27.43,21.16-49.5,17.73-66l32.45,10L893.68,379.82ZM958,399.65l-37.62-11.59L991.3,266l37.62,11.59Z"/></g><g id="圓點_線" data-name="圓點+線"><path class="cls-15" d="M709.43,133s-.58,31.11,27.94,47.47c0,0,28.91,14.76,60.13,5l86.7,26.61s31.3-1.54,45.52,26.5l6.4-10.44,129.72,40.32-16,148.15,1.35.39,72.44-130.75,131.5,40.68,37.79-66.52,21.76,7-1.28,76.82,30.77,9.25"/><circle class="cls-16" cx="709.43" cy="132.96" r="13.6"/><circle class="cls-17" cx="935.61" cy="231.99" r="13.6"/><circle class="cls-18" cx="1051.17" cy="412.4" r="13.6"/><circle class="cls-19" cx="1343.81" cy="351.52" r="13.6"/></g><g id="字-2" data-name="字"><path class="cls-20" d="M82.82,363.31a2.57,2.57,0,0,1-.79-1.9V327.89H70.13a2.51,2.51,0,0,1-2.52-2.51,2.53,2.53,0,0,1,.74-1.82,2.37,2.37,0,0,1,1.78-.76H99.31a2.59,2.59,0,0,1,2.58,2.58,2.37,2.37,0,0,1-.76,1.78,2.52,2.52,0,0,1-1.82.73H87.48v33.52a2.56,2.56,0,0,1-.82,1.9,2.7,2.7,0,0,1-1.94.8A2.59,2.59,0,0,1,82.82,363.31Z"/><path class="cls-20" d="M109,363a2.58,2.58,0,0,1-.79-1.9V325.55a2.68,2.68,0,0,1,.79-1.93,2.54,2.54,0,0,1,1.91-.82h23.49a2.59,2.59,0,0,1,2.58,2.58,2.37,2.37,0,0,1-.76,1.78,2.54,2.54,0,0,1-1.82.73h-20a.62.62,0,0,0-.7.71v12.13H132.3a2.6,2.6,0,0,1,2.58,2.57,2.37,2.37,0,0,1-.76,1.79,2.52,2.52,0,0,1-1.82.73H113.67V358a.62.62,0,0,0,.7.7h20a2.5,2.5,0,0,1,1.82.77,2.45,2.45,0,0,1,.76,1.81,2.37,2.37,0,0,1-.76,1.79,2.54,2.54,0,0,1-1.82.73H110.92A2.59,2.59,0,0,1,109,363Z"/><path class="cls-20" d="M152.81,361.82a18.41,18.41,0,0,1-7.41-7.38,24.56,24.56,0,0,1,0-22.33,18.47,18.47,0,0,1,7.29-7.32,21.47,21.47,0,0,1,10.58-2.58,25.41,25.41,0,0,1,7,.88,28.93,28.93,0,0,1,6.39,2.75,2.33,2.33,0,0,1,1.35,2.29,2.23,2.23,0,0,1-.68,1.58,2.28,2.28,0,0,1-1.73.7,2,2,0,0,1-1-.23,26.17,26.17,0,0,0-5.16-2.08,21,21,0,0,0-5.56-.67,16.36,16.36,0,0,0-8.5,2.05,13.72,13.72,0,0,0-5.3,5.59,17.61,17.61,0,0,0-1.85,8.23,17.31,17.31,0,0,0,1.82,8.15,13,13,0,0,0,5.39,5.71,16.82,16.82,0,0,0,8.44,2,21,21,0,0,0,5.56-.67,26.17,26.17,0,0,0,5.16-2.08,2,2,0,0,1,1-.24,2.34,2.34,0,0,1,1.73.68,2.21,2.21,0,0,1,.68,1.61,2.4,2.4,0,0,1-1.35,2.29,28.93,28.93,0,0,1-6.39,2.75,25.41,25.41,0,0,1-7,.88A21.18,21.18,0,0,1,152.81,361.82Z"/><path class="cls-20" d="M186.71,363.31a2.57,2.57,0,0,1-.79-1.9V325.26a2.71,2.71,0,0,1,.79-1.94,2.56,2.56,0,0,1,1.9-.82,2.8,2.8,0,0,1,2.75,2.76v15.53h22.09V325.26a2.72,2.72,0,0,1,.8-1.94,2.56,2.56,0,0,1,1.9-.82,2.8,2.8,0,0,1,2.75,2.76v36.15a2.52,2.52,0,0,1-.82,1.9,2.68,2.68,0,0,1-1.93.8,2.73,2.73,0,0,1-2.7-2.7V345.88H191.36v15.53a2.52,2.52,0,0,1-.82,1.9,2.68,2.68,0,0,1-1.93.8A2.58,2.58,0,0,1,186.71,363.31Z"/><path class="cls-20" d="M230.94,363.31a2.61,2.61,0,0,1-.79-1.9v-35a3.79,3.79,0,0,1,1.15-2.75A3.64,3.64,0,0,1,234,322.5h.76a4.12,4.12,0,0,1,3.28,1.76l21.63,31.23c.19.24.35.35.46.35s.16-.06.24-.17a.73.73,0,0,0,.12-.41v-30a2.71,2.71,0,0,1,.79-1.94,2.56,2.56,0,0,1,1.9-.82,2.8,2.8,0,0,1,2.75,2.76v35a3.67,3.67,0,0,1-1.17,2.72,3.83,3.83,0,0,1-2.75,1.15h-.7a3.88,3.88,0,0,1-1.79-.44,4,4,0,0,1-1.38-1.15l-21.74-31.4c-.19-.24-.35-.35-.47-.35s-.15.05-.23.17a.73.73,0,0,0-.12.41v30.06a2.52,2.52,0,0,1-.82,1.9,2.68,2.68,0,0,1-1.93.8A2.61,2.61,0,0,1,230.94,363.31Z"/><path class="cls-20" d="M284.53,361.7a18.63,18.63,0,0,1-7.12-7.47,23.74,23.74,0,0,1,0-21.82,18.16,18.16,0,0,1,7.21-7.5,23,23,0,0,1,21.62,0,18.58,18.58,0,0,1,7.12,7.5,23.64,23.64,0,0,1,0,21.73,18.51,18.51,0,0,1-7.24,7.56,21,21,0,0,1-10.75,2.7A21.32,21.32,0,0,1,284.53,361.7Zm18.92-4.51a13.83,13.83,0,0,0,5.25-5.65,17.85,17.85,0,0,0,1.84-8.24,18.1,18.1,0,0,0-1.81-8.2,13.82,13.82,0,0,0-5.33-5.74,15.42,15.42,0,0,0-8-2.05,14.81,14.81,0,0,0-8.09,2.11,13.87,13.87,0,0,0-5.24,5.65,17.81,17.81,0,0,0-1.85,8.23,18.12,18.12,0,0,0,1.82,8.21,13.6,13.6,0,0,0,5.3,5.77,15.56,15.56,0,0,0,8.06,2A14.78,14.78,0,0,0,303.45,357.19Z"/><path class="cls-20" d="M325.9,362.7a3.58,3.58,0,0,1-1.12-2.64v-34.8a2.75,2.75,0,0,1,.79-1.94,2.6,2.6,0,0,1,1.91-.82,2.8,2.8,0,0,1,2.75,2.76v32.4a.62.62,0,0,0,.71.7h18.39a2.8,2.8,0,0,1,2.76,2.76,2.57,2.57,0,0,1-.82,1.9,2.69,2.69,0,0,1-1.94.79h-20.8A3.6,3.6,0,0,1,325.9,362.7Z"/><path class="cls-20" d="M365.86,361.7a18.63,18.63,0,0,1-7.12-7.47,23.74,23.74,0,0,1,0-21.82,18.16,18.16,0,0,1,7.21-7.5,23,23,0,0,1,21.62,0,18.65,18.65,0,0,1,7.12,7.5,23.64,23.64,0,0,1,0,21.73,18.58,18.58,0,0,1-7.24,7.56,21.06,21.06,0,0,1-10.75,2.7A21.32,21.32,0,0,1,365.86,361.7Zm18.92-4.51a13.83,13.83,0,0,0,5.25-5.65,17.85,17.85,0,0,0,1.84-8.24,18.1,18.1,0,0,0-1.81-8.2,13.78,13.78,0,0,0-5.34-5.74,15.39,15.39,0,0,0-8-2.05,14.81,14.81,0,0,0-8.09,2.11,13.87,13.87,0,0,0-5.24,5.65,17.81,17.81,0,0,0-1.85,8.23,18.12,18.12,0,0,0,1.82,8.21,13.6,13.6,0,0,0,5.3,5.77,15.56,15.56,0,0,0,8.06,2A14.78,14.78,0,0,0,384.78,357.19Z"/><path class="cls-20" d="M413.55,361.7a18.53,18.53,0,0,1-7.32-7.47,22.47,22.47,0,0,1-2.58-10.87,22.07,22.07,0,0,1,2.7-11,19.2,19.2,0,0,1,7.38-7.47,20.56,20.56,0,0,1,10.37-2.67,26.1,26.1,0,0,1,7.76,1.06,29,29,0,0,1,6.83,3.16,2,2,0,0,1,.88.85,2.66,2.66,0,0,1,.35,1.32,2.44,2.44,0,0,1-2.52,2.46,3.38,3.38,0,0,1-1.23-.29,25.5,25.5,0,0,0-5.57-2.47,20.84,20.84,0,0,0-5.91-.82,17.69,17.69,0,0,0-8,1.88,13.37,13.37,0,0,0-5.6,5.57,17.43,17.43,0,0,0-2,8.43,17.06,17.06,0,0,0,1.93,8.15,13.69,13.69,0,0,0,5.57,5.71,16.9,16.9,0,0,0,8.38,2,21.22,21.22,0,0,0,10.19-2.58v-9.78a.62.62,0,0,0-.7-.7h-8.91a2.47,2.47,0,0,1,0-4.93h11.55a2.9,2.9,0,0,1,2.87,2.88v13.3a4.13,4.13,0,0,1-.59,2.19,3.78,3.78,0,0,1-1.7,1.5,30.12,30.12,0,0,1-13.42,3.28A20.9,20.9,0,0,1,413.55,361.7Z"/><path class="cls-20" d="M461.66,363.31a2.52,2.52,0,0,1-.82-1.9V346.47l-14-19.57a3.83,3.83,0,0,1-.47-1.64,2.77,2.77,0,0,1,.77-1.94,2.46,2.46,0,0,1,1.87-.82,2.71,2.71,0,0,1,2.4,1.35l12.19,17.76,12.19-17.76a2.73,2.73,0,0,1,2.4-1.35,2.72,2.72,0,0,1,2.64,2.64,4.58,4.58,0,0,1-.47,1.76l-14.06,19.57v14.94a2.71,2.71,0,0,1-2.7,2.7A2.68,2.68,0,0,1,461.66,363.31Z"/><path class="cls-20" d="M506.28,363.31a2.57,2.57,0,0,1-.79-1.9V325.26a2.71,2.71,0,0,1,.79-1.94,2.56,2.56,0,0,1,1.9-.82,2.82,2.82,0,0,1,2.76,2.76v36.15a2.53,2.53,0,0,1-.83,1.9,2.68,2.68,0,0,1-1.93.8A2.58,2.58,0,0,1,506.28,363.31Z"/><path class="cls-20" d="M523,363.31a2.57,2.57,0,0,1-.79-1.9v-35a3.82,3.82,0,0,1,1.14-2.75,3.64,3.64,0,0,1,2.72-1.18h.76a4.15,4.15,0,0,1,3.29,1.76l21.62,31.23c.19.24.35.35.47.35s.15-.06.23-.17a.73.73,0,0,0,.12-.41v-30a2.71,2.71,0,0,1,.79-1.94,2.57,2.57,0,0,1,1.9-.82,2.8,2.8,0,0,1,2.76,2.76v35a3.64,3.64,0,0,1-1.18,2.72,3.83,3.83,0,0,1-2.75,1.15h-.7a3.88,3.88,0,0,1-1.79-.44,4,4,0,0,1-1.38-1.15l-21.74-31.4c-.19-.24-.35-.35-.46-.35s-.16.05-.24.17a.73.73,0,0,0-.12.41v30.06a2.52,2.52,0,0,1-.82,1.9,2.68,2.68,0,0,1-1.93.8A2.58,2.58,0,0,1,523,363.31Z"/><path class="cls-20" d="M576.85,361.82a18.41,18.41,0,0,1-7.41-7.38,24.56,24.56,0,0,1,0-22.33,18.43,18.43,0,0,1,7.3-7.32,21.43,21.43,0,0,1,10.57-2.58,25.41,25.41,0,0,1,7,.88,28.93,28.93,0,0,1,6.39,2.75,2.33,2.33,0,0,1,1.35,2.29,2.23,2.23,0,0,1-.68,1.58,2.25,2.25,0,0,1-1.72.7,2.08,2.08,0,0,1-1.06-.23,26.09,26.09,0,0,0-5.15-2.08,21.16,21.16,0,0,0-5.57-.67,16.39,16.39,0,0,0-8.5,2.05,13.78,13.78,0,0,0-5.3,5.59,17.61,17.61,0,0,0-1.85,8.23,17.31,17.31,0,0,0,1.82,8.15,13,13,0,0,0,5.39,5.71,16.84,16.84,0,0,0,8.44,2,21.16,21.16,0,0,0,5.57-.67,26.09,26.09,0,0,0,5.15-2.08,2.08,2.08,0,0,1,1.06-.24,2.31,2.31,0,0,1,1.72.68,2.21,2.21,0,0,1,.68,1.61,2.4,2.4,0,0,1-1.35,2.29,28.93,28.93,0,0,1-6.39,2.75,25.41,25.41,0,0,1-7,.88A21.21,21.21,0,0,1,576.85,361.82Z"/><path class="cls-20" d="M609.31,363a3.2,3.2,0,0,1-1-2.34v-.35a3.38,3.38,0,0,1,3.34-3.34h.58a3.38,3.38,0,0,1,3.34,3.34v.35a3.4,3.4,0,0,1-3.34,3.34h-.58A3.21,3.21,0,0,1,609.31,363Z"/><g class="cls-21"><path class="cls-20" d="M67.72,447.31a1.2,1.2,0,0,1-.3-1.83.94.94,0,0,1,.76-.36,1.06,1.06,0,0,1,.5.11,5.71,5.71,0,0,0,2.54.6,3.16,3.16,0,0,0,2.43-.9,4.5,4.5,0,0,0,.85-3.12V430a1.26,1.26,0,0,1,.37-.9,1.21,1.21,0,0,1,.89-.38,1.27,1.27,0,0,1,.9.38,1.23,1.23,0,0,1,.38.9v11.68a7.39,7.39,0,0,1-1.43,4.92,5.29,5.29,0,0,1-4.23,1.67A7.38,7.38,0,0,1,67.72,447.31Z"/><path class="cls-20" d="M83.82,447.53a4.84,4.84,0,0,1-1.69-1.94,6.16,6.16,0,0,1-.6-2.74v-7.76a1.16,1.16,0,0,1,.38-.89,1.26,1.26,0,0,1,.9-.37,1.26,1.26,0,0,1,1.26,1.26v7.49c0,2.2,1,3.31,3,3.31a4.38,4.38,0,0,0,2.37-.66,8.81,8.81,0,0,0,2.09-1.94v-8.2a1.19,1.19,0,0,1,.38-.89,1.26,1.26,0,0,1,.9-.37,1.26,1.26,0,0,1,1.26,1.26v11.73a1.26,1.26,0,0,1-.37.9,1.19,1.19,0,0,1-.89.38,1.3,1.3,0,0,1-1.28-1.28v-1a8.75,8.75,0,0,1-2.33,1.83,5.78,5.78,0,0,1-2.73.63A5,5,0,0,1,83.82,447.53Z"/><path class="cls-20" d="M100.91,447.36a6.35,6.35,0,0,1-2.51-2.55,7.8,7.8,0,0,1-.93-3.84,7.66,7.66,0,0,1,1-3.89,6.6,6.6,0,0,1,2.43-2.51,6.35,6.35,0,0,1,7.9,1.17V429.1a1.22,1.22,0,0,1,.39-.92,1.26,1.26,0,0,1,.9-.37,1.2,1.2,0,0,1,.89.39,1.26,1.26,0,0,1,.37.9v17.74a1.27,1.27,0,0,1-2.16.89,1.17,1.17,0,0,1-.39-.89v-.65a6.22,6.22,0,0,1-4.65,2.05A6.33,6.33,0,0,1,100.91,447.36Zm5.87-2.05a6.72,6.72,0,0,0,2-1.47v-5.75a6.9,6.9,0,0,0-2-1.47,5.1,5.1,0,0,0-2.31-.55,4.19,4.19,0,0,0-3.27,1.3,6,6,0,0,0,0,7.19,4.19,4.19,0,0,0,3.27,1.3A5.1,5.1,0,0,0,106.78,445.31Z"/><path class="cls-20" d="M115.78,430.75a1.33,1.33,0,0,1-.43-1v-.1a1.47,1.47,0,0,1,1.42-1.43h.17a1.45,1.45,0,0,1,1.42,1.43v.1a1.45,1.45,0,0,1-1.42,1.43h-.17A1.33,1.33,0,0,1,115.78,430.75Zm.16,17a1.19,1.19,0,0,1-.37-.89V435.11a1.26,1.26,0,0,1,.37-.9,1.27,1.27,0,0,1,2.17.9v11.73a1.16,1.16,0,0,1-.38.89,1.24,1.24,0,0,1-.9.37A1.2,1.2,0,0,1,115.94,447.73Z"/><path class="cls-20" d="M125.22,447.36a6.56,6.56,0,0,1-2.7-2.57,7.93,7.93,0,0,1,0-7.71,6.89,6.89,0,0,1,2.64-2.5,7.67,7.67,0,0,1,3.68-.89,8,8,0,0,1,2.41.34,10.71,10.71,0,0,1,2.07,1,1.16,1.16,0,0,1,.55,1,1.09,1.09,0,0,1-.33.76,1,1,0,0,1-.74.36,1.35,1.35,0,0,1-.6-.16,10.27,10.27,0,0,0-1.58-.69,5.73,5.73,0,0,0-1.56-.19,5,5,0,0,0-3.65,1.33,5.35,5.35,0,0,0,0,7.13,5,5,0,0,0,3.65,1.33,5.36,5.36,0,0,0,1.56-.19,11.12,11.12,0,0,0,1.58-.68,1.37,1.37,0,0,1,.6-.17,1,1,0,0,1,.74.36,1.09,1.09,0,0,1,.33.76,1.16,1.16,0,0,1-.55,1,10.15,10.15,0,0,1-2.07,1,8,8,0,0,1-2.41.34A7.74,7.74,0,0,1,125.22,447.36Z"/><path class="cls-20" d="M137.16,430.75a1.37,1.37,0,0,1-.43-1v-.1a1.37,1.37,0,0,1,.43-1,1.33,1.33,0,0,1,1-.43h.16a1.45,1.45,0,0,1,1.42,1.43v.1a1.45,1.45,0,0,1-1.42,1.43h-.16A1.33,1.33,0,0,1,137.16,430.75Zm.16,17a1.22,1.22,0,0,1-.37-.89V435.11a1.3,1.3,0,0,1,.37-.9,1.21,1.21,0,0,1,.89-.38,1.24,1.24,0,0,1,.92.37,1.25,1.25,0,0,1,.37.91v11.73a1.17,1.17,0,0,1-.39.89,1.22,1.22,0,0,1-.9.37A1.2,1.2,0,0,1,137.32,447.73Z"/><path class="cls-20" d="M146.25,447.34a6.36,6.36,0,0,1-2.46-2.6,8,8,0,0,1-.88-3.77,8.14,8.14,0,0,1,.88-3.81,6.25,6.25,0,0,1,2.47-2.57,7.4,7.4,0,0,1,3.68-.9,7.31,7.31,0,0,1,3.67.9,6.38,6.38,0,0,1,2.48,2.59A7.88,7.88,0,0,1,157,441a7.8,7.8,0,0,1-.88,3.77,6.27,6.27,0,0,1-2.5,2.6,7.29,7.29,0,0,1-3.65.9A7.36,7.36,0,0,1,146.25,447.34Zm5.85-1.94a4.07,4.07,0,0,0,1.7-1.69,5.62,5.62,0,0,0,.63-2.77,5.24,5.24,0,0,0-.66-2.79,4.14,4.14,0,0,0-1.6-1.59,4.63,4.63,0,0,0-2.23-.54,4.94,4.94,0,0,0-2.16.49,4,4,0,0,0-1.69,1.67,5.52,5.52,0,0,0-.63,2.76,5.36,5.36,0,0,0,.65,2.81,4.09,4.09,0,0,0,1.6,1.62,4.63,4.63,0,0,0,2.23.54A4.83,4.83,0,0,0,152.1,445.4Z"/><path class="cls-20" d="M162.55,447.53a4.78,4.78,0,0,1-1.7-1.94,6.16,6.16,0,0,1-.6-2.74v-7.76a1.19,1.19,0,0,1,.38-.89,1.26,1.26,0,0,1,.91-.37,1.26,1.26,0,0,1,1.25,1.26v7.49c0,2.2,1,3.31,3,3.31a4.36,4.36,0,0,0,2.37-.66,8.63,8.63,0,0,0,2.09-1.94v-8.2a1.19,1.19,0,0,1,.38-.89,1.26,1.26,0,0,1,.91-.37,1.26,1.26,0,0,1,1.25,1.26v11.73a1.26,1.26,0,0,1-.37.9,1.19,1.19,0,0,1-.88.38,1.3,1.3,0,0,1-1.29-1.28v-1a8.88,8.88,0,0,1-2.32,1.83,5.85,5.85,0,0,1-2.74.63A4.9,4.9,0,0,1,162.55,447.53Z"/><path class="cls-20" d="M176.57,447a1.07,1.07,0,0,1-.46-.93,1.12,1.12,0,0,1,.31-.78,1,1,0,0,1,.78-.34,1,1,0,0,1,.5.11,9.81,9.81,0,0,0,1.8.61,8.16,8.16,0,0,0,1.91.21c2,0,3-.64,3-1.92a1,1,0,0,0-.65-.93,13.72,13.72,0,0,0-2.3-.73,17,17,0,0,1-2.65-.8,4.27,4.27,0,0,1-1.89-1.31,3.32,3.32,0,0,1-.71-2.16,3.91,3.91,0,0,1,1.42-3.14,5.88,5.88,0,0,1,3.94-1.21,10.82,10.82,0,0,1,4,.69,1.1,1.1,0,0,1,.61.41,1.12,1.12,0,0,1,.21.65,1.13,1.13,0,0,1-.32.78,1.07,1.07,0,0,1-.8.34l-.35-.05a10.86,10.86,0,0,0-3.12-.49,4.26,4.26,0,0,0-2.27.52,1.56,1.56,0,0,0-.85,1.36,1.26,1.26,0,0,0,.74,1.18,14.65,14.65,0,0,0,2.38.74c1,.25,1.86.52,2.63.79a4.09,4.09,0,0,1,1.8,1.33,3.56,3.56,0,0,1,.68,2.22,3.6,3.6,0,0,1-1.42,2.93,6,6,0,0,1-3.88,1.15A10.47,10.47,0,0,1,176.57,447Z"/><path class="cls-20" d="M74.21,483.73a1.22,1.22,0,0,1-.37-.89V467.2H68.29a1.13,1.13,0,0,1-.83-.34,1.12,1.12,0,0,1-.34-.83,1.18,1.18,0,0,1,.34-.85,1.11,1.11,0,0,1,.83-.36H81.91a1.16,1.16,0,0,1,.85.36,1.19,1.19,0,0,1,.35.85,1.13,1.13,0,0,1-.35.83,1.18,1.18,0,0,1-.85.34H76.39v15.64a1.17,1.17,0,0,1-.39.89,1.27,1.27,0,0,1-1.79,0Z"/><path class="cls-20" d="M84.85,482.32A7.31,7.31,0,0,1,83,477a9.23,9.23,0,0,1,.71-3.59,6,6,0,0,1,2.24-2.7,6.42,6.42,0,0,1,3.61-1,6.59,6.59,0,0,1,3.53.93,6.45,6.45,0,0,1,2.21,2.5,7.62,7.62,0,0,1,.79,3.49,1.22,1.22,0,0,1-.35.89,1.27,1.27,0,0,1-.93.37H85.55a4.4,4.4,0,0,0,1.46,3,4.92,4.92,0,0,0,3.3,1,8.27,8.27,0,0,0,2-.21A8,8,0,0,0,94,481a1,1,0,0,1,.49-.11,1.13,1.13,0,0,1,.78.32,1,1,0,0,1,.34.78,1.21,1.21,0,0,1-.74,1,8.85,8.85,0,0,1-4.78,1.2A7,7,0,0,1,84.85,482.32Zm8.68-6.89a3.65,3.65,0,0,0-.65-1.83,4,4,0,0,0-1.49-1.31,4.19,4.19,0,0,0-1.85-.44,4.72,4.72,0,0,0-1.83.41,3.56,3.56,0,0,0-1.52,1.38,4.64,4.64,0,0,0-.64,2.15H93.2Q93.56,475.79,93.53,475.43Z"/><path class="cls-20" d="M102.15,483.36a6.58,6.58,0,0,1-2.71-2.57,7.9,7.9,0,0,1,0-7.71,6.79,6.79,0,0,1,2.63-2.5,7.7,7.7,0,0,1,3.68-.89,8,8,0,0,1,2.41.34,11.07,11.07,0,0,1,2.08,1,1.18,1.18,0,0,1,.54,1,1.09,1.09,0,0,1-.33.76,1,1,0,0,1-.73.36,1.29,1.29,0,0,1-.6-.16,10.31,10.31,0,0,0-1.59-.69,5.73,5.73,0,0,0-1.56-.19,5,5,0,0,0-3.65,1.33,5.38,5.38,0,0,0,0,7.13,5,5,0,0,0,3.65,1.33,5.36,5.36,0,0,0,1.56-.19,11.16,11.16,0,0,0,1.59-.68,1.31,1.31,0,0,1,.6-.17,1,1,0,0,1,.73.36,1.09,1.09,0,0,1,.33.76,1.18,1.18,0,0,1-.54,1,10.48,10.48,0,0,1-2.08,1,8,8,0,0,1-2.41.34A7.7,7.7,0,0,1,102.15,483.36Z"/><path class="cls-20" d="M114.24,483.73a1.21,1.21,0,0,1-.36-.89V465.1a1.25,1.25,0,0,1,.36-.9,1.2,1.2,0,0,1,.89-.39,1.32,1.32,0,0,1,1.29,1.29v7a8.88,8.88,0,0,1,2.32-1.83,5.83,5.83,0,0,1,2.74-.63,5,5,0,0,1,2.65.71,4.67,4.67,0,0,1,1.68,1.94,6.32,6.32,0,0,1,.59,2.74v7.76a1.19,1.19,0,0,1-.38.89,1.26,1.26,0,0,1-.91.37,1.26,1.26,0,0,1-1.25-1.26v-7.49c0-2.2-1-3.31-3-3.31a4.36,4.36,0,0,0-2.37.66,8.63,8.63,0,0,0-2.09,1.94v8.2a1.19,1.19,0,0,1-.38.89,1.26,1.26,0,0,1-.91.37A1.22,1.22,0,0,1,114.24,483.73Z"/><path class="cls-20" d="M130.9,483.73a1.19,1.19,0,0,1-.37-.89V471.11a1.26,1.26,0,0,1,.37-.9,1.19,1.19,0,0,1,.89-.38,1.3,1.3,0,0,1,1.28,1.28v1a8.75,8.75,0,0,1,2.33-1.83,5.78,5.78,0,0,1,2.73-.63,5,5,0,0,1,2.65.71,4.67,4.67,0,0,1,1.68,1.94,6.18,6.18,0,0,1,.59,2.74v7.76a1.19,1.19,0,0,1-.38.89,1.26,1.26,0,0,1-.9.37,1.26,1.26,0,0,1-1.26-1.26v-7.49c0-2.2-1-3.31-3-3.31a4.36,4.36,0,0,0-2.37.66,8.63,8.63,0,0,0-2.09,1.94v8.2a1.19,1.19,0,0,1-.38.89,1.26,1.26,0,0,1-.9.37A1.19,1.19,0,0,1,130.9,483.73Z"/><path class="cls-20" d="M149.67,483.34a6.36,6.36,0,0,1-2.46-2.6,7.91,7.91,0,0,1-.88-3.77,8,8,0,0,1,.88-3.81,6.25,6.25,0,0,1,2.47-2.57,7.38,7.38,0,0,1,3.68-.9,7.27,7.27,0,0,1,3.66.9,6.34,6.34,0,0,1,2.49,2.59,7.88,7.88,0,0,1,.88,3.79,7.8,7.8,0,0,1-.88,3.77,6.27,6.27,0,0,1-2.5,2.6,7.93,7.93,0,0,1-7.34,0Zm5.85-1.94a4.07,4.07,0,0,0,1.7-1.69,5.73,5.73,0,0,0,.62-2.77,5.24,5.24,0,0,0-.65-2.79,4.21,4.21,0,0,0-1.6-1.59,4.63,4.63,0,0,0-2.23-.54,4.94,4.94,0,0,0-2.16.49,4,4,0,0,0-1.7,1.67,5.52,5.52,0,0,0-.62,2.76,5.27,5.27,0,0,0,.65,2.81,4.09,4.09,0,0,0,1.6,1.62,4.63,4.63,0,0,0,2.23.54A4.83,4.83,0,0,0,155.52,481.4Z"/><path class="cls-20" d="M164.17,483.73a1.21,1.21,0,0,1-.36-.89V465.1a1.25,1.25,0,0,1,.36-.9,1.2,1.2,0,0,1,.89-.39,1.28,1.28,0,0,1,.92.37,1.24,1.24,0,0,1,.37.92v17.74a1.19,1.19,0,0,1-.38.89,1.26,1.26,0,0,1-.91.37A1.22,1.22,0,0,1,164.17,483.73Z"/><path class="cls-20" d="M173.1,483.34a6.36,6.36,0,0,1-2.46-2.6,8,8,0,0,1-.87-3.77,8.13,8.13,0,0,1,.87-3.81,6.21,6.21,0,0,1,2.48-2.57,7.93,7.93,0,0,1,7.34,0,6.47,6.47,0,0,1,2.49,2.59,8,8,0,0,1,.87,3.79,7.91,7.91,0,0,1-.87,3.77,6.36,6.36,0,0,1-2.51,2.6,7.29,7.29,0,0,1-3.65.9A7.36,7.36,0,0,1,173.1,483.34ZM179,481.4a4.07,4.07,0,0,0,1.7-1.69,5.62,5.62,0,0,0,.63-2.77,5.24,5.24,0,0,0-.66-2.79,4.14,4.14,0,0,0-1.6-1.59,4.6,4.6,0,0,0-2.23-.54,5,5,0,0,0-2.16.49,4,4,0,0,0-1.69,1.67,5.52,5.52,0,0,0-.63,2.76,5.26,5.26,0,0,0,.66,2.81,4.07,4.07,0,0,0,1.59,1.62,4.63,4.63,0,0,0,2.23.54A4.83,4.83,0,0,0,179,481.4Z"/><path class="cls-20" d="M190.62,490.12a11.25,11.25,0,0,1-2.7-1,1.11,1.11,0,0,1-.52-1,1.14,1.14,0,0,1,.33-.79,1,1,0,0,1,.79-.36,1.46,1.46,0,0,1,.5.11,10,10,0,0,0,4.51,1c2.77,0,4.15-1.47,4.15-4.43v-1.75a6.08,6.08,0,0,1-4.64,2,6.73,6.73,0,0,1-5.69-3.3,7.4,7.4,0,0,1-1-3.84,7.51,7.51,0,0,1,1-3.94,6.48,6.48,0,0,1,2.47-2.38,6.67,6.67,0,0,1,3.19-.82,6.08,6.08,0,0,1,4.64,2v-.61a1.3,1.3,0,0,1,.37-.9,1.29,1.29,0,0,1,2.18.9v12.23a7.72,7.72,0,0,1-1.67,5.31,6.08,6.08,0,0,1-4.79,1.88A13,13,0,0,1,190.62,490.12Zm5.11-9a8.17,8.17,0,0,0,2-1.49V474a8.17,8.17,0,0,0-2-1.49,4.72,4.72,0,0,0-2.17-.5,4.58,4.58,0,0,0-3.37,1.25,5.65,5.65,0,0,0,0,7.11,4.55,4.55,0,0,0,3.37,1.26A4.72,4.72,0,0,0,195.73,481.14Z"/><path class="cls-20" d="M206.79,490a1.18,1.18,0,0,1-.36-.86,1.15,1.15,0,0,1,.09-.44l1.77-4.56-5.14-12.53a1.43,1.43,0,0,1-.11-.52,1.3,1.3,0,0,1,.37-.9,1.24,1.24,0,0,1,1.6-.16,1.18,1.18,0,0,1,.47.57L209.66,481l4.27-10.31a1.23,1.23,0,0,1,1.17-.85,1.21,1.21,0,0,1,.89.38,1.26,1.26,0,0,1,.37.9,1.45,1.45,0,0,1-.08.47l-7.47,17.94a1.24,1.24,0,0,1-1.17.87A1.13,1.13,0,0,1,206.79,490Z"/><path class="cls-20" d="M219.23,477.07a1.06,1.06,0,0,1-.33-.79,1.14,1.14,0,0,1,.32-.82,1.06,1.06,0,0,1,.8-.33h5.17a1.11,1.11,0,0,1,.81.35,1.13,1.13,0,0,1,0,1.61,1.13,1.13,0,0,1-.82.31H220A1.07,1.07,0,0,1,219.23,477.07Z"/><path class="cls-20" d="M232.93,483.36a6.31,6.31,0,0,1-2.52-2.55,7.8,7.8,0,0,1-.93-3.84,7.66,7.66,0,0,1,1-3.89,6.55,6.55,0,0,1,2.44-2.51,6.35,6.35,0,0,1,7.9,1.17V465.1a1.21,1.21,0,0,1,.38-.92,1.3,1.3,0,0,1,.9-.37,1.17,1.17,0,0,1,.89.39,1.22,1.22,0,0,1,.37.9v17.74a1.26,1.26,0,0,1-1.26,1.26,1.26,1.26,0,0,1-.9-.37,1.16,1.16,0,0,1-.38-.89v-.65a6.22,6.22,0,0,1-4.65,2.05A6.3,6.3,0,0,1,232.93,483.36Zm5.87-2.05a7,7,0,0,0,2-1.47v-5.75a7.19,7.19,0,0,0-2-1.47,5.11,5.11,0,0,0-2.32-.55,4.18,4.18,0,0,0-3.26,1.3,6,6,0,0,0,0,7.19,4.18,4.18,0,0,0,3.26,1.3A5.11,5.11,0,0,0,238.8,481.31Z"/><path class="cls-20" d="M248,483.73a1.19,1.19,0,0,1-.37-.89V471.11a1.26,1.26,0,0,1,.37-.9,1.19,1.19,0,0,1,.88-.38,1.3,1.3,0,0,1,1.29,1.28v1.1a5.34,5.34,0,0,1,4.27-2.52h.13a1.2,1.2,0,0,1,.88.37,1.26,1.26,0,0,1,.35.89,1.11,1.11,0,0,1-.37.86,1.27,1.27,0,0,1-.91.34h-.14a4.65,4.65,0,0,0-2.36.62,5.44,5.44,0,0,0-1.85,1.76v8.31a1.19,1.19,0,0,1-.38.89,1.26,1.26,0,0,1-.91.37A1.18,1.18,0,0,1,248,483.73Z"/><path class="cls-20" d="M258.26,466.75a1.36,1.36,0,0,1-.42-1v-.1a1.45,1.45,0,0,1,1.42-1.43h.17a1.47,1.47,0,0,1,1.42,1.43v.1a1.47,1.47,0,0,1-1.42,1.43h-.17A1.36,1.36,0,0,1,258.26,466.75Zm.17,17a1.19,1.19,0,0,1-.37-.89V471.11a1.26,1.26,0,0,1,.37-.9,1.19,1.19,0,0,1,.89-.38,1.26,1.26,0,0,1,1.28,1.28v11.73a1.19,1.19,0,0,1-.38.89,1.26,1.26,0,0,1-.9.37A1.19,1.19,0,0,1,258.43,483.73Z"/><path class="cls-20" d="M268.93,483.82a1.76,1.76,0,0,1-.62-.76l-4.75-11.37a1.54,1.54,0,0,1-.14-.58,1.26,1.26,0,0,1,.37-.9,1.19,1.19,0,0,1,.89-.38,1.34,1.34,0,0,1,.68.2,1.14,1.14,0,0,1,.46.54l3.94,10c.06.13.13.2.22.2s.17-.07.22-.2l3.94-10a1.14,1.14,0,0,1,.46-.54,1.34,1.34,0,0,1,.69-.2,1.19,1.19,0,0,1,.88.38,1.26,1.26,0,0,1,.37.9,1.71,1.71,0,0,1-.13.58l-4.76,11.37a1.69,1.69,0,0,1-.62.76,1.58,1.58,0,0,1-.91.28h-.28A1.6,1.6,0,0,1,268.93,483.82Z"/><path class="cls-20" d="M280.39,482.32a7.31,7.31,0,0,1-1.88-5.35,9.42,9.42,0,0,1,.71-3.59,6,6,0,0,1,2.25-2.7,6.39,6.39,0,0,1,3.6-1,6.57,6.57,0,0,1,3.53.93,6.4,6.4,0,0,1,2.22,2.5,7.62,7.62,0,0,1,.79,3.49,1.25,1.25,0,0,1-1.29,1.26h-9.24a4.41,4.41,0,0,0,1.47,3,4.89,4.89,0,0,0,3.29,1,8.35,8.35,0,0,0,2-.21,7.76,7.76,0,0,0,1.73-.64,1,1,0,0,1,.49-.11,1.13,1.13,0,0,1,.78.32,1,1,0,0,1,.35.78,1.21,1.21,0,0,1-.74,1,10.33,10.33,0,0,1-2.19.91,10,10,0,0,1-2.6.29A7,7,0,0,1,280.39,482.32Zm8.68-6.89a3.75,3.75,0,0,0-.66-1.83,3.89,3.89,0,0,0-1.49-1.31,4.16,4.16,0,0,0-1.85-.44,4.72,4.72,0,0,0-1.83.41,3.53,3.53,0,0,0-1.51,1.38,4.64,4.64,0,0,0-.65,2.15h7.66C289,475.79,289.08,475.67,289.07,475.43Z"/><path class="cls-20" d="M295.21,483.73a1.19,1.19,0,0,1-.37-.89V471.11a1.26,1.26,0,0,1,.37-.9,1.19,1.19,0,0,1,.88-.38,1.3,1.3,0,0,1,1.29,1.28v1a8.88,8.88,0,0,1,2.32-1.83,5.85,5.85,0,0,1,2.74-.63,5,5,0,0,1,2.65.71,4.67,4.67,0,0,1,1.68,1.94,6.32,6.32,0,0,1,.59,2.74v7.76a1.19,1.19,0,0,1-.38.89,1.26,1.26,0,0,1-.91.37,1.26,1.26,0,0,1-1.25-1.26v-7.49c0-2.2-1-3.31-3-3.31a4.36,4.36,0,0,0-2.37.66,8.63,8.63,0,0,0-2.09,1.94v8.2a1.19,1.19,0,0,1-.38.89,1.26,1.26,0,0,1-.91.37A1.18,1.18,0,0,1,295.21,483.73Z"/><path class="cls-20" d="M69.78,519.73a1.22,1.22,0,0,1-.37-.89V502a1.3,1.3,0,0,1,.37-.9A1.29,1.29,0,0,1,72,502v16.87a1.17,1.17,0,0,1-.39.89,1.27,1.27,0,0,1-1.79,0Z"/><path class="cls-20" d="M76.81,519.73a1.19,1.19,0,0,1-.37-.89V507.11a1.26,1.26,0,0,1,.37-.9,1.21,1.21,0,0,1,.89-.38A1.3,1.3,0,0,1,79,507.11v1a8.91,8.91,0,0,1,2.33-1.83,5.78,5.78,0,0,1,2.73-.63,5,5,0,0,1,2.66.71,4.81,4.81,0,0,1,1.68,1.94,6.32,6.32,0,0,1,.59,2.74v7.76a1.17,1.17,0,0,1-.39.89,1.22,1.22,0,0,1-.9.37,1.2,1.2,0,0,1-.89-.37,1.22,1.22,0,0,1-.37-.89v-7.49c0-2.2-1-3.31-3-3.31a4.35,4.35,0,0,0-2.36.66,8.66,8.66,0,0,0-2.1,1.94v8.2a1.16,1.16,0,0,1-.38.89,1.22,1.22,0,0,1-.9.37A1.2,1.2,0,0,1,76.81,519.73Z"/><path class="cls-20" d="M93.46,519.73a1.22,1.22,0,0,1-.37-.89V507.11a1.3,1.3,0,0,1,.37-.9,1.29,1.29,0,0,1,2.18.9v1A8.72,8.72,0,0,1,98,506.32a5.8,5.8,0,0,1,2.74-.63,5,5,0,0,1,2.65.71,4.67,4.67,0,0,1,1.68,1.94,6.32,6.32,0,0,1,.59,2.74v7.76a1.17,1.17,0,0,1-.39.89,1.27,1.27,0,0,1-2.16-.89v-7.49c0-2.2-1-3.31-3-3.31a4.35,4.35,0,0,0-2.36.66,8.63,8.63,0,0,0-2.09,1.94v8.2a1.17,1.17,0,0,1-.39.89,1.27,1.27,0,0,1-1.79,0Z"/><path class="cls-20" d="M112.23,519.34a6.49,6.49,0,0,1-2.46-2.6,8,8,0,0,1-.87-3.77,8.13,8.13,0,0,1,.87-3.81,6.27,6.27,0,0,1,2.48-2.57,7.93,7.93,0,0,1,7.34,0,6.4,6.4,0,0,1,2.49,2.59A8,8,0,0,1,123,513a7.91,7.91,0,0,1-.87,3.77,6.33,6.33,0,0,1-2.5,2.6,8,8,0,0,1-7.35,0Zm5.86-1.94a4,4,0,0,0,1.69-1.69,5.62,5.62,0,0,0,.63-2.77,5.24,5.24,0,0,0-.66-2.79,4.14,4.14,0,0,0-1.6-1.59,4.56,4.56,0,0,0-2.22-.54,4.94,4.94,0,0,0-2.16.49,4,4,0,0,0-1.7,1.67,5.52,5.52,0,0,0-.63,2.76,5.26,5.26,0,0,0,.66,2.81,4,4,0,0,0,1.6,1.62,4.6,4.6,0,0,0,2.23.54A4.89,4.89,0,0,0,118.09,517.4Z"/><path class="cls-20" d="M130.32,519.82a1.67,1.67,0,0,1-.61-.76L125,507.69a1.77,1.77,0,0,1-.14-.58,1.3,1.3,0,0,1,.37-.9,1.21,1.21,0,0,1,.89-.38,1.28,1.28,0,0,1,.68.2,1.16,1.16,0,0,1,.47.54l3.94,10c.05.13.12.2.22.2s.16-.07.21-.2l3.94-10A1.16,1.16,0,0,1,136,506a1.31,1.31,0,0,1,.68-.2,1.21,1.21,0,0,1,.89.38,1.3,1.3,0,0,1,.37.9,1.77,1.77,0,0,1-.14.58L133,519.06a1.67,1.67,0,0,1-.61.76,1.61,1.61,0,0,1-.92.28h-.27A1.63,1.63,0,0,1,130.32,519.82Z"/><path class="cls-20" d="M142.12,519.75a3.81,3.81,0,0,1-1.67-1.45,4,4,0,0,1-.6-2.19,3.77,3.77,0,0,1,1.66-3.29,8,8,0,0,1,4.66-1.17h3.28v-.19a3.39,3.39,0,0,0-.86-2.56,4,4,0,0,0-2.78-.8,9.5,9.5,0,0,0-1.77.15,15.6,15.6,0,0,0-1.86.5l-.36.06a1,1,0,0,1-.72-.32,1,1,0,0,1-.32-.75,1.07,1.07,0,0,1,.74-1.06,11.84,11.84,0,0,1,4.73-1,6.43,6.43,0,0,1,3.23.77,4.82,4.82,0,0,1,1.88,2,5.78,5.78,0,0,1,.63,2.7v7.73a1.19,1.19,0,0,1-.38.89,1.26,1.26,0,0,1-.9.37,1.26,1.26,0,0,1-1.26-1.26v-.65a6.76,6.76,0,0,1-5.11,2A5.22,5.22,0,0,1,142.12,519.75Zm5.43-2.31a6.42,6.42,0,0,0,1.9-1.47V513.7H146.5c-2.74,0-4.1.71-4.1,2.14s.95,2.16,2.87,2.16A5,5,0,0,0,147.55,517.44Z"/><path class="cls-20" d="M163.26,518.05a1,1,0,0,1,.3.71,1.1,1.1,0,0,1-.66,1,5.45,5.45,0,0,1-2.27.49q-4,0-4-3.64v-8.31h-1.36a1.1,1.1,0,1,1,0-2.19h1.36v-1.94a1.27,1.27,0,0,1,.35-1,1.32,1.32,0,0,1,.94-.32,1.22,1.22,0,0,1,.93.34,1.3,1.3,0,0,1,.33.94v1.94h3.06A1.1,1.1,0,0,1,163,508a1,1,0,0,1-.78.33h-3.06v8.09a1.55,1.55,0,0,0,.43,1.29,2.2,2.2,0,0,0,1.32.33,3.6,3.6,0,0,0,1.09-.17l.08,0a2.23,2.23,0,0,1,.47-.06A1,1,0,0,1,163.26,518.05Z"/><path class="cls-20" d="M166.44,502.75a1.36,1.36,0,0,1-.42-1v-.1a1.45,1.45,0,0,1,1.42-1.43h.17a1.47,1.47,0,0,1,1.42,1.43v.1a1.47,1.47,0,0,1-1.42,1.43h-.17A1.36,1.36,0,0,1,166.44,502.75Zm.17,17a1.19,1.19,0,0,1-.37-.89V507.11a1.26,1.26,0,0,1,.37-.9,1.19,1.19,0,0,1,.89-.38,1.26,1.26,0,0,1,1.28,1.28v11.73a1.19,1.19,0,0,1-.38.89,1.26,1.26,0,0,1-.9.37A1.19,1.19,0,0,1,166.61,519.73Z"/><path class="cls-20" d="M177.11,519.82a1.69,1.69,0,0,1-.62-.76l-4.76-11.37a1.71,1.71,0,0,1-.13-.58,1.26,1.26,0,0,1,.37-.9,1.19,1.19,0,0,1,.89-.38,1.34,1.34,0,0,1,.68.2,1.14,1.14,0,0,1,.46.54l3.94,10c.06.13.13.2.22.2s.16-.07.22-.2l3.94-10a1.14,1.14,0,0,1,.46-.54,1.34,1.34,0,0,1,.69-.2,1.19,1.19,0,0,1,.88.38,1.26,1.26,0,0,1,.37.9,1.71,1.71,0,0,1-.13.58l-4.76,11.37a1.69,1.69,0,0,1-.62.76,1.58,1.58,0,0,1-.91.28H178A1.6,1.6,0,0,1,177.11,519.82Z"/><path class="cls-20" d="M188.56,518.32a7.35,7.35,0,0,1-1.87-5.35,9.42,9.42,0,0,1,.71-3.59,6,6,0,0,1,2.25-2.7,6.39,6.39,0,0,1,3.6-1,6.57,6.57,0,0,1,3.53.93,6.4,6.4,0,0,1,2.22,2.5,7.75,7.75,0,0,1,.79,3.49,1.25,1.25,0,0,1-1.29,1.26h-9.24a4.41,4.41,0,0,0,1.47,3,4.89,4.89,0,0,0,3.29,1,8.35,8.35,0,0,0,2-.21,7.76,7.76,0,0,0,1.73-.64,1,1,0,0,1,.49-.11,1.13,1.13,0,0,1,.78.32,1,1,0,0,1,.34.78,1.2,1.2,0,0,1-.73,1,10.33,10.33,0,0,1-2.19.91,10,10,0,0,1-2.6.29A7,7,0,0,1,188.56,518.32Zm8.69-6.89a3.75,3.75,0,0,0-.66-1.83,3.89,3.89,0,0,0-1.49-1.31,4.16,4.16,0,0,0-1.85-.44,4.72,4.72,0,0,0-1.83.41,3.61,3.61,0,0,0-1.52,1.38,4.76,4.76,0,0,0-.64,2.15h7.66Q197.27,511.79,197.25,511.43Z"/></g><path class="cls-20" d="M75.46,292a18.28,18.28,0,0,1-7.41-7.38,24.6,24.6,0,0,1,0-22.33,18.43,18.43,0,0,1,7.3-7.32A21.47,21.47,0,0,1,86,252.39a25.85,25.85,0,0,1,7,.88A29,29,0,0,1,99.31,256a2.32,2.32,0,0,1,1.34,2.28,2.21,2.21,0,0,1-.67,1.58,2.3,2.3,0,0,1-1.73.71,2,2,0,0,1-1-.24A26.17,26.17,0,0,0,92,258.28a21.1,21.1,0,0,0-5.57-.67A16.33,16.33,0,0,0,78,259.66a13.8,13.8,0,0,0-5.31,5.59,17.62,17.62,0,0,0-1.84,8.24,17.15,17.15,0,0,0,1.82,8.14A12.94,12.94,0,0,0,78,287.34a16.8,16.8,0,0,0,8.43,2,21.1,21.1,0,0,0,5.57-.67,26.17,26.17,0,0,0,5.16-2.08,2.15,2.15,0,0,1,1-.23,2.34,2.34,0,0,1,1.73.67,2.2,2.2,0,0,1,.67,1.61A2.4,2.4,0,0,1,99.31,291a28.93,28.93,0,0,1-6.39,2.75,25.46,25.46,0,0,1-7,.88A21.15,21.15,0,0,1,75.46,292Z"/><path class="cls-20" d="M109.35,293.2a2.61,2.61,0,0,1-.79-1.9V255.73a2.72,2.72,0,0,1,.79-1.93,2.56,2.56,0,0,1,1.91-.82h23.49a2.59,2.59,0,0,1,2.58,2.58,2.35,2.35,0,0,1-.76,1.78,2.53,2.53,0,0,1-1.82.74h-20a.62.62,0,0,0-.71.7v12.13h18.64a2.6,2.6,0,0,1,2.57,2.58,2.35,2.35,0,0,1-.76,1.78,2.52,2.52,0,0,1-1.81.74H114v12.18a.63.63,0,0,0,.71.71h20a2.6,2.6,0,0,1,2.58,2.57,2.37,2.37,0,0,1-.76,1.79,2.52,2.52,0,0,1-1.82.73H111.26A2.61,2.61,0,0,1,109.35,293.2Z"/><path class="cls-20" d="M146.74,293.5a2.61,2.61,0,0,1-.79-1.91v-35a3.82,3.82,0,0,1,1.14-2.75,3.67,3.67,0,0,1,2.72-1.17h.76a4.14,4.14,0,0,1,3.29,1.75l21.62,31.23c.19.24.35.36.47.36s.15-.06.23-.18a.71.71,0,0,0,.12-.41v-30a2.67,2.67,0,0,1,.79-1.93,2.54,2.54,0,0,1,1.9-.82,2.8,2.8,0,0,1,2.76,2.75v35a3.64,3.64,0,0,1-1.18,2.72,3.77,3.77,0,0,1-2.75,1.15h-.7a3.88,3.88,0,0,1-1.79-.44A4.11,4.11,0,0,1,174,292.7l-21.73-31.4c-.2-.24-.36-.35-.47-.35s-.16.06-.24.17a.72.72,0,0,0-.11.41v30.06a2.57,2.57,0,0,1-.83,1.91,2.71,2.71,0,0,1-1.93.79A2.61,2.61,0,0,1,146.74,293.5Z"/><path class="cls-20" d="M203.28,293.5a2.61,2.61,0,0,1-.79-1.91V258.08h-11.9a2.53,2.53,0,0,1-2.52-2.52,2.53,2.53,0,0,1,.74-1.82,2.35,2.35,0,0,1,1.78-.76h29.18a2.59,2.59,0,0,1,2.58,2.58,2.35,2.35,0,0,1-.76,1.78,2.53,2.53,0,0,1-1.82.74H207.94v33.51a2.6,2.6,0,0,1-.82,1.91,2.73,2.73,0,0,1-1.94.79A2.62,2.62,0,0,1,203.28,293.5Z"/><path class="cls-20" d="M229.47,293.2a2.57,2.57,0,0,1-.79-1.9V255.73a2.68,2.68,0,0,1,.79-1.93,2.54,2.54,0,0,1,1.91-.82h23.49a2.59,2.59,0,0,1,2.58,2.58,2.39,2.39,0,0,1-.76,1.78,2.55,2.55,0,0,1-1.82.74h-20a.62.62,0,0,0-.7.7v12.13h18.63a2.59,2.59,0,0,1,2.58,2.58,2.35,2.35,0,0,1-.76,1.78,2.53,2.53,0,0,1-1.82.74H234.13v12.18a.62.62,0,0,0,.7.71h20a2.6,2.6,0,0,1,2.58,2.57,2.41,2.41,0,0,1-.76,1.79,2.54,2.54,0,0,1-1.82.73H231.38A2.59,2.59,0,0,1,229.47,293.2Z"/><path class="cls-20" d="M296.36,280.43a20.47,20.47,0,0,1,1.7,8.47v2.69a2.71,2.71,0,0,1-2.7,2.7,2.73,2.73,0,0,1-2-.74,2.57,2.57,0,0,1-.76-2v-1.76a26.73,26.73,0,0,0-.53-5.45,8,8,0,0,0-2.67-4.54,8.68,8.68,0,0,0-5.83-1.78H271.51v13.53a2.56,2.56,0,0,1-.82,1.91,2.72,2.72,0,0,1-1.93.79,2.7,2.7,0,0,1-2.7-2.7V255.73a2.72,2.72,0,0,1,.79-1.93,2.56,2.56,0,0,1,1.91-.82h13.65q7.74,0,11.87,3.25a10.52,10.52,0,0,1,4.13,8.7,11.19,11.19,0,0,1-2,6.45,11,11,0,0,1-5.59,4.16A8.43,8.43,0,0,1,296.36,280.43Zm-6.3-9.55a6.4,6.4,0,0,0,2.9-5.54,6.12,6.12,0,0,0-2.61-5.42q-2.61-1.79-8.58-1.79h-9.55a.63.63,0,0,0-.71.71V272.9h10.55C285.46,272.9,288.12,272.23,290.06,270.88Z"/><path class="cls-20" d="M304.15,292.59a2.53,2.53,0,0,1-1.29-2.23,2.57,2.57,0,0,1,.64-1.7,2.06,2.06,0,0,1,1.65-.76,2.18,2.18,0,0,1,1.05.23,12.25,12.25,0,0,0,5.45,1.29,6.8,6.8,0,0,0,5.21-1.93q1.81-1.94,1.82-6.68V255.44a2.67,2.67,0,0,1,.79-1.93,2.54,2.54,0,0,1,1.91-.82,2.8,2.8,0,0,1,2.75,2.75v25q0,7-3.08,10.55T312,294.58A15.82,15.82,0,0,1,304.15,292.59Z"/><path class="cls-20" d="M342.41,291.88a18.63,18.63,0,0,1-7.12-7.47,23.82,23.82,0,0,1,0-21.82,18.16,18.16,0,0,1,7.21-7.5,23,23,0,0,1,21.62,0,18.58,18.58,0,0,1,7.12,7.5,23.58,23.58,0,0,1,0,21.74,18.55,18.55,0,0,1-7.24,7.55,21,21,0,0,1-10.75,2.7A21.32,21.32,0,0,1,342.41,291.88Zm18.93-4.51a13.81,13.81,0,0,0,5.24-5.65,17.81,17.81,0,0,0,1.85-8.23,18.15,18.15,0,0,0-1.82-8.21,13.82,13.82,0,0,0-5.33-5.74,15.42,15.42,0,0,0-8-2.05,14.84,14.84,0,0,0-8.09,2.11,13.87,13.87,0,0,0-5.24,5.65,17.85,17.85,0,0,0-1.85,8.24,18.11,18.11,0,0,0,1.82,8.2,13.6,13.6,0,0,0,5.3,5.77,15.56,15.56,0,0,0,8.06,2A14.84,14.84,0,0,0,361.34,287.37Z"/><path class="cls-20" d="M383.46,293.5a2.61,2.61,0,0,1-.8-1.91V255.44a2.68,2.68,0,0,1,.8-1.93,2.52,2.52,0,0,1,1.9-.82,2.8,2.8,0,0,1,2.75,2.75v36.15a2.56,2.56,0,0,1-.82,1.91,2.71,2.71,0,0,1-1.93.79A2.61,2.61,0,0,1,383.46,293.5Z"/><path class="cls-20" d="M400.15,293.5a2.64,2.64,0,0,1-.79-1.91v-35a3.79,3.79,0,0,1,1.15-2.75,3.67,3.67,0,0,1,2.72-1.17H404a4.11,4.11,0,0,1,3.28,1.75l21.63,31.23c.19.24.35.36.46.36s.16-.06.24-.18a.71.71,0,0,0,.12-.41v-30a2.67,2.67,0,0,1,.79-1.93,2.52,2.52,0,0,1,1.9-.82,2.8,2.8,0,0,1,2.75,2.75v35a3.67,3.67,0,0,1-1.17,2.72,3.79,3.79,0,0,1-2.75,1.15h-.7a3.85,3.85,0,0,1-1.79-.44,4,4,0,0,1-1.38-1.15l-21.74-31.4c-.19-.24-.35-.35-.47-.35s-.15.06-.23.17a.73.73,0,0,0-.12.41v30.06a2.56,2.56,0,0,1-.82,1.91,2.72,2.72,0,0,1-1.93.79A2.64,2.64,0,0,1,400.15,293.5Z"/><path class="cls-20" d="M456.7,293.5a2.61,2.61,0,0,1-.79-1.91V258.08H444a2.53,2.53,0,0,1-2.52-2.52,2.53,2.53,0,0,1,.74-1.82A2.35,2.35,0,0,1,444,253h29.18a2.59,2.59,0,0,1,2.58,2.58,2.35,2.35,0,0,1-.76,1.78,2.53,2.53,0,0,1-1.82.74H461.36v33.51a2.6,2.6,0,0,1-.82,1.91,2.75,2.75,0,0,1-1.94.79A2.62,2.62,0,0,1,456.7,293.5Z"/><g class="cls-21"><path class="cls-20" d="M70.53,411a8.51,8.51,0,0,1-3.46-3.45,11.48,11.48,0,0,1,0-10.42,8.58,8.58,0,0,1,3.4-3.41,9.93,9.93,0,0,1,4.94-1.21,12.09,12.09,0,0,1,3.25.41,13.31,13.31,0,0,1,3,1.29,1.07,1.07,0,0,1,.63,1.06,1.11,1.11,0,0,1-1.12,1.07,1,1,0,0,1-.49-.11,12.27,12.27,0,0,0-2.41-1,9.86,9.86,0,0,0-2.6-.31,7.69,7.69,0,0,0-4,.95,6.49,6.49,0,0,0-2.48,2.61,8.31,8.31,0,0,0-.86,3.85,8,8,0,0,0,.85,3.8,6,6,0,0,0,2.51,2.66,7.9,7.9,0,0,0,3.94.95,9.84,9.84,0,0,0,2.6-.32,12.27,12.27,0,0,0,2.41-1,1,1,0,0,1,.49-.11,1.08,1.08,0,0,1,.8.32,1,1,0,0,1,.32.75,1.1,1.1,0,0,1-.63,1.06,12.87,12.87,0,0,1-3,1.29,12.09,12.09,0,0,1-3.25.41A9.91,9.91,0,0,1,70.53,411Z"/><path class="cls-20" d="M87.35,411.53a4.72,4.72,0,0,1-1.7-1.94,6.16,6.16,0,0,1-.6-2.74v-7.76a1.19,1.19,0,0,1,.38-.89,1.26,1.26,0,0,1,.91-.37,1.26,1.26,0,0,1,1.25,1.26v7.49c0,2.21,1,3.31,3,3.31a4.36,4.36,0,0,0,2.37-.66A8.63,8.63,0,0,0,95,407.29v-8.2a1.19,1.19,0,0,1,.38-.89,1.26,1.26,0,0,1,.91-.37,1.26,1.26,0,0,1,1.25,1.26v11.73a1.24,1.24,0,0,1-.37.9,1.15,1.15,0,0,1-.88.38,1.23,1.23,0,0,1-.91-.38,1.25,1.25,0,0,1-.38-.9v-1a8.88,8.88,0,0,1-2.32,1.83,5.85,5.85,0,0,1-2.74.63A4.9,4.9,0,0,1,87.35,411.53Z"/><path class="cls-20" d="M101.37,411a1.07,1.07,0,0,1-.46-.93,1.12,1.12,0,0,1,.31-.78A1,1,0,0,1,102,409a1.15,1.15,0,0,1,.5.11,10.07,10.07,0,0,0,1.8.61,8.16,8.16,0,0,0,1.91.21c2,0,3-.64,3-1.92a1,1,0,0,0-.65-.93,14.74,14.74,0,0,0-2.3-.73,16,16,0,0,1-2.65-.8,4.27,4.27,0,0,1-1.89-1.31A3.32,3.32,0,0,1,101,402a3.91,3.91,0,0,1,1.42-3.14,5.88,5.88,0,0,1,3.94-1.21,10.82,10.82,0,0,1,4,.69,1,1,0,0,1,.6.41,1.06,1.06,0,0,1,.22.65,1.11,1.11,0,0,1-.32.78,1.07,1.07,0,0,1-.8.34l-.35-.05a10.86,10.86,0,0,0-3.12-.49,4.29,4.29,0,0,0-2.27.52,1.54,1.54,0,0,0-.85,1.36,1.26,1.26,0,0,0,.74,1.18,14.65,14.65,0,0,0,2.38.74c1,.25,1.86.52,2.62.79a4.14,4.14,0,0,1,1.81,1.33,3.51,3.51,0,0,1,.68,2.23,3.58,3.58,0,0,1-1.42,2.92,6,6,0,0,1-3.88,1.15A10.47,10.47,0,0,1,101.37,411Z"/><path class="cls-20" d="M122.32,410.05a1,1,0,0,1,.3.71,1.1,1.1,0,0,1-.66,1,5.29,5.29,0,0,1-2.27.49q-4,0-4-3.64v-8.31h-1.37a1.1,1.1,0,1,1,0-2.19h1.37v-1.94a1.26,1.26,0,0,1,.34-1,1.32,1.32,0,0,1,.94-.32,1.22,1.22,0,0,1,.93.34,1.3,1.3,0,0,1,.33.94v1.94h3.06a1.1,1.1,0,0,1,.78,1.86,1,1,0,0,1-.78.33h-3.06v8.09a1.52,1.52,0,0,0,.44,1.29A2.16,2.16,0,0,0,120,410a3.55,3.55,0,0,0,1.09-.17l.08,0a2.31,2.31,0,0,1,.47-.06A1,1,0,0,1,122.32,410.05Z"/><path class="cls-20" d="M127.6,411.34a6.36,6.36,0,0,1-2.46-2.6,8.58,8.58,0,0,1,0-7.57,6.07,6.07,0,0,1,2.47-2.57,7.28,7.28,0,0,1,3.68-.91,7.18,7.18,0,0,1,3.66.91,6.31,6.31,0,0,1,2.49,2.58,8,8,0,0,1,.88,3.79,7.92,7.92,0,0,1-.88,3.77,6.27,6.27,0,0,1-2.5,2.6,7.93,7.93,0,0,1-7.34,0Zm5.85-1.94a4,4,0,0,0,1.69-1.69,5.62,5.62,0,0,0,.63-2.77,5.33,5.33,0,0,0-.65-2.79,4.21,4.21,0,0,0-1.6-1.59,4.63,4.63,0,0,0-2.23-.54,4.94,4.94,0,0,0-2.16.49,4,4,0,0,0-1.7,1.67,5.58,5.58,0,0,0-.63,2.76,5.33,5.33,0,0,0,.66,2.82,4.13,4.13,0,0,0,1.6,1.61,4.63,4.63,0,0,0,2.23.55A4.84,4.84,0,0,0,133.45,409.4Z"/><path class="cls-20" d="M162.2,400.4a6.51,6.51,0,0,1,.51,2.57v7.88a1.16,1.16,0,0,1-.39.88,1.22,1.22,0,0,1-.9.37,1.2,1.2,0,0,1-.89-.37,1.22,1.22,0,0,1-.37-.88v-7.39a4.18,4.18,0,0,0-.64-2.62,2.57,2.57,0,0,0-2.12-.8,3.65,3.65,0,0,0-2.21.67,7.13,7.13,0,0,0-1.7,1.93v8.21a1.19,1.19,0,0,1-.38.88,1.26,1.26,0,0,1-.9.37,1.26,1.26,0,0,1-1.26-1.25v-7.39a4.25,4.25,0,0,0-.64-2.62,2.58,2.58,0,0,0-2.12-.8,3.66,3.66,0,0,0-2.22.67,7.11,7.11,0,0,0-1.69,1.93v8.21a1.16,1.16,0,0,1-.39.88,1.27,1.27,0,0,1-2.16-.88V399.11a1.3,1.3,0,0,1,.37-.9,1.29,1.29,0,0,1,2.18.9v1a6.3,6.3,0,0,1,1.94-1.79,5.19,5.19,0,0,1,2.68-.65,4.37,4.37,0,0,1,2.58.78,4.43,4.43,0,0,1,1.6,2,5.52,5.52,0,0,1,5-2.79,4.18,4.18,0,0,1,2.6.77A4.59,4.59,0,0,1,162.2,400.4Z"/><path class="cls-20" d="M167.86,410.33A7.35,7.35,0,0,1,166,405a9.42,9.42,0,0,1,.71-3.59,6,6,0,0,1,2.24-2.7,6.42,6.42,0,0,1,3.61-1,6.59,6.59,0,0,1,3.53.93,6.37,6.37,0,0,1,2.21,2.5,7.66,7.66,0,0,1,.8,3.49,1.25,1.25,0,0,1-1.29,1.26h-9.24a4.45,4.45,0,0,0,1.46,3,5,5,0,0,0,3.3,1,8.79,8.79,0,0,0,2-.2A7.88,7.88,0,0,0,177,409a1,1,0,0,1,.49-.11,1.13,1.13,0,0,1,.78.32,1,1,0,0,1,.34.78,1.21,1.21,0,0,1-.74,1,8.85,8.85,0,0,1-4.78,1.2A7,7,0,0,1,167.86,410.33Zm8.68-6.89a3.68,3.68,0,0,0-.65-1.84,4,4,0,0,0-1.49-1.31,4.19,4.19,0,0,0-1.85-.44,4.72,4.72,0,0,0-1.83.41,3.56,3.56,0,0,0-1.52,1.38,4.67,4.67,0,0,0-.64,2.15h7.65C176.45,403.79,176.56,403.67,176.54,403.44Z"/><path class="cls-20" d="M182.68,411.73a1.22,1.22,0,0,1-.37-.88V399.11a1.3,1.3,0,0,1,.37-.9,1.21,1.21,0,0,1,.89-.38,1.32,1.32,0,0,1,1.29,1.28v1.1a5.31,5.31,0,0,1,4.26-2.52h.14a1.18,1.18,0,0,1,.87.37,1.25,1.25,0,0,1,.36.89,1.14,1.14,0,0,1-.37.86,1.29,1.29,0,0,1-.92.34h-.13a4.71,4.71,0,0,0-2.37.62,5.5,5.5,0,0,0-1.84,1.76v8.32a1.16,1.16,0,0,1-.39.88,1.22,1.22,0,0,1-.9.37A1.2,1.2,0,0,1,182.68,411.73Z"/><path class="cls-20" d="M192.84,405.08a1.09,1.09,0,0,1-.33-.8,1.14,1.14,0,0,1,.32-.82,1,1,0,0,1,.8-.33h5.17a1.18,1.18,0,0,1,1.15,1.15,1.07,1.07,0,0,1-.33.81,1.13,1.13,0,0,1-.82.31h-5.17A1.1,1.1,0,0,1,192.84,405.08Z"/><path class="cls-20" d="M206.78,411.36a6.62,6.62,0,0,1-2.7-2.57,7.9,7.9,0,0,1,0-7.71,6.79,6.79,0,0,1,2.63-2.5,7.7,7.7,0,0,1,3.68-.89,8,8,0,0,1,2.41.34,10.54,10.54,0,0,1,2.08,1,1.15,1.15,0,0,1,.54,1,1.13,1.13,0,0,1-.33.77,1,1,0,0,1-.73.35,1.35,1.35,0,0,1-.61-.16,9.86,9.86,0,0,0-1.58-.69,5.73,5.73,0,0,0-1.56-.19A5,5,0,0,0,207,401.4a5.38,5.38,0,0,0,0,7.13,5,5,0,0,0,3.65,1.33,5.36,5.36,0,0,0,1.56-.19,10.65,10.65,0,0,0,1.58-.68,1.38,1.38,0,0,1,.61-.17,1,1,0,0,1,.73.36,1.09,1.09,0,0,1,.33.76,1.18,1.18,0,0,1-.54,1,10.48,10.48,0,0,1-2.08,1,7.66,7.66,0,0,1-2.41.34A7.76,7.76,0,0,1,206.78,411.36Z"/><path class="cls-20" d="M219.43,410.33a7.35,7.35,0,0,1-1.87-5.36,9.42,9.42,0,0,1,.71-3.59,6,6,0,0,1,2.24-2.7,6.42,6.42,0,0,1,3.61-1,6.57,6.57,0,0,1,3.53.93,6.37,6.37,0,0,1,2.21,2.5,7.66,7.66,0,0,1,.8,3.49,1.25,1.25,0,0,1-1.29,1.26h-9.24a4.45,4.45,0,0,0,1.46,3,5,5,0,0,0,3.3,1,8.79,8.79,0,0,0,2-.2,7.88,7.88,0,0,0,1.74-.65,1,1,0,0,1,.49-.11,1.13,1.13,0,0,1,.78.32,1,1,0,0,1,.34.78,1.21,1.21,0,0,1-.74,1,8.78,8.78,0,0,1-4.78,1.2A7,7,0,0,1,219.43,410.33Zm8.68-6.89a3.68,3.68,0,0,0-.65-1.84,3.89,3.89,0,0,0-1.49-1.31,4.19,4.19,0,0,0-1.85-.44,4.72,4.72,0,0,0-1.83.41,3.61,3.61,0,0,0-1.52,1.38,4.67,4.67,0,0,0-.64,2.15h7.65C228,403.79,228.13,403.67,228.11,403.44Z"/><path class="cls-20" d="M234.25,411.73a1.22,1.22,0,0,1-.37-.88V399.11a1.3,1.3,0,0,1,.37-.9,1.21,1.21,0,0,1,.89-.38,1.32,1.32,0,0,1,1.29,1.28v1a8.72,8.72,0,0,1,2.32-1.83,5.78,5.78,0,0,1,2.73-.63,5,5,0,0,1,2.66.71,4.69,4.69,0,0,1,1.68,2,6.28,6.28,0,0,1,.59,2.73v7.77a1.16,1.16,0,0,1-.39.88,1.22,1.22,0,0,1-.9.37,1.2,1.2,0,0,1-.89-.37,1.22,1.22,0,0,1-.37-.88v-7.5c0-2.2-1-3.31-3-3.31a4.35,4.35,0,0,0-2.36.66,8.65,8.65,0,0,0-2.09,1.94v8.21a1.16,1.16,0,0,1-.39.88,1.22,1.22,0,0,1-.9.37A1.2,1.2,0,0,1,234.25,411.73Z"/><path class="cls-20" d="M257.67,410.05a1,1,0,0,1,.3.71,1.1,1.1,0,0,1-.65,1,5.33,5.33,0,0,1-2.27.49q-4,0-4-3.64v-8.31h-1.37a1.1,1.1,0,0,1-.81-.29,1.3,1.3,0,0,1,0-1.61,1.1,1.1,0,0,1,.81-.29H251v-1.94a1.26,1.26,0,0,1,.34-1,1.34,1.34,0,0,1,.94-.32,1.22,1.22,0,0,1,.93.34,1.3,1.3,0,0,1,.33.94v1.94h3.06a1.09,1.09,0,0,1,.78,1.86,1,1,0,0,1-.78.33h-3.06v8.09a1.55,1.55,0,0,0,.44,1.29,2.16,2.16,0,0,0,1.31.33,3.55,3.55,0,0,0,1.09-.17l.09,0a2.15,2.15,0,0,1,.46-.06A1,1,0,0,1,257.67,410.05Z"/><path class="cls-20" d="M261,411.73a1.18,1.18,0,0,1-.37-.88V399.11a1.26,1.26,0,0,1,.37-.9,1.21,1.21,0,0,1,.89-.38,1.3,1.3,0,0,1,1.28,1.28v1.1a5.34,5.34,0,0,1,4.27-2.52h.14a1.19,1.19,0,0,1,.87.37,1.25,1.25,0,0,1,.36.89,1.14,1.14,0,0,1-.37.86,1.29,1.29,0,0,1-.92.34h-.13a4.71,4.71,0,0,0-2.37.62,5.62,5.62,0,0,0-1.85,1.76v8.32a1.15,1.15,0,0,1-.38.88,1.22,1.22,0,0,1-.9.37A1.2,1.2,0,0,1,261,411.73Z"/><path class="cls-20" d="M271.33,394.75a1.35,1.35,0,0,1-.42-1v-.11a1.45,1.45,0,0,1,1.42-1.43h.16a1.39,1.39,0,0,1,1,.43,1.36,1.36,0,0,1,.42,1v.11a1.45,1.45,0,0,1-1.42,1.42h-.16A1.33,1.33,0,0,1,271.33,394.75Zm.16,17a1.22,1.22,0,0,1-.37-.88V399.11a1.3,1.3,0,0,1,.37-.9,1.28,1.28,0,0,1,1.81,0,1.25,1.25,0,0,1,.37.91v11.74a1.16,1.16,0,0,1-.39.88,1.27,1.27,0,0,1-1.79,0Z"/><path class="cls-20" d="M280.78,411.36a6.64,6.64,0,0,1-2.71-2.57,8,8,0,0,1,0-7.71,6.75,6.75,0,0,1,2.64-2.5,7.63,7.63,0,0,1,3.67-.89,8,8,0,0,1,2.41.34,10.28,10.28,0,0,1,2.08,1,1.15,1.15,0,0,1,.54,1,1.12,1.12,0,0,1-.32.77,1,1,0,0,1-.74.35,1.35,1.35,0,0,1-.6-.16,10.31,10.31,0,0,0-1.59-.69,5.73,5.73,0,0,0-1.56-.19A5,5,0,0,0,281,401.4a5.38,5.38,0,0,0,0,7.13,5,5,0,0,0,3.65,1.33,5.36,5.36,0,0,0,1.56-.19,11.16,11.16,0,0,0,1.59-.68,1.37,1.37,0,0,1,.6-.17,1,1,0,0,1,.74.36,1.08,1.08,0,0,1,.32.76,1.18,1.18,0,0,1-.54,1,10.22,10.22,0,0,1-2.08,1,8.22,8.22,0,0,1-6-.54Z"/></g></g></svg>