<svg id="圖層_1" data-name="圖層 1" xmlns="http://www.w3.org/2000/svg" xmlns:xlink="http://www.w3.org/1999/xlink" viewBox="0 0 425.2 425.2"><defs><style>.cls-1{fill:url(#未命名漸層_11);}.cls-2{fill:url(#未命名漸層_11-2);}.cls-3{fill:url(#未命名漸層_11-3);}.cls-4{fill:url(#未命名漸層_11-4);}.cls-5{fill:url(#未命名漸層_11-5);}.cls-6{fill:url(#未命名漸層_11-6);}.cls-7{fill:url(#未命名漸層_11-7);}.cls-8{fill:url(#未命名漸層_11-8);}.cls-9{fill:url(#未命名漸層_11-9);}.cls-10{fill:url(#未命名漸層_11-10);}.cls-11{fill:url(#未命名漸層_11-11);}.cls-12{fill:url(#未命名漸層_11-12);}.cls-13{fill:url(#未命名漸層_11-13);}.cls-14{fill:url(#未命名漸層_11-14);}</style><linearGradient id="未命名漸層_11" x1="311.64" y1="76.39" x2="311.64" y2="367.85" gradientUnits="userSpaceOnUse"><stop offset="0" stop-color="#a9dadb"/><stop offset="1" stop-color="#3593c3"/></linearGradient><linearGradient id="未命名漸層_11-2" x1="84.11" y1="76.39" x2="84.11" y2="367.85" xlink:href="#未命名漸層_11"/><linearGradient id="未命名漸層_11-3" x1="84.08" y1="76.39" x2="84.08" y2="367.85" xlink:href="#未命名漸層_11"/><linearGradient id="未命名漸層_11-4" x1="347.54" y1="76.39" x2="347.54" y2="367.85" xlink:href="#未命名漸層_11"/><linearGradient id="未命名漸層_11-5" x1="150.02" y1="76.39" x2="150.02" y2="367.85" xlink:href="#未命名漸層_11"/><linearGradient id="未命名漸層_11-6" x1="149.93" y1="76.39" x2="149.93" y2="367.85" xlink:href="#未命名漸層_11"/><linearGradient id="未命名漸層_11-7" x1="179.9" y1="76.39" x2="179.9" y2="367.85" xlink:href="#未命名漸層_11"/><linearGradient id="未命名漸層_11-8" x1="197.88" y1="76.39" x2="197.88" y2="367.85" xlink:href="#未命名漸層_11"/><linearGradient id="未命名漸層_11-9" x1="281.67" y1="76.39" x2="281.67" y2="367.85" xlink:href="#未命名漸層_11"/><linearGradient id="未命名漸層_11-10" x1="311.64" y1="76.39" x2="311.64" y2="367.85" xlink:href="#未命名漸層_11"/><linearGradient id="未命名漸層_11-11" x1="83.69" y1="76.39" x2="83.69" y2="367.85" xlink:href="#未命名漸層_11"/><linearGradient id="未命名漸層_11-12" x1="347.63" y1="76.39" x2="347.63" y2="367.85" xlink:href="#未命名漸層_11"/><linearGradient id="未命名漸層_11-13" x1="347.56" y1="76.39" x2="347.56" y2="367.85" xlink:href="#未命名漸層_11"/><linearGradient id="未命名漸層_11-14" x1="311.64" y1="76.39" x2="311.64" y2="367.85" xlink:href="#未命名漸層_11"/></defs><path class="cls-1" d="M361.11,336.58c10,12.8,1.9,29.22-13.37,30.23-.5,11.51-5,21.15-14.22,28.31a34.79,34.79,0,0,1-24.85,7.34c-15.93-1.24-32.16-14-33.13-35.61-7.23-.64-13-3.85-16.16-10.66s-2-13.35,2.62-19.24c-8-15.37-4.78-24.07,11.79-30.64-1.9-7.47-3.76-15-5.8-22.54-.26-1-1.42-1.69-2.21-2.48-7.58-7.6-15.11-15.23-22.79-22.72-1.72-1.68-2.1-3.07-.9-5.15,1.13-1.92,1.95-4,2.95-6,1.23-2.46.37-4.07-2-5-3-1.13-6.06-2.15-9.21-3.27,0-14.27,0-28.35.1-42.44a4,4,0,0,1,2.08-2.8,47.87,47.87,0,0,1,6.65-2.4c2.92-.94,3.56-2.68,2.3-5.44s-3.72-6.11-3.27-8.77,3.93-4.56,6.13-6.77c7.39-7.42,14.86-14.77,22.17-22.27,1.66-1.7,3.06-2.15,5.15-.92,1.92,1.13,4,2,6,2.95,2.42,1.19,4.08.44,5-2,1.11-3,2.15-6.06,3.26-9.21,14.28,0,28.36,0,42.45.09a4.07,4.07,0,0,1,2.8,2.08,46.22,46.22,0,0,1,2.41,6.65c.94,2.9,2.68,3.57,5.44,2.31s6.1-3.76,8.76-3.31,4.56,3.93,6.76,6.13c7.33,7.3,14.58,14.7,22,21.91,1.92,1.85,2.51,3.39,1,5.75-1.11,1.78-1.85,3.8-2.79,5.69-1.22,2.43-.46,4.08,2,5,3,1.12,6.07,2.14,9.23,3.25,0,14.4,0,28.61-.07,42.82a3.31,3.31,0,0,1-1.7,2.34,60.78,60.78,0,0,1-7,2.53c-2.9.92-3.66,2.58-2.37,5.39s3.75,6.1,3.31,8.78-3.91,4.57-6.1,6.78c-6.15,6.19-12.36,12.33-18.49,18.54a7.52,7.52,0,0,0-2,3c-1.92,7.08-3.68,14.19-5.61,21.72,6.87,1.64,12.39,5,14.95,11.72S365.59,330.93,361.11,336.58Zm-12.38-175.8a11.57,11.57,0,0,0-2.36.95c-3.84,2.8-7.37,2.22-11.63.29s-7.88-3.63-8.86-8.75c-.18-.93-2.21-2.12-3.42-2.15-7-.21-14,0-20.94-.17-2.69-.08-4.32.66-4.71,3.37-.56,3.92-3.15,5.44-6.56,7.06-5.46,2.6-10.38,3.58-15.27-.89-6.31,6.32-12.33,12.27-18.23,18.35a3,3,0,0,0-.44,2.78c3.21,4.41,2.06,8.39.12,13-1.74,4.17-3.84,6.84-8.23,7.91a4,4,0,0,0-2.33,2.93c-.2,7.6-.19,15.21,0,22.81a3.66,3.66,0,0,0,2,2.79c4.79,1,6.83,4,8.68,8.4s2.86,8.17-.13,12.35a3.26,3.26,0,0,0,.36,3.11c5.88,6.09,11.91,12,17.8,17.91.49-.1.78-.07,1-.2,4.58-3.24,8.94-3.1,14.05-.54,3.65,1.84,6.75,3.33,7.36,7.71.34,2.47,1.86,3,4.22,3,6.86-.15,13.72-.18,20.57,0,2.67.07,4.08-.65,4.81-3.33.52-1.94,1.35-4.76,2.77-5.32,6-2.37,12.1-7.21,18.79-1.4.12.1.46-.07,1-.16,5.64-5.67,11.47-11.47,17.18-17.4.64-.66,1.09-2.45.68-3-3.17-4.42-2.07-8.39-.12-13.06,1.74-4.18,3.87-6.8,8.25-7.88a4,4,0,0,0,2.32-3c.2-7.6.19-15.21,0-22.81,0-1-1.17-2.67-2-2.82-5.24-.95-7.1-4.57-9-9.06-1.78-4.16-2.38-7.58.36-11.29,1.16-1.57.7-2.77-.68-4.12C360.29,172.52,354.63,166.72,348.73,160.78Zm-37.06,169.9c11.72,0,23.44.05,35.17,0,4,0,6.76-2.72,6.67-6.09s-2.75-5.83-6.55-5.83c-23.57-.07-47.14-.11-70.71.1a8,8,0,0,0-5.51,3c-2.84,4,.54,8.75,6.13,8.79C288.47,330.74,300.07,330.68,311.67,330.68Zm-.41,23.95c11.85,0,23.7.05,35.54,0,4,0,6.78-2.69,6.71-6.05s-2.73-5.86-6.51-5.87c-23.57-.06-47.15-.1-70.71.1a8,8,0,0,0-5.53,3c-2.87,4,.49,8.78,6.08,8.82C288.31,354.69,299.79,354.64,311.26,354.63ZM335.41,367H287.76c1.22,14.05,11.69,24,24.46,23.54A23.93,23.93,0,0,0,335.41,367Zm1.47-60.4c1.71-6.84,3.41-13.32,4.88-19.86.26-1.13-.44-2.49-.71-3.74-1.3.86-3.09,1.44-3.81,2.66a26.23,26.23,0,0,0-2.4,6.63c-.51,1.87-1.46,2.5-3.41,2.49q-19.8-.13-39.6,0c-2,0-2.87-.65-3.39-2.51a34.81,34.81,0,0,0-2.68-7.32c-.55-1-2.33-1.33-3.55-2-.29,1.14-1,2.39-.81,3.41,1.55,6.74,3.32,13.43,5,20.2Z"/><path class="cls-2" d="M101.91,192.78h12V145.33h35.79v59.4H18.5V133.3H53.93v59.39H66.08V109.3h35.83Zm-12.09,0V121.37H78.28v71.41Zm-47.91,0V145.33H30.38v47.45Zm95.83,0V157.29H126.17v35.48Z"/><path class="cls-3" d="M84.34,294.76a53.88,53.88,0,1,1-.52,107.76c-29.88,0-53.68-24.23-53.62-54.52C30.26,318.59,54.52,294.73,84.34,294.76Zm-.12,12c-22.82-.12-42,19-42,41.86,0,22.72,18.74,41.67,41.58,42s42-18.72,42.23-41.67S107.15,306.85,84.22,306.73Z"/><path class="cls-4" d="M389.21,114.92H305.86V31.57h83.35Zm-71.43-12.06h59.44V43.43H317.78Z"/><path class="cls-5" d="M78.42,217H89.94v11.83H221.61v11.73H78.42Z"/><path class="cls-6" d="M78.34,265H221.53v11.72H90.18v11.75H78.34Z"/><path class="cls-7" d="M209.83,97a29.93,29.93,0,1,1-30-29.79A29.8,29.8,0,0,1,209.83,97Zm-47.89.07a18,18,0,1,0,17.92-17.88A18.28,18.28,0,0,0,161.94,97.06Z"/><path class="cls-8" d="M185.68,193h35.9v11.64h-47.4V139.28h11.5Z"/><path class="cls-9" d="M281.81,132.86h-11.9V67.47h23.53V79H281.81Z"/><path class="cls-10" d="M263.74,216.72a47.9,47.9,0,1,1,95.79.54c0,26.41-21.58,47.59-48.35,47.53C285,264.74,263.73,243.21,263.74,216.72ZM311.58,181c-19.61,0-36,16.5-35.86,36.07a36.28,36.28,0,0,0,35.79,35.76c19.57.1,36-16.28,36-35.89A36.25,36.25,0,0,0,311.58,181Z"/><path class="cls-11" d="M71.8,374.17,56.23,358.65l8.73-8.1c1.86,2.36,4,5.08,6.51,8.26,6-6.1,11.27-11.38,16.51-16.64s10.35-10.4,15.73-15.79l7.44,8.45Z"/><path class="cls-12" d="M365.35,55.48V67H329.92V55.48Z"/><path class="cls-13" d="M365.21,91.06h-35.3V79.43h35.3Z"/><path class="cls-14" d="M335.58,217a23.94,23.94,0,1,1-23.88-24A23.78,23.78,0,0,1,335.58,217Zm-23.85,11.9A12,12,0,1,0,299.68,217,12.33,12.33,0,0,0,311.73,228.86Z"/></svg>