<svg id="圖層_1" data-name="圖層 1" xmlns="http://www.w3.org/2000/svg" viewBox="0 0 425.2 425.2"><defs><style>.cls-1{fill:#3593c3;}</style></defs><path class="cls-1" d="M394.37,191.93V361.1a15.43,15.43,0,0,0-.69,2.45,46.78,46.78,0,0,1-46.42,41.69q-53.88,0-107.75,0a46.56,46.56,0,0,1-44.89-34.5c-1.35-5.22-1.57-10.73-2.33-16.27h-6l-6.1,13.68c5.48,6.65,7.28,14.58,2.85,23s-11.89,11.19-21.18,11.13c-33.3-.2-66.6-.06-99.89-.1a49.79,49.79,0,0,1-7.8-.68c-23.87-3.81-41.71-23.7-42.67-48.7-.9-23.68,14.35-44.81,36.62-50.94,3-.81,6-1.43,8.5-2,.47-3.55.49-6.84,1.44-9.84s2.83-5.7,4.36-8.64c-5.79-6.93-7.41-14.78-3.15-23.1,4.17-8.15,11.28-11.58,20.35-11.14,1.57.07,3.15,0,5,0v-5.37q0-91.29,0-182.58c0-16.94,9.24-30.41,24.15-35.44,1.85-.62,3.74-1.18,5.61-1.76H255.89c7.82,2,14.93,5.27,20.59,11.32,11,11.74,22.06,23.37,33.08,35.07a35.53,35.53,0,0,1,9.94,25.39c0,16.32,0,32.64,0,49v4.37c9.59,0,18.79-.3,28,.07,19,.75,33.33,9.49,41.69,26.67C391.84,179.42,392.68,185.88,394.37,191.93ZM192.93,342.38v-5.25q0-70.17,0-140.34a54.43,54.43,0,0,1,.54-10.06c4.56-24.1,23.38-39.57,48-39.62q30.69,0,61.38,0h3.95V87.22h-4.61q-18.33,0-36.67,0c-6.86,0-8.6-1.74-8.61-8.65,0-13.35,0-26.69,0-40,0-1.43-.13-2.86-.22-4.51H253c-43.53,0-87.07.15-130.6-.08-15.58-.09-25.56,11.4-25.47,25.46.37,61.12.16,122.25.16,183.37v4.39h4.86c21,0,41.92-.11,62.87,0,14.09.11,23.69,12.8,19.73,26.06-.94,3.12-2.94,5.93-4.47,8.92,7.34,9.86,7.31,17-.18,28.24,7.52,10.62,7.5,18-.09,28.59C182.93,344.7,188.13,341.27,192.93,342.38ZM382.5,276.11c0-26.81-.37-53.63.13-80.44a36.37,36.37,0,0,0-37-37c-34.78.48-69.59.12-104.38.16a40.55,40.55,0,0,0-8.18.58c-17.44,3.66-28.83,17.83-28.84,35.87q0,80.63,0,161.26c0,22,15.32,37.42,37.35,37.47,34.54.06,69.09-.08,103.63,0,23.49.09,37.82-18.42,37.43-37.48C382.09,329.75,382.5,302.93,382.5,276.11ZM83.38,391a40,40,0,0,0,39.88-40.42C123.11,329.06,105,311,83.56,311c-21.91,0-40.19,18.19-40.1,39.92A40.11,40.11,0,0,0,83.38,391Zm38.15-131.69q-21.3,0-42.59,0c-5.94,0-9.52,3.05-9.57,8.07-.06,5.19,3.55,8.41,9.66,8.42q42.23,0,84.45,0c5.87,0,9.52-3.18,9.59-8.14.07-5.19-3.56-8.34-9.69-8.35Q142.46,259.24,121.53,259.26Zm0,28.52c-14.21,0-28.42,0-42.63,0-6.08,0-9.62,3.34-9.58,8.56,0,2.48.85,3.46,3.51,3.48a178.11,178.11,0,0,1,19.75.84c4.37.53,8.56,3.33,12.87,3.41,19.93.38,39.88.22,59.83.11,4.77,0,8-3.93,7.75-8.67s-3.81-7.71-9.62-7.73C149.46,287.75,135.5,287.78,121.54,287.78Zm-3.67,102.35h46a11.56,11.56,0,0,0,1.86-.14c4.78-.76,7.58-4.16,7.26-8.8-.3-4.34-3.54-7.38-8.26-7.41q-16.46-.12-32.92,0a4.4,4.4,0,0,0-3.11,1.31C125.09,379.92,121.63,384.89,117.87,390.13Zm4.56-73.48c2.87,5.08,5.59,10.05,8.51,14.9a3.68,3.68,0,0,0,2.75,1.17c10.48.08,20.95.13,31.42,0,5.63-.08,9.07-4.87,7.71-10.3-.93-3.73-4.17-5.94-9.25-6-13.09-.07-26.18,0-39.27,0A13.94,13.94,0,0,0,122.43,316.65Zm11.66,44.43a10.18,10.18,0,0,0,1.74.28c9.59,0,19.18.1,28.77,0,5.21-.06,8.39-3.21,8.45-7.95.07-4.91-3.16-8.11-8.59-8.19-7.09-.11-14.19,0-21.29,0H134.8C134.55,350.79,134.33,355.83,134.09,361.08ZM299,75,269.49,43.82V75ZM33.6,337.84c-8.83-1-9.2-1.69-10,8.13h8.55C32.67,343.14,33.14,340.5,33.6,337.84Zm.54,28.94c-1.4-9.73-2.41-10.56-10.2-8.35C24.45,366.67,26,367.89,34.14,366.78Zm12.13-51.67-.62-.75L32.08,324.79l.71,1.56c2.19-.54,5.05-.41,6.44-1.77C42,321.85,44,318.31,46.27,315.11Zm-12.55,64,12,8.27.7-1C42.33,384.29,42.22,376.51,33.72,379.13Z"/><path class="cls-1" d="M160.09,156.14a111.43,111.43,0,0,1,10.73,3.63c3.53,1.59,4.38,4.36,2.91,7.32s-3.76,3.63-7.5,1.84a20.94,20.94,0,0,0-14.86-1.75c-3.32.87-5.59,2.8-6.17,6.23-.61,3.59.23,7,3.6,8.73,3.94,2.07,8.16,3.62,12.29,5.34,6.83,2.86,12.54,6.9,14.19,14.66,2.61,12.21-1.11,24.24-15.31,27.57,0,1.22.09,2.56,0,3.89-.28,3.38-2.4,5.47-5.42,5.5s-5.61-2.06-5.43-5.38-1.53-4.05-4.19-5.18A35.71,35.71,0,0,1,134.77,222c-1.32-1.23-1.74-4.47-1.2-6.42,1.08-3.82,5-4.36,7.86-1.16a15.82,15.82,0,0,0,14,5.43c5.4-.48,8.49-2.53,9.67-6.72,1.45-5.12,0-10.35-4-13.11a47,47,0,0,0-7.28-3.7c-2.72-1.23-5.54-2.23-8.25-3.48-8.09-3.71-11.66-10.08-11-18.92.6-7.95,4.71-13.09,12.13-15.88,1-.38,1.66-2,2.13-3.17.34-.87,0-2,.19-3,.62-2.89,2.43-4.75,5.42-4.72s4.82,1.89,5.35,4.8A28,28,0,0,1,160.09,156.14Z"/><path class="cls-1" d="M222.18,138.61H177a17.9,17.9,0,0,1-3.36-.13c-3-.58-5-2.43-5.1-5.56s1.84-5,4.86-5.75A11.23,11.23,0,0,1,176,127q46.35,0,92.71,0c4.44,0,6.88,1.63,7.4,4.76.66,4-2,6.82-6.77,6.85-11.09.07-22.18,0-33.27,0Z"/><path class="cls-1" d="M183.26,110.43H136.53a25.75,25.75,0,0,1-3.73-.12A5.19,5.19,0,0,1,128,105c-.11-3.14,1.66-5.12,4.73-5.78a12.61,12.61,0,0,1,2.61-.07q48.42,0,96.83.05c1.75,0,4.16.31,5.1,1.44a8.27,8.27,0,0,1,1.72,5.94c-.43,2.63-2.79,3.87-5.64,3.86-12.21,0-24.43,0-36.64,0Z"/><path class="cls-1" d="M142.38,138.61c-2.61,0-5.22.07-7.83,0-4-.13-6.51-2.36-6.59-5.66s2.41-5.82,6.32-5.91c5.59-.14,11.19-.15,16.78,0,3.83.1,6.06,2.34,6.13,5.64.07,3.49-2.24,5.76-6.23,5.92C148.1,138.7,145.24,138.61,142.38,138.61Z"/><path class="cls-1" d="M263.52,99.13c2.36,0,4.72-.09,7.07,0a5.46,5.46,0,0,1,5.52,5.73,5.28,5.28,0,0,1-5.36,5.46c-5,.14-9.93.15-14.89,0a5.35,5.35,0,0,1-5.18-5.66,5.6,5.6,0,0,1,5.4-5.52c.25,0,.5,0,.74,0Z"/><path class="cls-1" d="M293.32,171.19q25.46,0,50.9,0c13.77,0,21.6,7.81,21.54,21.58,0,7.22.26,14.51-.63,21.64C364,223.51,356.06,230,346.88,230c-20.21.1-40.42.05-60.63,0-4.2,0-6.93-2.3-7-5.68s2.64-5.75,6.88-5.77c14.09-.08,28.19,0,42.29,0,5.74,0,11.48.08,17.21,0s8.4-2.76,8.46-8.57q.09-9.35,0-18.71c-.07-5.78-2.71-8.38-8.57-8.39q-52.2,0-104.41,0c-5.66,0-8.44,2.88-8.48,8.56q-.06,9.16,0,18.34c0,5.87,2.76,8.66,8.71,8.76,6.24.1,12.48-.06,18.71.1,4.08.1,6.38,2.43,6.27,5.87a5.58,5.58,0,0,1-5.87,5.52c-7.11.11-14.23.24-21.33,0a18.46,18.46,0,0,1-17.72-17.48c-.34-7.22-.27-14.47-.14-21.7.23-11.89,8.16-19.51,20.38-19.57C258.89,171.12,276.11,171.19,293.32,171.19Z"/><path class="cls-1" d="M323.28,335.1c0-9.72,0-19.44,0-29.16,0-9.23,6.08-15.51,15.28-15.8,3.86-.12,7.73-.07,11.59,0,9.87.12,16,6.19,16.18,16.14.13,9.72,0,19.44,0,29.16,0,9.22,0,18.44,0,27.66-.07,11.71-6.64,18.21-18.39,18.16-4.09,0-8.29.2-12.25-.63-7.65-1.6-12.37-7.86-12.42-15.61C323.24,355,323.28,345.06,323.28,335.1Zm31.5.31c0-9.61-.09-19.21,0-28.81.05-3.57-1.39-5-4.9-4.84s-7.23.13-10.85,0c-3-.09-4.46,1.29-4.46,4.19,0,19.46-.06,38.91,0,58.37,0,3.72,1.83,5.31,5.67,5.47,2.74.12,5.49.09,8.24,0,4.74-.1,6.21-1.61,6.22-6.35C354.8,354.11,354.78,344.76,354.78,335.41Z"/><path class="cls-1" d="M315,311.75c0,3.24.07,6.48,0,9.72a11.89,11.89,0,0,1-11.61,11.82q-9.9.25-19.81,0c-6.6-.17-11.48-5.24-11.69-12.17q-.28-9.35,0-18.69c.22-7.2,5.2-12.1,12.41-12.28q9-.22,18,0c7.93.18,12.7,5.13,12.76,13C315,306,315,308.88,315,311.75Zm-31.37,9.74h19.74V302.1H283.62Z"/><path class="cls-1" d="M293.35,381.26c-3,0-6,0-9,0-7.18-.09-12.26-4.85-12.51-12.1q-.32-9.34,0-18.7c.25-7.33,5-12.11,12.34-12.34,6.1-.2,12.22-.18,18.32,0,7.67.21,12.43,5.23,12.47,12.91,0,6,.06,12,0,18-.08,7.15-5.12,12.16-12.27,12.28C299.58,381.3,296.46,381.26,293.35,381.26Zm-9.69-11.45c6.14,0,12.08.05,18-.08a2.56,2.56,0,0,0,1.78-1.77c.14-5.94.09-11.89.09-17.89H283.66Z"/><path class="cls-1" d="M315,261.48c0,3.24.09,6.48,0,9.72-.22,6-4.27,10.94-10.29,11.34a173.82,173.82,0,0,1-22,.12c-6.35-.37-10.56-5.24-10.79-11.76-.22-6.34-.23-12.71,0-19.06.25-7.26,5.31-11.94,12.56-12q9.15-.06,18.32,0c7.13.06,12.12,5.08,12.23,12.27C315,255.25,315,258.36,315,261.48Zm-11.74,9.66V251.47H283.69v19.67Z"/><path class="cls-1" d="M344.81,239.86c3.24,0,6.48-.06,9.72,0,6,.12,11.05,4.15,11.43,10.14a187.7,187.7,0,0,1,0,22.75,10.27,10.27,0,0,1-9.7,9.76,183.71,183.71,0,0,1-23.11,0c-5.79-.4-9.77-5.48-9.85-11.3-.08-6.61-.1-13.21,0-19.82a11.7,11.7,0,0,1,11.4-11.5C338.08,239.78,341.44,239.86,344.81,239.86Zm9.8,11.3c-6.24,0-12.05,0-17.87.07-.71,0-2,1-2,1.48-.14,6.14-.09,12.29-.09,18.43h20Z"/><path class="cls-1" d="M264.16,311.88c0,3.24.08,6.49,0,9.72a11.67,11.67,0,0,1-11.26,11.67c-6.72.22-13.46.2-20.19,0a11.55,11.55,0,0,1-11.33-11.19c-.23-6.72-.22-13.46,0-20.18A11.66,11.66,0,0,1,233,290.19c6.47-.25,13-.24,19.43,0,7.07.26,11.65,5.25,11.77,12.35.05,3.11,0,6.23,0,9.34Zm-31.34,9.61h19.9V302h-19.9Z"/><path class="cls-1" d="M264.16,359.85c0,3.24.08,6.49,0,9.72a11.7,11.7,0,0,1-11.65,11.66q-9.72.18-19.44,0a11.63,11.63,0,0,1-11.72-11.58q-.32-9.7,0-19.44c.19-7.16,4.83-11.84,12-12.09q9.35-.33,18.69,0c7.54.25,12,5.12,12.13,12.76,0,3,0,6,0,9Zm-31.26-9.92v19.89c6,0,11.87.09,17.68-.1a3.18,3.18,0,0,0,2.18-2.2c.19-5.8.1-11.61.1-17.59Z"/><path class="cls-1" d="M242.72,239.85c3.24,0,6.48,0,9.72,0a11.58,11.58,0,0,1,11.7,11.55q.18,9.9,0,19.81c-.1,6.08-4.07,10.94-10.2,11.35a170.39,170.39,0,0,1-22.37,0c-6.1-.4-10.06-5.14-10.24-11.33q-.27-9.9,0-19.8c.21-6.88,5.17-11.51,12-11.6C236.49,239.82,239.6,239.85,242.72,239.85Zm10.06,11.63H232.9v19.58h19.88Z"/><path class="cls-1" d="M98.78,360.27c.09,6.28-2.31,11.08-8,14.08A4.51,4.51,0,0,0,89,376.81c-.89,2.68-2.66,4.26-5.42,4.38s-4.53-1.49-5.74-4a10.56,10.56,0,0,0-2.7-3c-2.1-1.85-4.75-3.28-6.33-5.5-1.86-2.61-1.08-5.58,1.54-7.59s4.75-1.21,7.06.74c1.45,1.22,3.38,2.5,5.13,2.55,1.6,0,4.37-1.31,4.59-2.45A6.26,6.26,0,0,0,85,356.77c-2.35-1.71-5.43-2.39-8.1-3.71-7-3.48-9.81-10.2-7.17-17.49a11.45,11.45,0,0,1,2.94-4.68c2.46-2.13,5.21-3.68,6.13-7.34.31-1.24,3.31-2.75,4.82-2.5,1.87.31,3.5,2.26,5.16,3.6,1.11.89,2,2.07,3.15,2.91,1,.72,2.3,1,3.28,1.73,2.47,1.82,3.6,4.18,2,7.14s-4,3.72-7.26,2.7a29.53,29.53,0,0,0-6.85-1.25c-.84-.05-2.42,1-2.47,1.6a3.75,3.75,0,0,0,1.39,3c2.47,1.4,5.2,2.34,7.78,3.57C96.05,349.05,98.8,353.44,98.78,360.27Z"/></svg>