<svg id="圖層_1" data-name="圖層 1" xmlns="http://www.w3.org/2000/svg" viewBox="0 0 425.2 425.2"><defs><style>.cls-1{fill:#3593c3;}</style></defs><path class="cls-1" d="M309,22.93c.81.28,1.61.61,2.43.84A27.78,27.78,0,0,1,332,50.37c.11,24.48,0,49,0,73.44,0,4.2-2.29,6.88-5.69,6.89s-5.59-2.51-5.6-6.88q-.06-35,0-70.09c0-13.32-6.3-19.62-19.61-19.62H117.74c-1,0-2,.07-3,0-2.72-.2-3.63.94-3.6,3.71.12,14.79.06,29.57,0,44.36,0,15-7.67,22.69-22.68,22.69H40.78c-.08,1.69-.21,3.13-.21,4.57q0,133.26,0,266.54c0,10.52,6.92,17.52,17.5,17.52q122.46,0,244.92,0c10.64,0,17.45-6.74,17.77-17.35.07-2.36,0-4.73.11-7.08a5.57,5.57,0,0,1,11.06-.47c1.9,17-4.61,31.59-22.59,35.65a23.54,23.54,0,0,1-5.18.41q-123.57,0-247.15,0a27.35,27.35,0,0,1-27.66-26.48c-.07-1.61-.08-3.23-.08-4.85q0-130.65-.11-261.32c0-10.52,3.28-18.87,10.82-26.2,16.3-15.85,32.3-32,48.27-48.2,6.13-6.21,12.25-12.24,21-14.68ZM49.07,93a9.9,9.9,0,0,0,1.64.42c13.39,0,26.79.1,40.19,0,6-.06,8.73-3,8.75-9.09,0-12.78,0-25.55,0-38.33a22.2,22.2,0,0,0-.3-2.68l-.9-.5A30.4,30.4,0,0,1,96,46C80.49,61.55,65,77.06,49.07,93Z"/><path class="cls-1" d="M287.41,327.72c0-8,0-15.9,0-23.85,0-2-.2-3.18-2.73-3.82-9.63-2.45-16-10.52-16.64-20.48-.31-4.94-2.5-8.8-7.15-10.36a22.64,22.64,0,0,1-11.17-34,10.43,10.43,0,0,0,0-12.25,22.58,22.58,0,0,1,10.78-33.87c4.94-1.71,7.23-5.62,7.55-10.89a22.13,22.13,0,0,1,27.18-20.3c5.85,1.33,10.25-.05,14.25-4.55,9.47-10.65,24.57-10.51,33.94.2,3.63,4.15,7.7,5.65,13.2,4.47,14.42-3.1,25.91,5,27.82,19.79.77,5.95,3.46,9.57,9,12,12.6,5.48,17.2,20,10.19,31.84-3.06,5.19-3,9.8,0,15a22,22,0,0,1-10.28,31.81c-5.52,2.41-8.31,6-8.9,12-1,10.39-6.92,17-16.93,19.77-2.67.73-2,2.4-2,4,0,15.28,0,30.56,0,45.84,0,7.3-3.54,12.31-10,13.15a15.64,15.64,0,0,1-8.76-1.87c-6.11-3.27-11.93-7.11-17.78-10.85a4,4,0,0,0-5,0c-5.73,3.7-11.62,7.16-17.4,10.78-4.22,2.64-8.56,3.34-13,.8s-6.23-6.43-6.14-11.48C287.51,342.87,287.41,335.29,287.41,327.72ZM395.67,211.28c-.36-6.15-2.82-9.7-7.56-11.61C379,196,374.26,189.2,373.3,179.58c-.82-8.22-6.3-12.33-14.42-10.51-9.53,2.14-17.29-.49-23.7-7.81-5.29-6-12.53-5.95-17.7.05-6.25,7.26-13.94,9.88-23.33,7.79-8.4-1.87-14.23,2.43-14.91,10.93-.74,9.34-5.59,15.67-14,19.43-8,3.57-10.19,10.06-5.81,17.49,4.78,8.11,4.74,16.18-.06,24.29-4.28,7.24-2.08,14,5.61,17.32,8.64,3.71,13.5,10.12,14.27,19.59.66,8.19,6.37,12.67,14.3,10.93,9.81-2.15,17.77.42,24.31,8.07,4.73,5.54,12.16,5.64,16.9.12,6.66-7.77,14.68-10.35,24.64-8.18,7.71,1.69,13.14-2.62,13.89-10.41.91-9.61,5.6-16.43,14.65-20.21,7.55-3.16,9.75-10,5.51-17.06-5-8.37-5-16.59.07-24.93A30.61,30.61,0,0,0,395.67,211.28Zm-95.8,87.4-1.05,1v52.53c1.59-.84,2.77-1.4,3.88-2.08,5.61-3.43,11.22-6.86,16.79-10.35,4.56-2.85,9.07-2.9,13.65-.06q8.7,5.38,17.45,10.69c.89.54,1.86,1,3.08,1.61V298.24c-3.61,2.05-7.24,3-9,5.31a23.19,23.19,0,0,1-36.55,0C306.24,301.22,302.65,300.27,299.87,298.68Z"/><path class="cls-1" d="M273.27,93.14c0-6.23.08-12.18-.1-18.12,0-.75-1.33-1.54-2.16-2.15-.32-.24-1-.05-1.46-.05h-110c-1,0-1.95.11-3.21.18V93.43c3,0,6-.05,9.07,0,4.65.08,7.18,2.18,7.11,5.78s-2.65,5.59-7.3,5.63c-2.73,0-5.47.11-8.2,0-6.61-.32-11.74-4.71-12.19-11.31a147.91,147.91,0,0,1,0-20.84c.54-7.2,5.79-11.18,13.71-11.19q32.61-.06,65.24,0,23.12,0,46.22,0c9.92,0,14.51,4.64,14.55,14.62,0,5.34.09,10.69-.05,16-.19,7.44-5.32,12.67-12.78,12.7-25.84.1-51.69.05-77.54,0-4.29,0-6.73-2.23-6.69-5.8s2.35-5.58,6.86-5.59c24.6,0,49.21,0,73.81,0C269.77,93.41,271.35,93.25,273.27,93.14Z"/><path class="cls-1" d="M148.68,169.65H80.09c-5.8,0-8.77-2-8.81-5.75s2.92-5.79,8.72-5.79q68.58,0,137.17,0c1.6,0,3.59-.24,4.7.58,1.6,1.19,3.57,3.26,3.53,4.91,0,1.85-1.86,4-3.47,5.35-1,.86-3.07.66-4.67.66Q183,169.68,148.68,169.65Z"/><path class="cls-1" d="M148.49,287.5H79.9a16.7,16.7,0,0,1-4.07-.27c-2.83-.72-4.58-2.68-4.49-5.63a5.33,5.33,0,0,1,4.77-5.37,24.11,24.11,0,0,1,4.08-.23H217c6,0,8.66,1.72,8.68,5.7s-2.67,5.81-8.6,5.81Z"/><path class="cls-1" d="M148.52,208.75H80.32c-1.25,0-2.49,0-3.73-.08-3.25-.24-4.91-2.24-5.26-5.27-.33-2.82,2-5.46,5.09-5.88a22.74,22.74,0,0,1,3-.06H217.68a21.15,21.15,0,0,1,3,.07,5.51,5.51,0,0,1,5,5.9c-.23,3.18-2,5-5.19,5.25-1.24.1-2.49.07-3.73.07Z"/><path class="cls-1" d="M148.52,248.08h-69a18.67,18.67,0,0,1-3.35-.07c-3.1-.57-4.94-2.57-4.86-5.66a5.18,5.18,0,0,1,5.06-5.41,40,40,0,0,1,4.1-.09h136a40,40,0,0,1,4.1.09c3.2.35,4.92,2.27,5,5.43s-1.75,5.07-4.82,5.65a18.68,18.68,0,0,1-3.35.06Z"/><path class="cls-1" d="M113.27,333.69h32.37c1.24,0,2.48,0,3.71.11a5.18,5.18,0,0,1,5,5.46c.08,2.89-1.69,4.88-4.55,5.58a14.75,14.75,0,0,1-3.33.14H79.14c-.75,0-1.49,0-2.23,0a5.81,5.81,0,0,1-5.63-5.78,5.56,5.56,0,0,1,5.53-5.4c4.58-.16,9.18-.09,13.76-.09Z"/><path class="cls-1" d="M326.42,275.93a47.19,47.19,0,0,1-47.08-46.75c-.08-25.76,21.44-47.28,47.16-47.14a46.95,46.95,0,0,1-.08,93.89Zm.14-82.37a35.51,35.51,0,0,0-.55,71,35.51,35.51,0,1,0,.55-71Z"/></svg>