<svg id="圖層_1" data-name="圖層 1" xmlns="http://www.w3.org/2000/svg" viewBox="0 0 425.2 425.2"><defs><style>.cls-1{fill:#3593c3;}</style></defs><path class="cls-1" d="M31.33,247.88H76.2v20.27c3.9,0,7.5.17,11.06-.11,1-.08,2-1.35,2.78-2.3,9.55-12.49,21.82-20.3,37.7-21.71,3.68-.33,7.42-.05,10.87-.05.86-8.83,1.74-17.82,2.67-27.46L151.4,219c-.48,8.76-.89,17-1.4,25.25-.15,2.38.71,3.55,2.95,4.74a181.41,181.41,0,0,1,15.8,9.67c1.64,1.1,2.81,1.51,4.71.79,9.27-3.53,18.61-6.9,27.91-10.33,14.43-5.31,28.21,1,33.47,15.34,2.13,5.79,4.17,11.62,6.37,17.78-17.16,7.29-34.19,14.53-52,22.07l31.18,11a34.3,34.3,0,0,1,5.27,1.88c6.29,3.45,11.53,2.15,17.54-1.68,20.41-13,41.26-25.3,61.87-38a9.88,9.88,0,0,0,3.79-4.24q18.93-46-11-85.9c-6.85-9.16-13.18-18.71-19.81-28-.94-1.31-2.29-2.31-3.33-3.55-4.05-4.83-8.14-9.62-12-14.6-1.09-1.42-1.94-2.24-3.86-2.23-20.13.17-40.27.19-60.4.39-1.2,0-3.21.91-3.45,1.78-4.4,15.78-13.27,29-23.28,41.65-6.57,8.27-12.7,16.78-16.48,27.23l-9.93-3.8a93.3,93.3,0,0,1,12-22.34c7.38-10.51,14.76-21,21.76-31.79,2.3-3.53,3.39-7.84,5.32-12.46H170.06V128.75h13.11c-7.22-17-14.2-33.54-21.36-50.43,8.78-.62,16.9-.38,24.06,4.84,1.8,1.31,3.55,2.68,5.34,4a17.46,17.46,0,0,0,21.5,0c1.32-1,2.6-2,3.91-3,10.77-8.07,24-8.11,34.79-.11,1,.75,2,1.43,3.14,2.19C264.93,56.75,284.94,38.77,316.26,36c25.56-2.25,46.1,8.34,61.77,28.71a9.18,9.18,0,0,1-1.13,1.2c-2.37,1.7-4.76,3.37-7.39,5.22-11.91-15.81-27.68-24.38-47.37-24.78A56,56,0,0,0,284,60a58.29,58.29,0,0,0-12.27,75.52c15.32,24.72,46.58,34.63,73,22.94,15-6.65,25.68-17.75,31.47-33.19s4.82-30.47-1.82-45.64L384,75c9.93,22.9,9.08,45-3.76,66.2-8.39,13.88-20.54,23.47-35.89,28.9-15.19,5.37-30.44,5.18-46,.43,12,14.19,21.8,29.3,26,47.61a95.32,95.32,0,0,1-3.19,53.69c1,.27,1.72.51,2.47.67,8.17,1.74,13.65,6.61,15.95,14.58s.5,15.37-5.85,20.74c-14.56,12.31-29.46,24.22-44.49,36.52l-6.68-8.07c.92-.85,1.69-1.66,2.56-2.37q20-16.33,40-32.66c5-4.09,6.12-9.52,2.85-14.15s-8.81-5.51-14.31-2.18Q276.82,307.28,240,329.78a8.35,8.35,0,0,1-8,1q-27.33-9.84-54.84-19.23a8.74,8.74,0,0,0-5.23.16c-3.86,1.26-7.59,2.92-11.67,4.55-1.35-3.26-2.62-6.35-4.06-9.85l71-29.79c-2.38-11.5-5.54-17-13.54-18.32a18.7,18.7,0,0,0-8.83,1c-11.13,3.89-22.16,8-33.15,12.29-2.6,1-4.09.48-6.05-1.38-10.48-9.92-22.58-16.41-37.46-15.33-13.88,1-24,8.56-31.21,20-1.89,3-3.73,4.18-7.17,3.94-4.3-.29-8.64-.07-13.23-.07v80.62a26.15,26.15,0,0,0,3,.19c22.64-.87,45.07,1.45,67.51,4.09,25,2.93,50,5.35,75,8,4.19.44,8.36,1.07,12.55,1.29a7,7,0,0,0,4.36-1.37c11.77-9.45,23.43-19,35.48-28.87l6.8,8.19-20.25,16.61c-6.15,5-12.26,10.15-18.53,15a7.25,7.25,0,0,1-4.68,1.51c-14.19-1.36-28.37-2.9-42.55-4.44-14-1.51-27.89-3.09-41.83-4.58s-28.11-3.42-42.21-4.3c-11.41-.71-22.89-.15-34.85-.15V395.4h-45Zm11.34,10.83V384.63H65.58V258.71ZM180,92.08l-.5.52c4.88,11.47,9.71,23,14.74,34.36.37.85,2.17,1.5,3.31,1.51,15.21.07,30.43,0,45.64,0h12.27c-1-8-2.89-15.46-2.73-22.9.13-5.84-1.63-9.18-6.33-12.07-3.63-2.24-7-4.32-11.48-4.61-6.65-.44-11.16,3.35-16,6.9a27.92,27.92,0,0,1-33.92,0C183.31,94.6,181.64,93.33,180,92.08Z"/><path class="cls-1" d="M265.28,254.56v10.61H254.84v-9.42l-14.49-5.51,6.16-9.46a20.72,20.72,0,0,0,13.85,3.6,11.73,11.73,0,0,0,11.33-11.2c.15-4.59-1.62-7.38-6-9.26-4.71-2-9.52-3.84-14.17-6-7.13-3.31-11.82-8.62-11.38-16.89s4.68-14.47,12.71-17.69a3.79,3.79,0,0,0,1.79-2.69,60.87,60.87,0,0,0,.08-6.94h10.4v8.09l11.62,5.54L270,194.61c-4.12-.58-7.74-1.52-11.33-1.47a7.48,7.48,0,0,0-7.63,8.25c.14,1.91,1.34,4.55,2.87,5.39a144.42,144.42,0,0,0,14.92,6.79c6.91,2.88,11.86,7.43,13.23,15.07a22.48,22.48,0,0,1-13.89,24.83C267.34,253.82,266.46,254.13,265.28,254.56Z"/><path class="cls-1" d="M320,83.14A19.45,19.45,0,0,1,314,98c-7.17,7-18,6.4-24.55-1.24A21.47,21.47,0,0,1,289,69.84c4.67-5.8,11.5-8,18.12-6,7,2.19,12.42,9.28,12.87,16.81C320.06,81.5,320,82.32,320,83.14Zm-24.71.55a12,12,0,0,0,.45,2.72c1.06,3,2.77,5.43,6.34,5.61,3.09.15,5.58-1.89,6.75-5.49a12.28,12.28,0,0,0,.64-3c.3-5-3.13-9.62-7.07-9.7S295.31,77.82,295.31,83.69Z"/><path class="cls-1" d="M322.89,128.81c0-9.71,6.6-18.18,15-19.31,11.62-1.57,22,8.8,20.39,20.88a28.57,28.57,0,0,1-4.14,11.3,15.85,15.85,0,0,1-17.8,6.65,19.12,19.12,0,0,1-13.41-16.71C322.83,130.68,322.89,129.75,322.89,128.81Zm24.69,0c0-.4,0-1.11-.11-1.8-.52-3.64-3.3-6.7-6.32-7-3.26-.32-6,1.85-7.19,5.85a11.38,11.38,0,0,0-.55,3.06c-.13,4.92,3.19,9.29,7,9.37S347.57,134.24,347.58,128.8Z"/><path class="cls-1" d="M302.82,137l28.31-67.46,9.88,4-28.34,67.56C309.37,139.77,306.29,138.48,302.82,137Z"/></svg>