<svg id="圖層_1" data-name="圖層 1" xmlns="http://www.w3.org/2000/svg" viewBox="0 0 425.2 425.2"><defs><style>.cls-1{fill:#3593c3;}</style></defs><path class="cls-1" d="M157,230.7c0-1,0-1.52,0-2-.08-4.24,1.12-9.15-.62-12.53s-6.53-5-9.8-7.58c-10-7.94-16.46-18.18-20.12-30.35a4.93,4.93,0,0,0-2.92-3c-6.86-1.42-11.49-5.27-13.53-11.93s-.13-12.26,4.63-17.08a10.69,10.69,0,0,1,1.6-1.11,68,68,0,0,1-7.57-29c-1.24-33.45,22.24-63.4,56-72,12.09-3.07,24.19-2.39,36.37-1.09,13.75,1.45,27.52,2.76,41.27,4.13,1,.1,2,.23,3,.37,2.67.38,4.75,1.53,5.44,4.35S250.4,57,248,58.66s-5,3.64-7.58,5.54c21.21,24.72,26.08,51.56,11.78,81.4,4.14,4.13,7.1,9,6.17,15.39a17.13,17.13,0,0,1-13.73,14.87,4.54,4.54,0,0,0-2.87,2.52c-4.85,15.56-14.1,27.57-28.21,35.83a4.43,4.43,0,0,0-1.8,3.16c-.21,4.33-.09,8.68-.09,13.15l53.85,6.71c-1-3.75-2.08-7.75-3.11-11.75-1.25-4.87.64-7.74,5.62-8.44,22.93-3.19,44-11.44,63.44-23.8,3.92-2.49,7-2.5,10.92-.06,17.44,10.93,36.15,18.81,56.43,22.74,2.2.42,4.41.76,6.63,1.09,5.36.8,7.42,3.65,5.89,8.89-2.47,8.46-4.89,17-7.92,25.25-11.67,32-29.22,60.19-54.06,83.67-2.72,2.56-5.56,5-8.44,7.39-2.68,2.21-5.46,2.14-8.13-.1-2.19-1.82-4.35-3.68-7-6,.28,6,.51,11.34.79,16.71.39,7.72.79,15.44,1.25,23.15a43,43,0,0,0,.7,5.54c1,5.3-1.53,8.36-7,8.34-7.49,0-15-.31-22.45,0-16.8.64-33.59,1.86-50.4,2.3-29,.75-58.09,1.6-87.13,1.42-21.3-.13-42.58-2-63.88-2.78-16.56-.59-33.13-.72-49.69-.93-5.9-.07-8-2.26-7.62-8.18.86-14.69,1.44-29.39,2.42-44.07,1.24-18.77,3.21-37.44,9.57-55.36,8.89-25,25.82-40.75,52.37-44.88,16-2.49,32.09-4.11,48.13-6.12ZM131.2,245c-7.77,1.2-15.11,2.39-22.46,3.46-23.31,3.37-38.58,16.42-45.62,38.7A155.18,155.18,0,0,0,57,314.38c-1.85,14.82-2.67,29.77-3.8,44.67-.46,6.17-.59,12.37-.88,18.77H87.46c.07-1,.13-1.86.19-2.71q1.81-29.12,3.63-58.23c.25-4,2.54-6.32,6-6.25s6,2.95,5.78,6.87c-.8,13.56-1.7,27.12-2.52,40.68-.42,6.92-.74,13.84-1.14,21.39l75.14,3.07c-7.85-11.05-14.88-21.17-22.16-31.09-2.53-3.44-2.77-6.42-.91-10.29,8.44-17.61,16.66-35.33,24.83-53.08.6-1.31.88-3.65.13-4.57-3.72-4.66-7.84-9-12-13.65-6.57,6.09-12.82,12.17-19.43,17.82a7.82,7.82,0,0,1-6.38,1.39c-1.64-.53-3.38-3.08-3.68-5-.92-5.77-1.16-11.65-1.69-17.48C132.58,259.7,131.92,252.66,131.2,245Zm185,132.83c-1.14-18.22-2.24-36-3.42-53.79a4.85,4.85,0,0,0-1.3-2.54c-17.52-20.15-30.67-42.87-40.31-67.71a6.05,6.05,0,0,0-3.52-3.13,94.45,94.45,0,0,0-12-2.7c-6.46-1-13-1.82-19.71-2.74-1.14,12.83-2.25,25.09-3.28,37.35-.24,2.89-.86,5.55-3.8,6.74s-5.23.05-7.41-2c-5.76-5.49-11.64-10.85-17.6-16.37-3.16,3.65-6,7.29-9.25,10.56-2.34,2.37-2.71,4.27-1.21,7.44,8.18,17.33,15.94,34.85,24.1,52.18,2,4.18,1.54,7.32-1.19,10.93-6.78,8.94-13.24,18.11-19.81,27.2-.61.86-1.11,1.79-2.13,3.47l76.72-3.22c-.49-4.24-.85-7.56-1.25-10.88-2.06-17.05-4.15-34.1-6.17-51.16a6,6,0,0,1,5.07-6.76,5.75,5.75,0,0,1,6.58,5.17c1.32,10.25,2.52,20.51,3.76,30.77s2.49,20.73,3.75,31.22ZM140.56,113.71a18.73,18.73,0,0,0-.53,2.08c-1,8.53-2.5,17-2.92,25.59-.49,10-1.29,20.29.19,30.12,3.89,25.8,31,43.36,56.62,37.59,22.88-5.16,38.56-24.05,38.14-47.48-.28-15.66-2-31.29-3.26-46.93a5.48,5.48,0,0,0-1.8-3.45c-4.91-4-10-7.79-14.94-11.61C188.13,120.13,165.46,123.18,140.56,113.71ZM275.2,227.94c11.38,40,30.71,74.52,61.56,102.15,25.32-19.49,60.48-78.17,61.3-102.24-2.48-.55-5-1.07-7.54-1.66-18-4.2-34.69-11.43-50.66-20.57-1.27-.73-3.53-1.25-4.59-.62A182.21,182.21,0,0,1,275.2,227.94ZM125.84,136c1.21-10.37,2.49-20.74,3.61-31.13.54-5.06,4.26-7.44,9-5.44,1.26.54,2.47,1.19,3.7,1.77,16.08,7.58,32.22,8.41,47.92-.65,5.88-3.4,11.09-8,16.44-12.22,3.76-3,5.93-3.31,9.64-.51,7.15,5.42,14.34,10.78,21.32,16.41a8.45,8.45,0,0,1,2.69,5c.8,5.79,1.12,11.64,1.7,17.46.3,3,.75,5.93,1.18,9.25.64-.63.88-.77,1-1,9.94-22.46,3.36-48.69-15.21-65.29-5-4.44-5.34-6.63,0-12.46-16.74-1.2-33-3.87-49.09-3.18C154.09,55.2,135.22,68.32,124.75,92,118.31,106.61,119.09,121.5,125.84,136Zm58.75,162.33c-7.25,15.47-14.33,30.49-21.26,45.58-.42.92.08,2.65.73,3.61,3.35,4.94,6.89,9.76,10.35,14.62,3.23,4.54,6.45,9.08,9.86,13.89,7.22-10,14.2-19.51,21-29.17.62-.89.48-2.8,0-3.92-6.25-13.94-12.63-27.82-19-41.71C185.85,300.4,185.31,299.61,184.59,298.36ZM168.92,220c-1.36,6.82-.12,12.75,5.58,16.4,6.22,4,13.09,3.75,19.46-.06,6.22-3.72,6.52-9.76,5.6-16.33A62.67,62.67,0,0,1,168.92,220Zm-23.45,51.44,25.08-23.28c-1.84-1.32-3.49-2.62-5.25-3.73-1.3-.82-2.78-2-4.12-2-6,.31-12.06,1-18.19,1.6C143.81,253.13,144.6,261.86,145.47,271.41ZM224.25,244c-6-.58-11.67-1.18-17.34-1.62a4.64,4.64,0,0,0-2.66.93c-2.33,1.59-4.55,3.33-7.11,5.22l24.67,22.94C222.66,261.85,223.43,253.22,224.25,244Zm-29,18.9L183.62,252,173,261.92,184.73,275Zm-71.3-100v-8.72C120.06,157.13,120.08,160,124,162.89Zm120.21.56c3.54-3.67,3.47-5.59,0-8.29Z"/><path class="cls-1" d="M333.21,269.26c8.46-8,17.31-16.4,26.18-24.78a19,19,0,0,1,3.08-2.68,5.79,5.79,0,0,1,8,7.85,15.33,15.33,0,0,1-2.38,2.85Q353.54,267.31,339,282.07c-4.27,4.33-6.8,4.32-11,0-4.43-4.55-8.86-9.1-13.24-13.69-3.29-3.44-3.64-6.95-1.06-9.49s6.11-2,9.48,1.19S330.33,266.64,333.21,269.26Z"/></svg>