<svg id="圖層_1" data-name="圖層 1" xmlns="http://www.w3.org/2000/svg" viewBox="0 0 425.2 425.2"><defs><style>.cls-1{fill:#3593c3;}</style></defs><path class="cls-1" d="M263.27,26.81c9.17,4,10.36,11.83,9.37,20.89,6.05.45,12.15-.87,17,3.62S294,61.81,293.89,68c2.56,0,4.77,0,7,0,8.72,0,14,5.27,14,13.9,0,9.84,0,19.69,0,29.7,5.26.44,10.33.69,15.35,1.3,38.69,4.69,71.85,36.51,78.25,74.9,4.74,28.43-1.86,53.87-20.12,76.17-1.39,1.7-4.06,3.38-6.08,3.32-4.87-.15-6.22-5.41-3.33-9.8,4.72-7.13,9.07-14.51,13.47-21.85a28.87,28.87,0,0,0,1.77-4.76c-10-2.67-19.68-5.27-29.38-7.85-14-3.74-28.12-7.43-42.16-11.23-2.46-.66-4.17-.48-6.17,1.55-16.56,16.79-33.28,33.41-49.94,50.08-.79.79-1.55,1.62-2.47,2.59a81.59,81.59,0,0,0,91.8,10.19c3.94-2.07,6.94-1.45,8.67,1.66,1.83,3.27.64,6.3-3.41,8.44a90.3,90.3,0,0,1-40,10.81c-1.74.05-3.48.14-5.23.24-.22,0-.43.21-1,.51v4.58c0,16.21-.07,32.43.05,48.65a9.31,9.31,0,0,1-3,7.24q-24.6,24.36-49.05,48.86a9.45,9.45,0,0,1-7.26,3q-86.25-.1-172.5-.05c-8.77,0-14.11-5.32-14.28-14.18,0-1.73,0-3.46,0-5.49-6-.89-12.28.81-17.1-4s-3.9-11-4-17.49c-8.82.66-17.25.2-21-9.7V36.54a16.79,16.79,0,0,1,9.73-9.73Zm40.32,269.7a93,93,0,0,1,.12-183.91c0-9.42,0-18.89,0-28.36,0-4.93-.05-5-5.05-5q-106.63,0-213.28,0c-4.93,0-4.94,0-4.94,5V393.75c0,5.18,0,5.19,5.11,5.19H251.75v-4.27c0-11.23-.08-22.46,0-33.68.08-9.12,5.42-14.32,14.53-14.34,11.1,0,22.2,0,33.3,0h4ZM68.83,378.1V373q0-144.69-.08-289.38c0-9.73,6.1-15.75,15.61-15.71,64.5.24,129,.13,193.51.13h4.27c1.16-8.62,1-8.77-6.93-8.77h-140a44.51,44.51,0,0,1-4.48-.14c-3-.3-4.38-2.14-4.61-5-.33-4.17,2.09-6.28,7.25-6.28q61.58,0,123.14,0H261c.09-1.18.2-1.9.2-2.63,0-8.2.53-7.17-6.86-7.17Q149,38,43.63,38c-5.69,0-5.69,0-5.69,5.83q0,152.73,0,305.47c0,8.83-1.72,8.57,8.75,8.3.22,0,.43-.19,1-.48V64.69c0-1.37-.05-2.75,0-4.12.37-6.72,5.36-12.42,12-12.59,13.46-.33,26.94-.18,40.41-.06,3.44,0,5.4,2.59,5.25,6-.17,3.6-2.17,5.29-6.66,5.31-11.23.06-22.46,0-33.69,0-6,0-6,0-6,5.93q0,152.75,0,305.48c0,8.8-2,8.33,8.89,8C68.17,378.65,68.26,378.51,68.83,378.1ZM345.17,128.53c-30.27-12.2-73-3.43-96,31.64-21.65,33-14.44,75.17,7,97.39.89-.84,1.8-1.66,2.67-2.53q25.67-25.65,51.27-51.36a20.19,20.19,0,0,0,4-5.76q15-33,29.72-66C344.28,130.79,344.71,129.65,345.17,128.53Zm-19.89,72.28,36.2,9.55q17.73,4.69,35.48,9.44c7.29-34.91-11.19-71.63-41.26-86.6ZM294.93,358.22c-10.1,0-19.56,0-29,0-2.13,0-2.77,1-2.75,3,.07,6.35,0,12.7,0,19.06v9.18Z"/><path class="cls-1" d="M189.26,289.91c6.94,0,13.4,0,19.86,0,6.7,0,8.42,1.74,8.42,8.41q0,23.74,0,47.51v4.34a32.41,32.41,0,0,1,4.19.33c3,.63,5,2.34,4.94,5.63s-1.77,5.08-4.89,5.6a25.37,25.37,0,0,1-4.09.21H121.55c-1,0-2,0-3-.05-3.86-.36-6.08-2.52-6-5.81s2.39-5.41,6.16-5.69c.86-.06,1.73,0,3.13,0v-4.11q0-17.4,0-34.8c0-5.1,1.86-7,6.94-7,6.83-.05,13.66,0,20.84,0,.09-1.69.21-3,.22-4.33,0-9.36,0-18.71,0-28.07,0-5.6,1.85-7.42,7.42-7.45q12.35-.09,24.69,0c5.58,0,7.27,1.81,7.29,7.48S189.26,283.5,189.26,289.91Zm-27.65-13.73v73.94h16.11V276.18Zm28,25.51v48.45h16.31V301.69Zm-40.11,48.55V316H133.33v34.21Z"/><path class="cls-1" d="M172.3,130.76q-26.53,0-53.08,0c-5.66,0-9-4.58-6.14-8.6,1.14-1.58,3.86-2.65,5.94-2.81,5.21-.4,10.46-.13,15.7-.13q44.85,0,89.72,0a24.24,24.24,0,0,1,4.82.36c2.7.54,3.92,2.47,4,5.11s-.88,4.71-3.5,5.51a15.49,15.49,0,0,1-4.4.55Q198.84,130.79,172.3,130.76Z"/><path class="cls-1" d="M160,171.94c-13.58,0-27.16,0-40.74,0-3.1,0-5.7-.67-6.82-4a5.44,5.44,0,0,1,3.9-7.23,20.07,20.07,0,0,1,4.45-.36q39.24,0,78.48,0a24.24,24.24,0,0,1,4.09.27c3.06.52,4.44,2.53,4.46,5.52a5.22,5.22,0,0,1-4.49,5.57,17,17,0,0,1-3.72.18Z"/><path class="cls-1" d="M154,213.15c-11.58,0-23.17,0-34.75,0-3.1,0-5.69-.7-6.8-4a5.47,5.47,0,0,1,4.3-7.29,19.7,19.7,0,0,1,3.35-.19c22.67,0,45.33-.06,68,.06,2.1,0,4.84.41,6.11,1.75s1.52,4.14,1.14,6.08c-.55,2.79-3.16,3.58-5.86,3.58Z"/></svg>