<svg id="圖層_1" data-name="圖層 1" xmlns="http://www.w3.org/2000/svg" viewBox="0 0 425.2 425.2"><defs><style>.cls-1{fill:#3593c3;}</style></defs><path class="cls-1" d="M346.23,409.51c-6.7-2.37-12.54-5.75-15.94-12.43-3.72-7.29-3.92-29.92-.1-37.17,4.24-8.06,11-12.44,20.05-12.61,12.17-.24,24.37-.42,36.51.27,11,.61,17.9,7.17,20.7,17.75a12,12,0,0,0,.72,1.65v22.39c-1.52,5.35-3.16,10.77-7.89,14.16-3.32,2.38-7.16,4-10.77,6Zm21.68-50.79c-5.72,0-11.45-.07-17.16,0-6.46.11-11.13,4.47-11.39,10.9-.24,5.83-.22,11.69,0,17.53a10.61,10.61,0,0,0,9.61,10.6,60.24,60.24,0,0,0,8.18.35c8.7,0,17.41.08,26.12,0s13.09-4.4,13.16-13.06c0-5,.1-10-.05-14.93-.21-6.81-4.85-11.3-11.68-11.39C379.1,358.66,373.51,358.72,367.91,358.72Z"/><path class="cls-1" d="M144.73,409.51c-4.24-2.8-8.88-5.18-12.62-8.54s-5.23-8.34-5.28-13.51.14-10.45-.1-15.66c-.67-14,10.34-24.33,21.8-24.44,12.05-.12,24.14-.7,36.14.06,13.76.86,21.3,8.91,22.34,22.71a120.63,120.63,0,0,1-.25,18.23c-.8,10.42-6.71,17-16.46,20.32a10,10,0,0,0-1.54.83Zm22.13-50.79c-5.46,0-10.93,0-16.39,0-7.21,0-11.95,4.41-12.3,11.66-.25,5.33-.25,10.69,0,16,.33,6.83,4.43,10.95,11.23,11.62,2,.19,4,.1,6,.1,9.07,0,18.13.09,27.2,0,8.47-.1,12.94-4.61,13-12.86,0-4.85.05-9.69,0-14.54-.08-7.11-4.82-11.89-11.89-12C178,358.67,172.45,358.72,166.86,358.72Z"/><path class="cls-1" d="M245.48,409.51c-2-.89-4.07-1.65-6-2.7-7-3.85-11.35-9.64-11.93-17.71a144.43,144.43,0,0,1-.38-18.6c.84-14.1,9-22.59,23.13-23.21,12.38-.53,24.84-.23,37.24.38,10.51.51,19.42,10.24,19.8,20.77.22,6,.19,11.94.09,17.9-.18,10.73-6,18.6-16.11,22.19a13.33,13.33,0,0,0-1.82,1Zm21.77-50.79c-5.59,0-11.18-.06-16.77,0-6.88.09-11.66,4.87-11.76,11.73-.07,5,0,9.94,0,14.91,0,7.76,4.25,12.51,12,12.68q16.76.36,33.53,0c7.33-.18,11.64-4.8,11.88-12.13.16-5.09.2-10.19,0-15.27-.31-7.44-5-11.86-12.45-11.92C278.18,358.69,272.71,358.72,267.25,358.72Z"/><path class="cls-1" d="M50.7,409.51c-.11-.21-.17-.5-.35-.61-2.56-1.72-3.68-4-2.61-7s3.67-3.74,6.6-3.73c8.83,0,17.66,0,26.49,0a28.91,28.91,0,0,0,5.18-.45,10.57,10.57,0,0,0,8.79-9.77c.28-5.95.3-11.94.11-17.9-.22-6.83-4.91-11.22-11.79-11.26q-16.8-.11-33.58,0c-6.84.05-11.49,4.58-11.68,11.39-.16,5.35-.27,10.71.06,16a23.62,23.62,0,0,0,2.16,7.36c1.57,3.74,1,6.75-2.08,8.38s-6,.79-7.84-2.68c-1.66-3.13-3.41-6.58-3.67-10a118.85,118.85,0,0,1,0-21.59c1.31-12.1,9.76-19.79,22.74-20.35,12.15-.52,24.37-.35,36.52.32,11.5.64,20,9.65,20.7,21.17a170.15,170.15,0,0,1,0,19,22.83,22.83,0,0,1-15.8,20.56c-.92.31-1.8.76-2.69,1.14Z"/><path class="cls-1" d="M122.33,150.48v21.39c0,1.12,0,2.24,0,3.35a5.74,5.74,0,0,1-5.55,5.47,5.28,5.28,0,0,1-5.62-5.26c-.17-10.32-.14-20.64,0-31,0-3.19,2-5,5.17-5.29a44.33,44.33,0,0,1,4.46-.17h90.56V113.27c0-2.74-.07-5.48,0-8.21.16-4.34,2.3-6.78,5.82-6.78s5.78,2.43,5.82,6.77c.1,9.82,0,19.65,0,29.47V139h43.91a34.79,34.79,0,0,1,4.09.21,5.25,5.25,0,0,1,5.06,5.42,5.55,5.55,0,0,1-5.19,5.77,30.72,30.72,0,0,1-3.72.07H122.33Z"/><path class="cls-1" d="M116.76,187.59c6.82,0,13.72-.66,20.44.15,11.37,1.38,19.1,10.5,19.46,21.88.18,5.46.17,10.93.07,16.39-.25,13-8.23,22.48-21.25,23.35a293,293,0,0,1-37.6,0c-12.68-.79-20.26-9.23-21.33-22.52-.48-6,0-12.15.14-18.23.29-10.79,9.56-21.4,23.67-21.47,5.47,0,10.93,0,16.4,0Zm.37,11.25v0c-6,0-11.92-.12-17.88,0-6.58.16-11.14,4.83-11.26,11.38-.1,5.09,0,10.18,0,15.28,0,7.73,4.47,12.36,12.13,12.43q16.58.13,33.15,0c7.26-.07,11.83-4.51,12.11-11.8.2-5.21.22-10.44,0-15.64-.31-7.25-4.92-11.59-12.21-11.7C127.81,198.78,122.47,198.84,117.13,198.84Z"/><path class="cls-1" d="M317.82,187.16h14.53c14.91,0,24.15,8.17,25.35,22.93a105.61,105.61,0,0,1-.23,18.22c-1.08,11.77-8.36,20.07-20,20.84A297.79,297.79,0,0,1,297,249c-11.34-.81-19-10.39-19.39-21.85-.17-5.58-.18-11.18,0-16.76.34-13.47,10-22.94,23.52-23.22C306.64,187.06,312.23,187.16,317.82,187.16ZM317.11,238h16.76c.38,0,.75,0,1.12,0,6.57-.3,11.14-4.87,11.26-11.42.09-5.09.05-10.18,0-15.27,0-7.74-4.48-12.37-12.14-12.43q-16.58-.13-33.15,0c-7.25.06-11.82,4.5-12.11,11.8-.2,5.21-.21,10.44,0,15.64.31,7.24,4.94,11.58,12.22,11.7C306.44,238.09,311.78,238,317.11,238Z"/><path class="cls-1" d="M217.39,27.36c5.47,0,10.93,0,16.4,0,12.91.09,22.8,9.26,23.47,22.08a165.83,165.83,0,0,1,0,18.25c-.72,12.47-9.48,21.22-22.9,21.86a346.84,346.84,0,0,1-36.48-.3C186,88.57,177.58,79.4,177,67.53a166,166,0,0,1,0-18.26c.74-12.67,10.57-21.79,23.26-21.9C206,27.32,211.68,27.36,217.39,27.36ZM217,78.14c5.72,0,11.44.07,17.16,0,6.64-.11,11.3-4.54,11.52-11.16.19-5.6.18-11.2,0-16.79-.18-6.33-3.94-10.9-10.28-11.12q-18.26-.63-36.54,0c-6.32.22-10.06,4.8-10.25,11.14q-.24,8.2,0,16.42c.2,7,4.86,11.44,11.95,11.51C206,78.19,211.48,78.15,217,78.14Z"/><path class="cls-1" d="M122.33,297.6h41.51c7.16,0,8.75,1.59,8.76,8.77q0,12.13,0,24.26a26.58,26.58,0,0,1-.15,3.34c-.4,3.29-2.59,5.35-5.58,5.34a5.57,5.57,0,0,1-5.66-5.7c-.12-6.59,0-13.19-.05-19.78v-4.31H72.23c0,7.09,0,14.14,0,21.19,0,1.59.2,3.61-.65,4.68-1.32,1.65-3.47,3.66-5.24,3.63s-5-2.3-5-3.69c-.42-11.13-.51-22.3-.12-33.44.12-3.51,3.58-4.3,6.83-4.3,12.81,0,25.61,0,38.42,0h4.51v-5.43c0-9.46-.05-18.91,0-28.36,0-4.41,2.15-6.93,5.57-7s5.78,2.64,5.79,7.16C122.35,275,122.33,286.06,122.33,297.6Z"/><path class="cls-1" d="M323.31,297.6h4.38q19,0,38.05,0c5.77,0,7.91,2.09,7.94,7.82.05,8.71,0,17.42,0,26.12,0,.25,0,.5,0,.75-.19,4.52-2.43,7.12-6,7s-5.59-2.64-5.64-7c-.08-6.34,0-12.69,0-19,0-1.21-.11-2.43-.17-3.83H273.07c0,1.15,0,2.33,0,3.5,0,6.72.06,13.43,0,20.15-.05,3.72-2.32,6.13-5.56,6.2s-5.71-2.2-5.76-5.95c-.14-9.83-.16-19.65,0-29.48.07-4.38,2.35-6.25,7.06-6.26,12.81,0,25.62,0,38.43,0h4.7v-4c0-10.2-.05-20.4,0-30.6,0-3.64,2.47-6.16,5.64-6.18s5.32,2.26,5.64,5.78c.1,1.11.08,2.23.08,3.35q0,13.62,0,27.24Z"/><path class="cls-1" d="M311.91,150.48h-22c-2.93,0-5.49-1.26-5.82-4.11-.23-2,.93-4.36,2.13-6.11.63-.92,2.68-1.16,4.09-1.18,8.81-.1,17.62-.14,26.43,0,4.58.08,6.5,2.1,6.55,6.72.1,9.3.08,18.61,0,27.92,0,4.6-2.26,7.11-5.89,7-3.42-.13-5.46-2.68-5.47-7C311.89,166.1,311.91,158.54,311.91,150.48Z"/></svg>