<svg id="圖層_1" data-name="圖層 1" xmlns="http://www.w3.org/2000/svg" viewBox="0 0 119.06 141.73"><defs><style>.cls-1{fill:#5090be;stroke:#5090be;stroke-miterlimit:10;}</style></defs><path class="cls-1" d="M9.92,64h0a6.61,6.61,0,0,1,0-9.33l42-42.06h0L56.58,7.9a6.6,6.6,0,0,1,9.34,0l46.66,46.73a6.61,6.61,0,0,1,0,9.33h0a6.61,6.61,0,0,1-9.35,0L65.93,26.6a6.6,6.6,0,0,0-9.35,0L19.27,64A6.6,6.6,0,0,1,9.92,64Z"/><path class="cls-1" d="M9.92,134.24h0a6.61,6.61,0,0,1,0-9.33l42-42.06h0l4.66-4.67a6.6,6.6,0,0,1,9.34,0l46.66,46.73a6.61,6.61,0,0,1,0,9.33h0a6.61,6.61,0,0,1-9.35,0L65.93,96.88a6.6,6.6,0,0,0-9.35,0L19.27,134.24A6.6,6.6,0,0,1,9.92,134.24Z"/></svg>