<svg id="圖層_1" data-name="圖層 1" xmlns="http://www.w3.org/2000/svg" viewBox="0 0 141.73 141.73"><defs><style>.cls-1{fill:#5090be;stroke:#5090be;stroke-miterlimit:10;}</style></defs><path class="cls-1" d="M63.91,123h0a6.61,6.61,0,0,1-9.33,0L12.52,81h0L7.85,76.31a6.6,6.6,0,0,1,0-9.34L54.57,20.31a6.61,6.61,0,0,1,9.33,0h0a6.6,6.6,0,0,1,0,9.35L26.54,67a6.61,6.61,0,0,0,0,9.35l37.37,37.31A6.61,6.61,0,0,1,63.91,123Z"/><path class="cls-1" d="M134.19,123h0a6.61,6.61,0,0,1-9.33,0L82.8,81h0l-4.66-4.66a6.6,6.6,0,0,1,0-9.34l46.72-46.66a6.61,6.61,0,0,1,9.33,0h0a6.6,6.6,0,0,1,0,9.35L96.82,67a6.61,6.61,0,0,0,0,9.35l37.37,37.31A6.61,6.61,0,0,1,134.19,123Z"/></svg>