<?xml version="1.0" encoding="utf-8"?>
<!-- Generator: Adobe Illustrator 27.0.0, SVG Export Plug-In . SVG Version: 6.00 Build 0)  -->
<svg version="1.1" id="圖層_1" xmlns="http://www.w3.org/2000/svg" xmlns:xlink="http://www.w3.org/1999/xlink" x="0px" y="0px"
	 viewBox="0 0 566.9 566.9" style="enable-background:new 0 0 566.9 566.9;" xml:space="preserve">
<style type="text/css">
	.st0{fill:#339CD1;}
</style>
<path class="st0" d="M79.8,84.6c-26.5,0-48,21.5-48,48c0,15.1,7.1,29.3,19.2,38.4l217.6,163.2c11.4,8.5,27,8.5,38.4,0L524.6,171
	c12.1-9.1,19.2-23.3,19.2-38.4c0-26.5-21.5-48-48-48C495.8,84.6,79.8,84.6,79.8,84.6z M31.8,196.6v208c0,35.3,28.7,64,64,64h384
	c35.3,0,64-28.7,64-64v-208L326.2,359.8c-22.8,17.1-54,17.1-76.8,0L31.8,196.6z"/>
</svg>
