<?xml version="1.0" encoding="utf-8"?>
<!-- Generator: Adobe Illustrator 27.0.0, SVG Export Plug-In . SVG Version: 6.00 Build 0)  -->
<svg version="1.1" id="圖層_1" xmlns="http://www.w3.org/2000/svg" xmlns:xlink="http://www.w3.org/1999/xlink" x="0px" y="0px"
	 viewBox="0 0 566.9 566.9" style="enable-background:new 0 0 566.9 566.9;" xml:space="preserve">
<style type="text/css">
	.st0{fill:#339CD1;}
</style>
<path class="st0" d="M151.1,93.3v96h64v-96h194.7l29.3,29.3v66.7h64v-66.7c0-17-6.7-33.3-18.7-45.3L455.1,48
	c-12-12-28.3-18.7-45.3-18.7H215.1C179.8,29.3,151.1,58,151.1,93.3z M23.1,189.3v320c0,17.7,14.3,32,32,32h32c17.7,0,32-14.3,32-32
	v-320c0-17.7-14.3-32-32-32h-32C37.4,157.3,23.1,171.6,23.1,189.3z M503.1,221.3h-352v288c0,17.7,14.3,32,32,32h320
	c17.7,0,32-14.3,32-32v-256C535.1,235.6,520.8,221.3,503.1,221.3z M279.1,285.3c17.7,0,32,14.3,32,32s-14.3,32-32,32s-32-14.3-32-32
	S261.4,285.3,279.1,285.3z M375.1,317.3c0-17.7,14.3-32,32-32s32,14.3,32,32s-14.3,32-32,32S375.1,334.9,375.1,317.3z M407.1,413.3
	c17.7,0,32,14.3,32,32s-14.3,32-32,32s-32-14.3-32-32S389.4,413.3,407.1,413.3z M247.1,445.3c0-17.7,14.3-32,32-32s32,14.3,32,32
	s-14.3,32-32,32S247.1,462.9,247.1,445.3z"/>
</svg>
