<?xml version="1.0" encoding="utf-8"?>
<!-- Generator: Adobe Illustrator 26.1.0, SVG Export Plug-In . SVG Version: 6.00 Build 0)  -->
<svg version="1.1" id="圖層_1" xmlns="http://www.w3.org/2000/svg" xmlns:xlink="http://www.w3.org/1999/xlink" x="0px" y="0px"
	 viewBox="0 0 566.93 566.93" style="enable-background:new 0 0 566.93 566.93;" xml:space="preserve">
<style type="text/css">
	.st0{fill:#979797;}
	.st1{fill:#FFFFFF;}
	.st2{fill:#087197;}
	.st3{fill:#F39518;}
</style>
<path class="st3" d="M36.93,271.53c0,141.38,114.62,256,256,256s256-114.62,256-256s-114.62-256-256-256S36.93,130.15,36.93,271.53z
	 M317.93,400.53c-9.4,9.4-24.6,9.4-33.9,0s-9.4-24.6,0-33.9l71-71l-182.1-0.1c-13.3,0-24-10.7-24-24s10.7-24,24-24h182.1l-71-71
	c-9.4-9.4-9.4-24.6,0-33.9c9.4-9.3,24.6-9.4,33.9,0l112,111.9c9.4,9.4,9.4,24.6,0,33.9L317.93,400.53z"/>
</svg>
