<svg id="圖層_1" data-name="圖層 1" xmlns="http://www.w3.org/2000/svg" viewBox="0 0 258.26 185.62"><defs><style>.cls-1{fill:#00769f;}</style></defs><path class="cls-1" d="M0,88.31C1.19,88,1.15,86.82,1.61,86a14.94,14.94,0,0,1,13.33-8.17c1.12,0,2.24,0,3.37,0h188c-.38-1.55-1.63-2.23-2.5-3.11q-24.48-24.45-49-48.83c-4.28-4.25-5.71-9.38-4.11-15.07A14.17,14.17,0,0,1,161.83.39c5.72-1.29,10.46.69,14.55,4.77Q203.65,32.36,231,59.49c7.34,7.3,14.69,14.58,22,21.92,7,7,7.05,15.74,0,22.77q-38.4,38.3-76.9,76.49c-6.52,6.47-15.63,6.57-21.67.47s-5.8-15.23.65-21.68q24.07-24.06,48.24-48a41.23,41.23,0,0,1,3.4-2.75l-.47-.91h-3.93c-101.6,0-78.29-.08-179.89.13-9.59,0-17.78-1.07-22.43-10.61Z"/></svg>