<?xml version="1.0" encoding="utf-8"?>
<!-- Generator: Adobe Illustrator 26.1.0, SVG Export Plug-In . SVG Version: 6.00 Build 0)  -->
<svg version="1.1" id="圖層_1" xmlns="http://www.w3.org/2000/svg" xmlns:xlink="http://www.w3.org/1999/xlink" x="0px" y="0px"
	 viewBox="0 0 566.93 566.93" style="enable-background:new 0 0 566.93 566.93;" xml:space="preserve">
<style type="text/css">
	.st0{fill:#979797;}
	.st1{fill:#FFFFFF;}
	.st2{fill:#087197;}
	.st3{fill:#F39518;}
</style>
<path class="st1" d="M454.13,451.07c8.8,0,16-7.2,16-16v-320c0-8.8-7.2-16-16-16h-320c-8.8,0-16,7.2-16,16v320c0,8.8,7.2,16,16,16
	H454.13z M518.13,435.07c0,35.3-28.7,64-64,64h-320c-35.3,0-64-28.7-64-64v-320c0-35.3,28.7-64,64-64h320c35.3,0,64,28.7,64,64
	V435.07z M294.13,371.07c-6.7,0-13-2.8-17.6-7.7l-104-112c-6.5-7-8.2-17.2-4.4-25.9c3.8-8.7,12.5-14.4,22-14.4h208
	c9.5,0,18.2,5.7,22,14.4s2.1,18.9-4.4,25.9l-104,112C307.23,368.27,300.83,371.07,294.13,371.07z"/>
</svg>
