<svg xmlns="http://www.w3.org/2000/svg" viewBox="0 0 425.2 425.2"><defs><style>.cls-1{fill:#339cd1;}</style></defs><g id="圖層_2" data-name="圖層 2"><g id="_0kfCl7.tif" data-name="0kfCl7.tif"><path class="cls-1" d="M51.06,160.81h7q153.38,0,306.73-.13c6,0,7.29,1.76,7.27,7.43-.19,61-.09,122-.13,183,0,24.23-14.4,38.66-38.45,38.66H89.22c-23.76,0-38.14-14.39-38.15-38.23q0-92.05,0-184.1Zm160.17,91.6v.05c3.62,0,7.25.09,10.87,0,8.52-.24,12.21-3.83,12.4-12.28.15-6.87.11-13.74,0-20.61-.12-8.23-4.29-12.81-12.59-13.23-7-.36-14.12-.34-21.16,0-7.42.37-11.89,4.4-12.17,11.12-.34,8.19-.33,16.42,0,24.61.31,6.71,3.93,10,10.58,10.31C203.21,252.57,207.22,252.41,211.23,252.41Zm-91.81.05v0c3.24,0,6.48,0,9.72,0,9.81-.1,13.2-3.22,13.49-12.84q.31-10.27,0-20.58c-.22-7.93-4.39-12.32-12.43-12.72-7-.36-14.11-.36-21.14,0C101.66,206.67,97,211,96.62,218a208.11,208.11,0,0,0,0,23.43c.47,7.56,4.33,10.79,11.89,11C112.18,252.55,115.8,252.46,119.42,252.46Zm183.47,0v0c3.43,0,6.86,0,10.28,0,9.3-.15,12.66-3.37,12.94-12.82q.31-10.28,0-20.58c-.22-7.94-4.37-12.33-12.41-12.74-7-.36-14.11-.35-21.14,0-7.41.35-12.1,4.63-12.46,11.66a205.59,205.59,0,0,0,0,23.42c.47,7.57,4.32,10.8,11.88,11C295.64,252.55,299.27,252.45,302.89,252.45Zm-183,91.9c3.44,0,6.87,0,10.3,0,8.12-.13,11.79-3.13,12.26-11.12a226.44,226.44,0,0,0,0-23.45c-.35-7.39-4.28-11.13-11.69-11.42s-14.88-.27-22.31,0c-7.06.24-11.54,4.37-11.9,11.37a199.23,199.23,0,0,0,0,23.44c.51,7.73,4.65,11.08,12.38,11.21C112.69,344.41,116.31,344.36,119.93,344.35Zm183.1,0c3.62,0,7.25,0,10.87,0,8-.15,11.66-3.24,12.09-11.3a226.45,226.45,0,0,0,0-23.45c-.36-7.1-4.23-10.89-11.28-11.21-7.61-.34-15.26-.31-22.88,0-7,.26-11.39,4.5-11.74,11.55a210.21,210.21,0,0,0,0,22.87c.47,8,4.59,11.48,12.62,11.59C296.17,344.4,299.6,344.36,303,344.35Zm-91.75,0c3.63,0,7.26.06,10.89,0,7.78-.15,12.08-4.18,12.3-12,.21-7.45.19-14.91,0-22.36-.19-6.4-4.24-11.12-10.56-11.49a217.61,217.61,0,0,0-24.63,0c-6.61.36-10.48,4.65-10.7,11.24-.26,7.83-.32,15.69,0,23.51.32,7.36,4.44,11,11.81,11.13C204,344.41,207.65,344.35,211.28,344.34Z"/><path class="cls-1" d="M51.39,137.67c0-13.23-1.2-25.93.28-38.31C54,80,67.89,69.49,89.21,69c8.21-.2,16.44-.24,24.65,0,4.42.15,6-1.17,6-5.81a185,185,0,0,1,1.27-22.82c1.17-9.76,10.51-16.95,21.33-17.14S163,30.62,164.15,40.63A234.22,234.22,0,0,1,165.44,64c.07,3.75,1.37,5,5.06,5q41-.15,82,0c3.72,0,4.94-1.22,5-5,.19-8.18.28-16.43,1.51-24.49,1.8-11.85,11.81-15.81,21.32-16.18,11.37-.44,20.4,7.38,21.56,18.06A145.72,145.72,0,0,1,302.67,62c-.2,5.65,1.9,7.14,7.32,7.07,10.29-.15,20.61.16,30.89.84,19.94,1.32,30.19,17.58,30.94,34.44.42,9.54,0,19.12.15,28.67.06,3.41-1,5.07-4.58,4.66a27.47,27.47,0,0,0-2.87,0H51.39Z"/></g></g></svg>