<svg xmlns="http://www.w3.org/2000/svg" viewBox="0 0 425.2 425.2"><defs><style>.cls-1{fill:#339cd1;}</style></defs><g id="圖層_2" data-name="圖層 2"><g id="_1OrInB.tif" data-name="1OrInB.tif"><path class="cls-1" d="M42,181.49c1.63-70,41.92-124.94,103.92-143.81,52.25-15.89,100.65-6.05,142.46,30,30.91,26.7,47.13,61,49.71,101.76,2.1,33.21-5.86,63.75-24.29,91.42-3.12,4.68-2.35,7.3,1.46,11q41.67,40.76,82.93,81.92c9.17,9.08,11.62,20.6,6.6,30.11-7.55,14.29-25.64,16.26-38.09,3.81-24-24-47.77-48.12-71.63-72.21-3.88-3.92-8-7.64-11.57-11.85s-6.36-4.68-11-1.43A126.84,126.84,0,0,1,229.75,322c-41.29,10.35-80.78,5.42-116.94-17.1-38.91-24.23-62.43-59.38-68.7-105.33C43.13,192.38,42.41,185.18,42,181.49Zm251.39-2C293.75,122,248.62,76.42,190.89,76A102.27,102.27,0,0,0,87.46,178.11c0,57,43.38,103.37,102.66,103.78C247.87,282.28,292.93,236.68,293.37,179.47Z"/></g></g></svg>