<svg id="圖層_1" data-name="圖層 1" xmlns="http://www.w3.org/2000/svg" xmlns:xlink="http://www.w3.org/1999/xlink" viewBox="0 0 425.2 425.2"><defs><style>.cls-1{fill:url(#未命名漸層_11);}.cls-2{fill:url(#未命名漸層_11-2);}.cls-3{fill:url(#未命名漸層_11-3);}.cls-4{fill:url(#未命名漸層_11-4);}.cls-5{fill:url(#未命名漸層_11-5);}</style><linearGradient id="未命名漸層_11" x1="213.93" y1="106.88" x2="213.93" y2="341.55" gradientUnits="userSpaceOnUse"><stop offset="0" stop-color="#a9dadb"/><stop offset="1" stop-color="#3593c3"/></linearGradient><linearGradient id="未命名漸層_11-2" x1="182.77" y1="106.88" x2="182.77" y2="341.55" xlink:href="#未命名漸層_11"/><linearGradient id="未命名漸層_11-3" x1="119.07" y1="106.88" x2="119.07" y2="341.55" xlink:href="#未命名漸層_11"/><linearGradient id="未命名漸層_11-4" x1="120.26" y1="106.88" x2="120.26" y2="341.55" xlink:href="#未命名漸層_11"/><linearGradient id="未命名漸層_11-5" x1="128.37" y1="106.88" x2="128.37" y2="341.55" xlink:href="#未命名漸層_11"/></defs><path class="cls-1" d="M274.4,276.87h55.86v-38L409.15,302l-78.56,62.88V327.05H18.7V277.27H74.37c-.8-1.4-1.21-2.28-1.76-3.06A120.47,120.47,0,0,1,54,234.69a4.94,4.94,0,0,0-4.28-4.14c-5.31-1.19-10.52-2.82-15.83-4-2.17-.48-3-1.23-3-3.55q.17-20.85,0-41.71c0-2.32.78-3.06,3-3.54q8.34-1.85,16.53-4.32a6,6,0,0,0,3.19-3.08c4.39-10.21,8.49-20.54,13-30.71.9-2,1-3.41-.15-5.28-3-4.82-5.84-9.81-8.86-14.66-1.07-1.72-1-2.84.54-4.32q14.85-14.64,29.49-29.5c1.64-1.66,2.82-1.63,4.65-.49,4.84,3,9.7,6,14.73,8.71a6.42,6.42,0,0,0,4.8.06c10.19-4.1,20.25-8.52,30.46-12.56,2-.8,3.22-1.44,3.72-3.72,1.25-5.69,2.76-11.33,4.4-16.91a3.78,3.78,0,0,1,2.73-2.2q21.45-.23,42.89,0a3.8,3.8,0,0,1,2.63,2.33c1.67,5.71,3,11.54,4.66,17.24a5.41,5.41,0,0,0,2.88,2.92c10.22,4.36,20.56,8.43,30.72,12.91,2.21,1,3.65,1,5.61-.2,4.72-3,9.59-5.7,14.34-8.64,1.65-1,2.78-1.23,4.34.35q14.78,15,29.76,29.77c1.57,1.54,1.41,2.69.38,4.34-3,4.86-6,9.72-8.72,14.74a5.85,5.85,0,0,0-.16,4.77,140.76,140.76,0,0,1,12.95,31.17,5,5,0,0,0,2.9,2.86c5.71,1.7,11.54,3,17.24,4.69a4.07,4.07,0,0,1,2.34,3c.16,14,.07,28.07.15,42.1,0,2.06-.6,2.92-2.68,3.39q-8.52,1.95-16.9,4.47a5,5,0,0,0-3,2.77A130,130,0,0,1,274.4,276.87ZM43.57,216c5.84,1.47,11.34,3,16.89,4.22,2.47.56,3.52,1.75,4.06,4.31,5.63,26.81,19.16,48.81,40.7,65.76C126,306.6,149.7,314.43,176,314.46q81.09.09,162.18,0h4.91v24.2L388.92,302l-46.21-36.92v24.33c-1.13.05-1.9.11-2.67.11q-84.59,0-169.19-.06a61.19,61.19,0,0,1-10.46-.95C112.55,280.22,80.64,236.05,88,188.43c7.19-46.4,50.53-78.79,97.5-72.88,40.86,5.14,73.27,38.71,76,79.51,2,29.48-8.36,54.18-30.76,73.63-3.25,2.83-6.82,5.3-10.8,8.36,12,0,23.31-.08,34.59.06a6.46,6.46,0,0,0,5.61-2.63,111.35,111.35,0,0,0,24.13-49.9c.53-2.59,1.63-3.73,4.06-4.29,5.64-1.33,11.25-2.83,16.8-4.25V188.3c-5.9-1.47-11.61-2.73-17.18-4.4a5.62,5.62,0,0,1-3.39-3.37,113,113,0,0,0-17-40.65,4.13,4.13,0,0,1-.08-5.24c3.17-5,6.11-10.18,8.77-14.66l-19.74-19.74c-4.53,2.69-9.5,5.49-14.29,8.58-2.17,1.4-3.71,1.39-5.9-.08a108.18,108.18,0,0,0-40-16.56,4.45,4.45,0,0,1-4-3.9c-1.29-5.66-2.78-11.27-4.22-17H160.62c-1.45,5.83-2.73,11.63-4.43,17.3A5.59,5.59,0,0,1,152.81,92a112.7,112.7,0,0,0-40.63,17A4.12,4.12,0,0,1,107,109c-5-3.16-10.19-6.1-14.76-8.81L72.49,120c2.7,4.53,5.5,9.5,8.57,14.3,1.38,2.15,1.44,3.67,0,5.9a107,107,0,0,0-16.61,40.34c-.43,2.35-1.79,3.14-3.84,3.63-5.65,1.34-11.27,2.78-17,4.22Zm56-14.1c-.18,41,33.5,74.95,74.59,75.15s75-33.53,75.14-74.6-33.52-75-74.6-75.14S99.74,160.82,99.57,201.89Zm18.83,112.4a160.32,160.32,0,0,1-32.09-23.84c-.84-.81-2.62-.9-4-.91-16-.06-31.94,0-47.91,0-1.12,0-2.23.15-3.31.22v24.56Z"/><path class="cls-2" d="M209.92,228.71l-8.81,9.09c-5.59-5.6-11.13-11.05-16.53-16.63a3.94,3.94,0,0,0-4.69-1.16,18.45,18.45,0,0,1-22.74-10.6c-3.77-9-.36-18.8,8.46-23.59a4.32,4.32,0,0,0,2.64-4.49c-.09-12.33,0-24.66,0-37V140h12.45v4.12c0,12.46,0,24.92,0,37.38a4,4,0,0,0,2.43,4.21c8.4,4.5,12,13.06,9.19,22-.66,2.13-.15,3.27,1.27,4.66C199.07,217.79,204.52,223.32,209.92,228.71ZM174.6,208.36a6.2,6.2,0,1,0-6.36-6.12A6.55,6.55,0,0,0,174.6,208.36Z"/><path class="cls-3" d="M126.4,216.36l-12,3.49-2.62-13.63,12.72-1Z"/><path class="cls-4" d="M128,183.45c-1.06,3.83-2,7.17-3,10.83l-12.45-2,3.64-13.52Z"/><path class="cls-5" d="M137.19,235.56,127.84,244c-2.77-3.8-5.39-7.37-8.28-11.34l11-6.2Z"/></svg>