<svg id="圖層_1" data-name="圖層 1" xmlns="http://www.w3.org/2000/svg" xmlns:xlink="http://www.w3.org/1999/xlink" viewBox="0 0 425.2 425.2"><defs><style>.cls-1{fill:url(#未命名漸層_11);}.cls-2{fill:url(#未命名漸層_11-2);}.cls-3{fill:url(#未命名漸層_11-3);}.cls-4{fill:url(#未命名漸層_11-4);}</style><linearGradient id="未命名漸層_11" x1="297.78" y1="106.88" x2="297.78" y2="341.55" gradientUnits="userSpaceOnUse"><stop offset="0" stop-color="#a9dadb"/><stop offset="1" stop-color="#3593c3"/></linearGradient><linearGradient id="未命名漸層_11-2" x1="132.53" y1="106.88" x2="132.53" y2="341.55" xlink:href="#未命名漸層_11"/><linearGradient id="未命名漸層_11-3" x1="296.23" y1="106.88" x2="296.23" y2="341.55" xlink:href="#未命名漸層_11"/><linearGradient id="未命名漸層_11-4" x1="115.61" y1="106.88" x2="115.61" y2="341.55" xlink:href="#未命名漸層_11"/></defs><path class="cls-1" d="M255.9,242h90c0-4.86.05-9.52,0-14.17-.07-4.2,1.78-6.94,6-7.16s6.47,2.61,6.58,6.66c.18,6.89.25,13.8,0,20.69-.19,5.19-2.78,7.07-9,7.08q-45.68,0-91.34,0c-2.69,0-5.4.15-8.07-.05-4.53-.33-7.09-2.72-7.1-7.45V237L206.9,273.62,243,309.25c0-2.85,0-6.29,0-9.74,0-4.74,2.47-7.1,7-7.46,1.5-.12,3-.05,4.54-.05h137.6c.1-2,.24-3.65.24-5.28q0-49.22,0-98.42c0-11.4-5.95-17.48-17.38-17.49q-74.18-.08-148.36,0c-11.64,0-17.58,6.08-17.7,17.81-.06,6.06,0,12.12,0,18.17,0,4.3-1.69,7.27-6.26,7.58-3.74.26-6.19-2.78-6.23-7.49-.05-7.24-.09-14.47,0-21.71.28-14.53,12.21-26.74,26.73-26.78q77.46-.19,154.93,0a27.28,27.28,0,0,1,27,27.16c.3,37.18.14,74.36.09,111.54,0,5.64-2.46,7.6-8.82,7.61H255.9c0,6.33,0,12.47,0,18.6,0,3.68-.24,7.18-4.16,8.94-4.2,1.88-6.59-1.09-9.07-3.57q-24.28-24.26-48.52-48.55c-5.31-5.33-5.35-7.83-.15-13q24.42-24.48,48.88-48.91c2.39-2.38,4.71-5,8.69-3.41s4.34,5.11,4.32,8.78C255.88,229.56,255.9,235.58,255.9,242Z"/><path class="cls-2" d="M171.39,319.75c0-6.81-.37-13.21.18-19.53.23-2.6,1.92-6.29,3.93-7.15s6,.45,7.82,2.2c17.09,16.68,33.92,33.63,50.76,50.55,4.07,4.09,4.07,7.07-.08,11.24-16.85,16.93-33.69,33.87-50.76,50.57a9.85,9.85,0,0,1-7.46,2.41c-3.54-.6-4.47-4-4.42-7.53.1-6.5,0-13,0-20h-6c-35.49,0-71-.47-106.45.21-17.61.33-31.27-12.83-31-31.31.5-35.31.14-70.64.15-106,0-19.71,11.63-31.33,31.35-31.34q54.24,0,108.47,0c1.68,0,3.84-.43,4.91.43,2,1.62,4.88,4.21,4.66,6.07-.28,2.26-3.17,4.45-5.34,6.13-1,.74-2.93.19-4.44.19h-109C47,226.94,41,232.83,41,244.48c0,35.15.39,70.31-.2,105.46-.25,14.7,8,20.38,20.56,20.23,37.16-.43,74.33-.15,111.5-.15,10.31,0,11.41,1.13,11.41,11.66v5.49l36.09-36.05L184.26,315.4c0,2.72,0,5.76,0,8.8-.09,6.27-2.33,8.67-8.43,8.68q-43.12.06-86.27,0c-6.11,0-8.25-2.1-8.3-8.11q-.12-15.39,0-30.78c0-5.23,2.31-8.13,6.17-8.17s6.22,2.87,6.26,8.06c0,8.53,0,17.06,0,25.86Z"/><path class="cls-3" d="M296,21.11c34.49,0,62.72,28.12,62.61,62.48-.11,34.19-28.15,62.3-62.28,62.44-34.34.13-62.44-28-62.42-62.61A62.29,62.29,0,0,1,296,21.11ZM246.5,83.69a49.61,49.61,0,0,0,50.33,49.48c26.9-.15,49.19-22.78,49.1-49.83a49.72,49.72,0,0,0-99.43.35Z"/><path class="cls-4" d="M115.29,77.22c34.41-.14,62.74,28,62.7,62.38a62.42,62.42,0,0,1-62.25,62.23c-34.29.1-62.4-27.45-62.51-61.28C53.11,105.28,80.48,77.36,115.29,77.22ZM65.91,139.84c.21,27.53,22.77,49.89,49.89,49.47a50,50,0,0,0,49.46-50c-.1-27.14-22.92-49.72-50-49.51A49.8,49.8,0,0,0,65.91,139.84Z"/></svg>