<svg id="圖層_1" data-name="圖層 1" xmlns="http://www.w3.org/2000/svg" xmlns:xlink="http://www.w3.org/1999/xlink" viewBox="0 0 425.2 425.2"><defs><style>.cls-1{fill:url(#未命名漸層_11);}</style><linearGradient id="未命名漸層_11" x1="214.38" y1="45.89" x2="214.38" y2="376.28" gradientUnits="userSpaceOnUse"><stop offset="0" stop-color="#a9dadb"/><stop offset="1" stop-color="#3593c3"/></linearGradient></defs><path class="cls-1" d="M22.76,341.86V327.64a18,18,0,0,0,.7-2.11c4.2-23.14,17.62-38.43,39.54-46.48,1.47-.54,3-1,4.7-1.51-20.42-16.15-29.56-36.63-23.47-61.83,6.29-26,24.27-40.2,50.58-44.86v-4c0-15.59-.1-31.19.09-46.78,0-3.27-.86-4.77-4-5.83q-26.17-8.77-52.18-18a16.94,16.94,0,0,1-7.09-4.5c-5.44-6.43-2.41-15.64,6-18.57q39.8-13.9,79.65-27.64c4.46-1.55,8.89-3.2,13.43-4.5,3.19-.92,5.62.41,6.83,3.59,1.07,2.8-.21,5.51-3.29,7a30.12,30.12,0,0,1-3.12,1.22Q88.42,67.49,45.77,82.2c-1.7.59-3.36,1.29-6.08,2.35l54.8,19c.33-1.75.55-3,.8-4.17,1.26-6,5-10.14,10.89-11,20.21-2.84,40.44-5.76,60.76-7.53a401.22,401.22,0,0,1,72.12-.14c21.43,2,42.78,4.83,64.13,7.54,6.47.83,10.77,5.92,11.57,12.45.1.81.31,1.6.55,2.85l54.74-19c-1.79-.78-2.64-1.23-3.54-1.54q-77-26.67-154-53.35a22.73,22.73,0,0,0-15.68.2c-12.17,4.34-24.43,8.45-36.64,12.71-2.58.9-5.16,1.06-6.79-1.22-1-1.42-1.81-4-1.21-5.35a8.74,8.74,0,0,1,4.69-4.16c12-4.38,24.2-8.38,36.25-12.71a33.81,33.81,0,0,1,23.36-.08Q293.08,45.7,369.73,72.16c9.14,3.16,11.14,6,11.14,15.61,0,11.22,0,22.45,0,33.68,0,2,.46,3,2.46,3.88,14,6,18.65,21.23,10.63,34.18a5.48,5.48,0,0,0-.4,4.27c3.59,9.28,7.49,18.44,11.12,27.71,4.52,11.55-2.78,22.3-15.22,22.44-8.23.09-16.46-.1-24.69.06-5.85.11-11.51-.11-16-4.8-4.65,12.29-4.55,29.69.31,41.05a5.34,5.34,0,0,0,3.54,2.41c6.56,1.28,11.38,4.88,13.42,11.1,1.23,3.72.94,7.93,1.37,12.24l2.26.1c9.54.46,16.95,7.52,17.51,16.67.56,8.92-5.91,16.62-15.19,18.47a4.94,4.94,0,0,0-3,2.88,61.47,61.47,0,0,0,.12,40.67,5.62,5.62,0,0,0,3.4,3.07c9.67,2.55,15.78,10.42,14.66,19.26-1.21,9.5-8.54,15.64-18.71,15.64q-143.88,0-287.78,0a58,58,0,0,1-54.82-39.43C24.57,349.57,23.77,345.68,22.76,341.86Zm235.15-30.65H83.67c-1,0-2,0-3,0-12.64.64-22.55,10.35-22.79,22.31-.27,13.69,9.78,24.07,23.5,24.08q108.92,0,217.83,0a29.62,29.62,0,0,1,4.11.09c3,.46,5.42,3.2,5.05,6-.4,3-2.1,5-5.36,5.24-1.24.08-2.49.07-3.74.07H84.08c-2,0-4-.07-6-.19-20.2-1.23-35.38-21.46-30.95-41.25C50.88,310.85,64.49,300,81.88,300q142,0,284.07,0a35.17,35.17,0,0,0,4.11-.06,6.18,6.18,0,0,0,5.65-6.34c-.08-3.17-2.23-5.46-5.66-5.85a43.69,43.69,0,0,0-4.86-.14H85.62c-3,0-6,.11-9,.29-24.3,1.49-44.59,25.05-42.58,49.4,2.11,25.68,22.25,44.27,48.08,44.27q142.41,0,284.82,0a15.85,15.85,0,0,0,4.08-.32,5.74,5.74,0,0,0,4.59-6.38,5.54,5.54,0,0,0-5.12-5.52,30.3,30.3,0,0,0-4.47-.25c-12.23,0-24.46,0-36.68-.06-3.75,0-6.19-2.44-6.17-5.62s2.56-5.54,6.2-5.71c2-.09,4,0,6,0h22.41a79,79,0,0,1-.13-46.24H303.82v4.23c0,8.61.09,17.22,0,25.83-.09,5.81-3.55,8.1-8.9,6.1-3.72-1.4-7.36-3.08-11.15-4.24a10,10,0,0,0-5.6,0c-4.15,1.28-8.16,3-12.22,4.59-2.69,1.05-5.1.48-6.58-1.85a10.44,10.44,0,0,1-1.36-5.26C257.84,331.08,257.91,321.37,257.91,311.21Zm91.31-128.88h-4q-121.63,0-243.27,0a62.47,62.47,0,0,0-10,.81C67.39,187.25,49.68,213,54.6,237.29c4.79,23.66,23.27,38.78,47.5,38.78q122.57,0,245.14,0c.87,0,1.75,0,2.62,0,3.71-.23,6.11-2.71,6-6.21s-2.38-5.69-5.93-5.92c-1.25-.08-2.5,0-3.75,0H176.31a18.8,18.8,0,0,1-4.45-.33,5.27,5.27,0,0,1-4.29-5.43,5.21,5.21,0,0,1,4.63-5.49,28.82,28.82,0,0,1,4.83-.29H337.51a79.36,79.36,0,0,1-.11-46H167.13v4.2c0,8.49.06,17,0,25.45-.05,5.47-4,8.58-8.59,6.06-9.76-5.34-19-5.4-28.72,0-4.54,2.51-8.39-.39-8.48-5.7-.15-8.61,0-17.22,0-25.83v-4.28c-7.71,0-14.94-.28-22.13.06-14.76.72-24.83,15.45-20.49,29.61C81.76,246,90.2,252.22,101.44,252.3c14.72.1,29.45,0,44.17,0,4.48,0,7.26,2.48,7.12,5.94s-2.87,5.57-7.11,5.58c-15,0-29.95.22-44.91,0a34.6,34.6,0,0,1-33-44.53c4.47-15.18,18-24.77,35.18-24.77q118.27,0,236.54,0a16.36,16.36,0,0,0,3.36-.06,3.45,3.45,0,0,0,2.27-1.35C346.51,189.71,347.75,186.22,349.22,182.33Zm-242.78-42H239.07a44.8,44.8,0,0,1,4.49.14,5.12,5.12,0,0,1,4.89,5.22c.17,3.1-1.63,5.18-4.69,5.86a17.79,17.79,0,0,1-3.73.11H106.64v18.94H303.25V151.68c-11.21,0-22.17,0-33.13,0-4.17,0-6.89-2.38-6.81-5.79s2.56-5.47,6.67-5.51c8.36-.07,16.72,0,25.08,0h8.44c0-12.91.09-25.36-.16-37.81,0-1.12-2.17-2.93-3.56-3.19a455,455,0,0,0-78-8.11c-19.56-.26-39.18.11-58.68,1.5-18,1.29-35.82,4.27-53.7,6.69a4.34,4.34,0,0,0-2.87,3C106.37,114.9,106.44,127.36,106.44,140.34ZM369.25,97.28a5.46,5.46,0,0,0-1.26.1c-16.9,5.85-33.78,11.78-50.74,17.51-2.5.85-2.39,2.38-2.39,4.29q0,23,0,46v5.46c1.72.08,3.05.19,4.39.19,10.22,0,20.45.08,30.68-.07,1.59,0,4.24-.68,4.57-1.66,1.07-3.24,4.56-6,1.71-10.24a21.77,21.77,0,0,1,1.82-27c3-3.28,7.12-5.52,11.21-8.59Zm14,71.6H367.13c-3.54,8.72-7.46,18.08-11.11,27.54a4.35,4.35,0,0,0,4,6.16q15.12.24,30.24,0a4.33,4.33,0,0,0,4.11-6C390.69,187.11,386.82,177.73,383.25,168.88ZM269.62,335c7.75-5.82,15-5.05,22.49-.42V311.46H269.62ZM132.94,229.15c7.54-5.3,14.94-4.84,22.41-.26V206.27H132.94ZM375,157.87a11.34,11.34,0,0,0,11.5-11.27,11.48,11.48,0,0,0-11-11.42,11.35,11.35,0,0,0-.5,22.69Z"/></svg>