<svg id="圖層_1" data-name="圖層 1" xmlns="http://www.w3.org/2000/svg" xmlns:xlink="http://www.w3.org/1999/xlink" viewBox="0 0 425.2 425.2"><defs><style>.cls-1{fill:url(#未命名漸層_11);}.cls-2{fill:url(#未命名漸層_11-2);}.cls-3{fill:url(#未命名漸層_11-3);}.cls-4{fill:url(#未命名漸層_11-4);}.cls-5{fill:url(#未命名漸層_11-5);}.cls-6{fill:url(#未命名漸層_11-6);}.cls-7{fill:url(#未命名漸層_11-7);}.cls-8{fill:url(#未命名漸層_11-8);}</style><linearGradient id="未命名漸層_11" x1="326.45" y1="45.89" x2="326.45" y2="376.28" gradientUnits="userSpaceOnUse"><stop offset="0" stop-color="#a9dadb"/><stop offset="1" stop-color="#3593c3"/></linearGradient><linearGradient id="未命名漸層_11-2" x1="125.53" y1="45.89" x2="125.53" y2="376.28" xlink:href="#未命名漸層_11"/><linearGradient id="未命名漸層_11-3" x1="125.54" y1="45.89" x2="125.54" y2="376.28" xlink:href="#未命名漸層_11"/><linearGradient id="未命名漸層_11-4" x1="122.51" y1="45.89" x2="122.51" y2="376.28" xlink:href="#未命名漸層_11"/><linearGradient id="未命名漸層_11-5" x1="267.17" y1="45.89" x2="267.17" y2="376.28" xlink:href="#未命名漸層_11"/><linearGradient id="未命名漸層_11-6" x1="229.96" y1="45.89" x2="229.96" y2="376.28" xlink:href="#未命名漸層_11"/><linearGradient id="未命名漸層_11-7" x1="125.54" y1="45.89" x2="125.54" y2="376.28" xlink:href="#未命名漸層_11"/><linearGradient id="未命名漸層_11-8" x1="80.74" y1="45.89" x2="80.74" y2="376.28" xlink:href="#未命名漸層_11"/></defs><path class="cls-1" d="M352.07,114.45c-1.14-.47-2.61-.52-3.46-1.81,2.15-2.09,4.62-3.66,6-6.22,3.05-2.7,3.62-6.93,5.88-10,8.45-11.38,9.4-23.79,5.68-36.86-6.93-24.35-37.92-36.54-59.62-23.6-20.72,9.75-28.32,37.89-16,58.32,4,6.62,7.22,13.71,13.94,18.47L295.39,117c-13.25,6.55-23.43,16.22-30,29.53-5.83,10-8.13,20.94-8.07,32.39,0,3.44,2.47,5.07,5.73,5.08,12.78,0,25.57-.08,38.36-.14h47.9c13.07.06,26.14.14,39.2.16,5.57,0,7.24-1.81,7.15-7.5C395.16,149.84,377.6,124.83,352.07,114.45ZM295.63,67.81c-.49-.92,0-2.48.43-3.84a34.35,34.35,0,0,1,17.58-20.31c7.46-2.58,15-3.47,22.63-.85,8,2.73,14.22,7.49,17.71,15.4l-.25.27c-7.12-6.54-15.16-11-25.09-11.59-6.13-.34-7,.13-9.6,5.82-1,2.24-2.46,4.29-3.71,6.42-4.43,4.57-9.54,8-15.95,9C298.14,68.29,296.34,69.16,295.63,67.81Zm4.66,13.72c.11-2.25,1-3.12,3.2-3.65,8.35-2,15.39-6.22,20.44-13.38.89-1.18,2.11-2.23,2.6-3.55,1.29-3.52,3.52-3.67,6.71-2.78a26,26,0,0,1,14.62,40.21c-.43.61-.83,1.24-1.24,1.86-11.67,12.47-27.61,11.07-37,3.11C302.92,97.65,299.87,90.34,300.29,81.53Zm80,92-37.74.16H294.63c-7.79-.05-15.58-.22-23.37-.09-2.75,0-3.3-.82-2.95-3.4.76-5.56,2.63-10.77,4.5-16,6.18-13,15.92-22.38,28.66-28.82,34.49-16.42,76.58,5.52,82.85,43.19C385.15,173.57,385.15,173.56,380.26,173.57Z"/><path class="cls-2" d="M142.36,228.87c2.17,2.71,5.2,3.06,7.53,1a5,5,0,0,0,.78-7.33c-6.92-9.12-13.89-18.21-21-27.18-2.43-3.06-5.86-3.06-8.28,0-6.7,8.6-13.75,16.94-19.86,26-2.63,2.28-3.28,5-1.06,7.74,2.06,2.49,4.73,2.91,7.35.47,4.22-4.73,7.28-10.43,12.49-15.65,0,13.37,0,25.67,0,38,0,4.31,2,6.76,5.25,6.73s5.19-2.45,5.19-6.8c0-11.33,0-22.66,0-34,0-1-.35-2.15.5-3.31C135.05,219.46,138.62,224.23,142.36,228.87Z"/><path class="cls-3" d="M187.06,315.43a63.93,63.93,0,0,0-55.55-44.35c-20.06-1.68-37.31,4.4-51.6,18.68A54.74,54.74,0,0,0,66.08,310c-11.69,24-4.5,55.63,16.94,74.45,19,16.63,48,20.93,68.77,10.18a53.87,53.87,0,0,0,20.36-14.34c.54-.5,1.13-.95,1.63-1.49,8.07-8.75,12.92-19.16,15.34-30.7,1.24-5.93,2.12-12,.81-18C190.25,325,188.54,320.14,187.06,315.43Zm-22.93,58.69a70.51,70.51,0,0,1-18.4,12.13c-13.25,4.65-26.57,5.34-39.74,0-18.13-7.37-29.24-20.75-33.78-39.85-2.12-8.91-.87-17.44,1.08-26.06.28-1.21.57-2.41.85-3.62,3.45-7.41,7.61-14.34,13.34-20.25,15.07-13.59,32.53-18,52.27-13.58,15.53,4.86,27.4,14.15,34.64,28.92,1.46,3,2.47,6.2,3.69,9.31C182.91,341.27,178.05,358.89,164.13,374.12Z"/><path class="cls-4" d="M189.93,137.79c1.21-3.35.25-6.44-1.58-9.13-1-1.43-1.11-2.15-.18-3.66a13.53,13.53,0,0,0-11.06-20.8c-5.21-.23-10.44,0-15.66.07-5,0-10-.16-14.94-.1-1.83,0-2.35-.46-2-2.34.69-4,1.19-8.13,1.66-12.2,1.2-10.36-1.71-19.2-9.87-26a18,18,0,0,0-7.58-3.83c-6.72-1.56-11.32,1.79-11.63,8.7-.52,11.69-.84,23.41-6.42,34.15-.33.37-.67.72-1,1.1-2.17,2.6-4.27,4.9-7.83,1.65-1.49-1.36-3.68-1.27-5.69-1.27-10.18,0-20.35,0-30.53,0-2.1,0-4.22,0-6,1.44-3.69,1.55-5.1,4.66-5.14,8.32-.09,10,0,19.91.08,29.86,0,9.58-.11,19.16-.11,28.74,0,7.7,3.74,11.49,11.42,11.53,10,.05,19.91,0,29.87,0,1.22,0,2.51.24,3.61-.56,3.59.72,4.69-4.82,8.12-3.52,3.11,1.16,6,2.85,9.34,3.46a20.13,20.13,0,0,0,3.67.51c7.92,0,15.84,0,23.76-.05,9.18.05,18.38.36,27.55.07,9.37-.29,14.88-7.64,13.32-17-.64-1.85-.51-3.09,1.29-4.65,3.33-2.9,5.1-7.19,3.7-11.4C188.6,146.33,187.82,142.18,189.93,137.79ZM96.7,169.52c.07,3.32-1,4.51-4.09,4.21-7.94,0-15.88-.24-23.81-.08-3,.06-4.1-.57-4-3.8.24-6.44,0-12.9,0-19.35,0-10.95.1-21.91.12-32.87,0-1.65-.22-3.34,2.27-3.15,8.8,0,17.6.18,26.4.08,2.48,0,3.13.75,3.09,3.15-.11,6.94,0,13.88.08,20.82C96.69,148.86,96.48,159.19,96.7,169.52Zm68.46-20.31c3.24.08,6.48.06,9.72,0,2.46,0,4.8.47,5,3.32s-2,3.69-4.57,3.67a6.8,6.8,0,0,0-1.1.17c.34.56.68,1.11,1,1.65-.36-.54-.7-1.09-1-1.65-3.24,0-6.48-.21-9.71-.14s-5.2,1.82-5.24,5.1,2,5,5.16,5.26c1.85.16,3.73.08,5.6.07,2.53,0,5.08.21,5,3.55-.11,3-2.55,3.32-4.9,3.32-9.6,0-19.2,0-28.8,0-1.24,0-2.49.09-3.73.14-3.86,0-7.73-.32-11.58-.11-6.12.33-11.48-1.52-16.58-4.73A4.29,4.29,0,0,1,107,164.7c.07-6.47-.07-12.95-.14-19.43.07-8,.2-15.9.15-23.85,0-2.34.35-3.76,2.88-4.73a16.49,16.49,0,0,0,8.89-8.08c7.45-11.4,7.93-24.48,8.81-37.5,5.62,2,9,8.92,8.21,16.48-.71,6.3-1.55,12.58-2.46,18.85-.85,5.92.94,8.18,6.84,8.17,9.58,0,19.15-.08,28.73-.12,2.11,0,4.22.16,6.33.11,2.42-.06,4.45.72,4.57,3.27.13,2.87-2,3.71-4.56,3.56a14.53,14.53,0,0,0-1.85.14c-3,0-6-.25-9-.08-3.39.19-5.55,2.54-5.25,5.55.31,3.26,2.29,4.83,5.52,4.84,3.61,0,7.23,0,10.85,0,2.42,0,4.31,1,4.26,3.64-.06,2.43-1.89,3.25-4.18,3.23-3.49,0-7-.08-10.48,0-3.81.12-6,2.1-6,5.24S161.27,149.12,165.16,149.21Z"/><path class="cls-5" d="M331.7,283.29c0-6.1.39-12.2-.25-18.29.44-12.47.48-24.95,0-37.42.59-9.05.26-18.1.19-27.15,0-3.39-2.47-5.72-5.34-5.45-3.16.29-5,2.17-5,5.4,0,6.57.1,13.14.17,19.72-.38,12.72-.34,25.44,0,38.15-.38,17.95-.27,35.9,0,53.85-.7,5.56-.27,11.15-.25,16.72,0,2.63-.86,3.38-3.42,3.34-6.71-.09-13.41.1-20.11.17l-43.4,0-30,0a.55.55,0,0,0-.51-.26c4.74-3.77,9.51-7.51,14.21-11.34,2.89-2.36,3.32-5.31,1.32-7.78-1.87-2.3-4.86-2.65-7.62-.54-6,4.56-11.87,9.28-17.8,13.93-3.09,2.3-6.29,4.46-9.23,6.94s-2.89,5.79,0,8.07c9.08,7.2,18.28,14.24,27.51,21.24,2.59,2,5.29,1.51,7.25-1s1.39-5.14-1-7.28c-.74-.67-1.57-1.23-2.35-1.84L223.85,343l3.45-.56c11.22.3,22.44.34,33.66,0,14.46.34,28.93.32,43.39,0,7.22.07,14.43.21,21.65.18,3.33,0,5.59-1.85,5.67-5.21.16-6,.48-11.93-.19-17.89C331.56,307.46,331.71,295.37,331.7,283.29Z"/><path class="cls-6" d="M234.78,139.78l4.61.33L237.82,142c-4.17,3.14-8.41,6.2-12.49,9.45-2.73,2.18-3.13,5.22-1.14,7.53s4.73,2.8,7.3.85c4.95-3.74,9.78-7.65,14.66-11.5,4.39-2.9,8.18-6.58,12.54-9.56,3.2-2.18,3-5.66.09-8.27-1.39-1.24-2.93-2.31-4.41-3.45-7.4-5.7-14.78-11.42-22.21-17.07-3-2.3-6-2.11-7.94.31-2.09,2.6-1.51,5.45,1.66,8,1.16.94,2.36,1.82,3.55,2.74l10.09,7.83c-.12.25-.23.5-.35.74H227.29c-7.59,0-15.18-.15-22.77-.11-3.43,0-5.62,2.18-5.62,5.16s2.25,5.22,5.64,5.24C214.62,140,224.7,139.83,234.78,139.78Z"/><path class="cls-7" d="M118.12,313.06c1-.41,2.06-.87,3.12-1.21,7.33-2.36,15,1.55,16.18,8.18.77,4.49,2.62,6.23,6.1,5.73s5-3.48,4.19-7.79c-1.23-6.54-4.67-12-10.8-14.22-5.34-1.95-6.71-4.78-6.26-10a5,5,0,0,0-6.68-5.2,5.17,5.17,0,0,0-3.64,5.83c.51,4.45-.11,7.94-5.44,8.76-1,.16-1.88,1.14-2.82,1.74a18.35,18.35,0,0,0-8.89,15.54c-.3,9.33,4.53,15.59,14.26,18.49,4.76,1.42,9.72,2.2,14.43,3.77,6.08,2,7.53,8.8,3,13.43a29.83,29.83,0,0,1-4.17,3.06,12.38,12.38,0,0,0,.6,1.21,12.38,12.38,0,0,1-.6-1.21c-1.1.21-2.19.47-3.29.63-6.69,1-12.85-3-13.8-9-.65-4-2.85-6.12-5.93-5.66-3.26.49-5.07,3.47-4.43,7.43,1,6,3.76,11.23,9.18,13.78s9.23,5.06,8.09,12c-.42,2.57,2.16,4.33,5.1,4.27s5.32-1.85,4.91-4.5c-1-6.23,1.66-9.55,7.22-11.3A18.1,18.1,0,0,0,147.88,351c.52-9.24-4.13-15.66-13.43-18.59-5.08-1.59-10.4-2.41-15.45-4.07-5.72-1.89-7.18-8.33-3.23-12.94C116.49,314.57,117.33,313.84,118.12,313.06Z"/><path class="cls-8" d="M86.88,153.78a67.74,67.74,0,0,0-12.25,0c-2.9.27-4.67,2.38-4.41,5.46s2.11,4.65,5.16,4.78c1.73.07,3.47,0,5.21,0s3.73.06,5.58,0c3-.12,4.89-1.72,5.1-4.8S89.82,154,86.88,153.78Z"/></svg>