<svg id="圖層_1" data-name="圖層 1" xmlns="http://www.w3.org/2000/svg" xmlns:xlink="http://www.w3.org/1999/xlink" viewBox="0 0 425.2 425.2"><defs><style>.cls-1{fill:url(#未命名漸層_11);}.cls-2{fill:url(#未命名漸層_11-2);}.cls-3{fill:url(#未命名漸層_11-3);}.cls-4{fill:url(#未命名漸層_11-4);}.cls-5{fill:url(#未命名漸層_11-5);}.cls-6{fill:url(#未命名漸層_11-6);}.cls-7{fill:url(#未命名漸層_11-7);}.cls-8{fill:url(#未命名漸層_11-8);}.cls-9{fill:url(#未命名漸層_11-9);}.cls-10{fill:url(#未命名漸層_11-10);}.cls-11{fill:url(#未命名漸層_11-11);}.cls-12{fill:url(#未命名漸層_11-12);}.cls-13{fill:url(#未命名漸層_11-13);}</style><linearGradient id="未命名漸層_11" x1="131.86" y1="106.88" x2="131.86" y2="341.55" gradientUnits="userSpaceOnUse"><stop offset="0" stop-color="#a9dadb"/><stop offset="1" stop-color="#3593c3"/></linearGradient><linearGradient id="未命名漸層_11-2" x1="218.63" y1="106.88" x2="218.63" y2="341.55" xlink:href="#未命名漸層_11"/><linearGradient id="未命名漸層_11-3" x1="362.43" y1="106.88" x2="362.43" y2="341.55" xlink:href="#未命名漸層_11"/><linearGradient id="未命名漸層_11-4" x1="290.59" y1="106.88" x2="290.59" y2="341.55" xlink:href="#未命名漸層_11"/><linearGradient id="未命名漸層_11-5" x1="157.3" y1="106.88" x2="157.3" y2="341.55" xlink:href="#未命名漸層_11"/><linearGradient id="未命名漸層_11-6" x1="280.19" y1="106.88" x2="280.19" y2="341.55" xlink:href="#未命名漸層_11"/><linearGradient id="未命名漸層_11-7" x1="157.72" y1="106.88" x2="157.72" y2="341.55" xlink:href="#未命名漸層_11"/><linearGradient id="未命名漸層_11-8" x1="279.92" y1="106.88" x2="279.92" y2="341.55" xlink:href="#未命名漸層_11"/><linearGradient id="未命名漸層_11-9" x1="218.68" y1="106.88" x2="218.68" y2="341.55" xlink:href="#未命名漸層_11"/><linearGradient id="未命名漸層_11-10" x1="131.91" y1="106.88" x2="131.91" y2="341.55" xlink:href="#未命名漸層_11"/><linearGradient id="未命名漸層_11-11" x1="305.55" y1="106.88" x2="305.55" y2="341.55" xlink:href="#未命名漸層_11"/><linearGradient id="未命名漸層_11-12" x1="170.8" y1="106.88" x2="170.8" y2="341.55" xlink:href="#未命名漸層_11"/><linearGradient id="未命名漸層_11-13" x1="218.86" y1="106.88" x2="218.86" y2="341.55" xlink:href="#未命名漸層_11"/></defs><path class="cls-1" d="M59.89,255.57c-21.46-19.94-17.34-47.41-2.75-62A42.22,42.22,0,0,1,115,191.83c14.25,12.45,22.76,41.58-1,63.91,13,5.45,21.49,15,25.24,27.51,2.79,1.41,4.84,2.65,7.05,3.49a5.6,5.6,0,0,0,3.84.15,4.57,4.57,0,0,0,2.57-2.84c.74-5.59,2.19-7.05,7.86-7.06,7.11,0,14.22,0,21.33,0,4.58,0,6.68,1.95,6.77,6.49,0,1.95.65,2.88,2.49,3.51s2.9,1.11,4.57-.49c3.31-3.16,6.48-2.94,9.81.33q7.76,7.61,15.35,15.35c3.27,3.33,3.45,6.36.2,9.78-1.61,1.7-1.41,3.13-.28,4.52a6.13,6.13,0,0,0,3.44,2.32c4.29.52,6.35,2.38,6.38,6.66q.08,11.4,0,22.82c0,4.26-2.08,6.39-6.42,6.47-1.9,0-2.91.54-3.54,2.43-.56,1.71-1.17,2.9.44,4.6,3.23,3.41,3,6.43-.24,9.78q-7.6,7.74-15.35,15.35c-3.34,3.28-6.46,3.5-9.78.33-1.66-1.59-2.86-1.1-4.58-.51s-2.45,1.56-2.49,3.5c-.1,4.53-2.21,6.46-6.78,6.49q-11.23.06-22.45,0c-4.33,0-6.21-2.05-6.72-6.31a6.3,6.3,0,0,0-2.25-3.49c-1.57-1.32-3.07-1.23-4.81.45-3.12,3-6.35,2.74-9.54-.37-3.85-3.73-7.7-7.47-11.36-11.39a8.4,8.4,0,0,0-6.79-2.89c-25.69.11-51.38.07-77.08.06-6,0-7.83-1.81-7.84-7.73,0-22.45.2-44.9-.06-67.35C32.79,277.75,42,264.11,59.89,255.57Zm19.46,9.66c-19.55-1.56-34.2,11.7-34.29,30.78-.1,20.57,0,41.15,0,61.72,0,.95.14,1.91.2,2.68h76.59c-.65-3.75-1.84-5.86-6-5.81-3.17,0-4.91-2.61-4.92-6,0-7.85-.05-15.71,0-23.56,0-3.84,2.17-6,6-6.13,1.88-.06,3.22-.17,4-2.37.65-1.91,1.07-3.14-.64-4.87-3-3-2.76-6.2.1-9.24,2.23-2.36,4.66-4.52,6.82-6.93a5,5,0,0,0,1.33-3.18c-.92-16.58-17.5-29.77-33.91-26.95,3.28,14.8,6.68,29.57,9.7,44.43a11.87,11.87,0,0,1-1.3,7.63c-3.15,5.5-6.87,10.68-10.46,15.92-3.3,4.8-7.87,4.8-11.16,0-3.6-5.24-7-10.6-10.62-15.82a9.08,9.08,0,0,1-1.35-7.75C72.8,295.05,76,280.24,79.35,265.23Zm120.8,109.23,8.56-8.07c-3.48-3-3.18-6.25-1.14-9.84a31.15,31.15,0,0,0,3-7.21c1.15-4.16,3.27-6.9,8-6.61V330.92c-4.37.26-6.6-1.9-7.67-5.79a27.65,27.65,0,0,0-2.73-6.92c-2.34-3.88-3.19-7.52.17-10.72l-7.94-8.5c-3.21,3.64-6.58,3-10.2.92a25.8,25.8,0,0,0-6.51-2.72c-4.3-1.09-7.27-3.13-7-8H164.79c.41,4.47-1.92,6.56-5.75,7.66a28.63,28.63,0,0,0-6.91,2.74c-3.9,2.37-7.53,3.11-10.76-.2L133,307.28c3.25,3.11,3.18,6.3,1.08,9.91a30.29,30.29,0,0,0-3,7.2c-1.15,4.16-3.27,6.9-7.94,6.61v11.82c4.39-.27,6.6,1.91,7.68,5.79a27.79,27.79,0,0,0,2.72,6.91c2.36,3.9,3.13,7.53-.15,10.71l7.94,8.49c3.06-3.45,6.3-3.12,9.86-1.07a28.24,28.24,0,0,0,6.85,2.89c4.29,1.11,7.25,3.15,6.94,8h11.82c-.28-4.42,2-6.54,5.81-7.67a36.89,36.89,0,0,0,7.91-3.25C194.09,371.57,197.28,371.44,200.15,374.46ZM87,214.11a43.23,43.23,0,0,0-27.07,10.08A5,5,0,0,0,58,230c3.47,13.53,15.47,23.09,29.07,23A30.16,30.16,0,0,0,116,229.73a4.7,4.7,0,0,0-1.61-5.25A43,43,0,0,0,87,214.11Zm-25.21-6.26C78.6,200,95.32,200,112.9,208.6c-6.19-9.86-14.24-14.88-24.65-15.32C76.79,192.8,68,198,61.79,207.85Zm25.62,81.31-1,.09c-1.16,5.3-1.75,10.82-3.62,15.86-2.28,6.1.33,10.11,4.55,14.75,1.71-3.26,4.8-6.38,4.53-9.18C91.21,303.43,89,296.33,87.41,289.16Z"/><path class="cls-2" d="M218.56,229.39c-3.95-.35-8-.26-11.83-1.15-7.81-1.8-13.12-6.88-16.19-14.21-.72-1.7-1.26-2.77-3.4-3.2-3-.6-4.4-3-4.37-6.12.06-5.73-.08-11.47,0-17.2.16-7-2.64-12.27-7.76-17-18.94-17.5-26.24-39.26-20.42-64.31,5.64-24.29,21.2-40.57,45.07-48C238.14,46.2,278.35,72,283.85,112c3.19,23.18-4.23,42.76-21.41,58.46-5.4,4.94-8.08,10.47-7.85,17.69.18,5.48,0,11,0,16.46,0,3.48-1.6,5.58-4.94,6.52-.82.23-1.94.76-2.2,1.43-4.85,12.68-14.44,17.39-27.42,16.54-.49,0-1,0-1.49,0Zm23.75-48.21c1.46-3.7,2.41-7.39,4.29-10.52a39.67,39.67,0,0,1,7.17-8.52c14-13,20.39-28.75,18.21-47.91-3.42-30.18-33.73-52.2-63.53-45.72C187,73.17,172.6,86.18,166.89,107.42s.42,39.38,16.38,54.2c5.26,4.9,9.26,10.33,10.86,17.44a3.31,3.31,0,0,0,2.38,2C211.84,181.21,227.17,181.18,242.31,181.18Zm-47.4,17.71h47.6v-5.56h-47.6Zm7.62,12.35c6.42,8.4,14.92,5.47,22.49,5.72a9.91,9.91,0,0,0,9.46-5.72Z"/><path class="cls-3" d="M386.37,241V388.59c0,6.45-1.7,8.14-8.18,8.15q-16.08,0-32.17,0c-5.65,0-7.53-1.91-7.53-7.65q0-71.64,0-143.27V241c-3.92,0-7.5-.08-11.08,0-2.9.08-5.63-.75-6.22-3.6-.44-2.11-.05-5.18,1.26-6.76,11.4-13.71,23.05-27.19,34.69-40.69,3.34-3.87,7.2-3.93,10.51-.1,11.73,13.59,23.46,27.18,34.92,41a7.74,7.74,0,0,1,.91,6.71c-.69,1.63-3.5,3-5.54,3.27C394.29,241.41,390.52,241,386.37,241Zm-46.54-12.18c10.16.72,10.61,1.21,10.61,10.73V384.48h24V239c0-.88,0-1.75,0-2.62,0-5.29,1.93-7.23,7.12-7.33,1,0,2-.15,3.49-.27l-22.62-26.32Z"/><path class="cls-4" d="M314.51,294.94v94c0,5.95-1.84,7.78-7.79,7.79q-16.46,0-32.91,0c-5.18,0-7.18-2-7.18-7.26q0-44.88,0-89.76v-4.77c-3.92,0-7.5-.08-11.08,0-2.89.08-5.63-.74-6.22-3.59-.44-2.11,0-5.19,1.26-6.76,11.39-13.7,23-27.19,34.68-40.69,3.35-3.87,7.2-3.95,10.51-.12,11.73,13.59,23.46,27.17,34.92,41a7.54,7.54,0,0,1,.93,6.68c-.84,1.71-3.74,3-5.9,3.32C322.21,295.33,318.55,294.94,314.51,294.94Zm-23.95-38.59L268,282.79c10.09.6,10.61,1.16,10.61,10.73V384.6h24V294.75c0-10.62,0-10.62,10.44-12.21Z"/><path class="cls-5" d="M167.33,62.29l-7.6,7.6L147.28,57.51l7.6-7.62Z"/><path class="cls-6" d="M290.15,58.25l-11.7,11.68c-2.74-2.71-5.49-5.45-8.22-8.16l11.92-11.44Z"/><path class="cls-7" d="M159.83,173.05l7.59,7.59L155,193l-7-8.05Z"/><path class="cls-8" d="M270,180.32l7.77-7.78,12,12.23-7.66,7.75Z"/><path class="cls-9" d="M213,25.56h11.43v17.6H213Z"/><path class="cls-10" d="M123.21,115.44h17.4v11.63h-17.4Z"/><path class="cls-11" d="M296.88,115.39h17.34V127H296.88Z"/><path class="cls-12" d="M170.88,306.94a29.93,29.93,0,1,1-30,29.75A29.77,29.77,0,0,1,170.88,306.94Zm-18,29.93a18,18,0,1,0,17.85-18A18.29,18.29,0,0,0,152.85,336.87Z"/><path class="cls-13" d="M254.64,109.22a21,21,0,0,1-2.5,4c-3.26,3.6-6.88,6.89-10.07,10.55a6.57,6.57,0,0,0-1.43,4.55c.6,5,2,10,2.33,15.1.16,2.14-.82,5.14-2.38,6.41-1.39,1.14-4.61,1.17-6.46.38-4.55-2-8.71-4.8-13.18-7a5.56,5.56,0,0,0-4.33,0c-4.36,2.12-8.55,4.6-12.79,7-2.5,1.39-5.36,1.9-7.22-.31a10,10,0,0,1-2.13-6.6c.4-5.06,1.74-10,2.32-15.1a6.56,6.56,0,0,0-1.58-4.51c-3.21-3.65-7-6.82-10-10.59-1.38-1.72-2.62-4.84-1.95-6.56.75-2,3.52-3.78,5.75-4.38,4.54-1.21,9.34-1.42,14-2.38a5.78,5.78,0,0,0,3.44-2.66c2.11-3.94,3.89-8.06,5.75-12.13,1.33-2.92,2.75-5.64,6.62-5.59s5.2,2.87,6.54,5.74c1.89,4.06,3.67,8.18,5.76,12.13a5.29,5.29,0,0,0,3.16,2.47c4.63.94,9.33,1.51,14,2.25C252.29,102.59,254.56,104.79,254.64,109.22ZM207.7,133.68c4.36-1.91,7.63-4.47,10.89-4.46s6.79,2.53,11,4.29c-4.08-8.9-1.17-15.58,6.28-21.08-9.21.34-14.8-3.49-17.21-12.49-2.17,9.36-8.3,12.62-17.16,12.69C209.25,118,211.7,124.6,207.7,133.68Z"/></svg>