<svg id="圖層_1" data-name="圖層 1" xmlns="http://www.w3.org/2000/svg" xmlns:xlink="http://www.w3.org/1999/xlink" viewBox="0 0 425.2 425.2"><defs><style>.cls-1{fill:url(#未命名漸層_11);}.cls-2{fill:url(#未命名漸層_11-2);}.cls-3{fill:url(#未命名漸層_11-3);}.cls-4{fill:url(#未命名漸層_11-4);}.cls-5{fill:url(#未命名漸層_11-5);}.cls-6{fill:url(#未命名漸層_11-6);}.cls-7{fill:url(#未命名漸層_11-7);}.cls-8{fill:url(#未命名漸層_11-8);}.cls-9{fill:url(#未命名漸層_11-9);}.cls-10{fill:url(#未命名漸層_11-10);}</style><linearGradient id="未命名漸層_11" x1="215.29" y1="45.89" x2="215.29" y2="376.28" gradientUnits="userSpaceOnUse"><stop offset="0" stop-color="#a9dadb"/><stop offset="1" stop-color="#3593c3"/></linearGradient><linearGradient id="未命名漸層_11-2" x1="319.77" y1="45.89" x2="319.77" y2="376.28" xlink:href="#未命名漸層_11"/><linearGradient id="未命名漸層_11-3" x1="110.83" y1="45.89" x2="110.83" y2="376.28" xlink:href="#未命名漸層_11"/><linearGradient id="未命名漸層_11-4" x1="95.51" y1="45.89" x2="95.51" y2="376.28" xlink:href="#未命名漸層_11"/><linearGradient id="未命名漸層_11-5" x1="335.09" y1="45.89" x2="335.09" y2="376.28" xlink:href="#未命名漸層_11"/><linearGradient id="未命名漸層_11-6" x1="215.3" y1="45.89" x2="215.3" y2="376.28" xlink:href="#未命名漸層_11"/><linearGradient id="未命名漸層_11-7" x1="335.1" y1="45.89" x2="335.1" y2="376.28" xlink:href="#未命名漸層_11"/><linearGradient id="未命名漸層_11-8" x1="215.28" y1="45.89" x2="215.28" y2="376.28" xlink:href="#未命名漸層_11"/><linearGradient id="未命名漸層_11-9" x1="94.21" y1="45.89" x2="94.21" y2="376.28" xlink:href="#未命名漸層_11"/><linearGradient id="未命名漸層_11-10" x1="77.92" y1="45.89" x2="77.92" y2="376.28" xlink:href="#未命名漸層_11"/></defs><path class="cls-1" d="M239.45,202.14c4.85,4.29,10.23,8.19,14.53,13.05,6.4,7.22,9.25,16.08,9.23,25.81,0,13.47,0,26.95,0,40.42,0,5.77-1.88,7.7-7.51,7.7H174.85c-5.48,0-7.45-1.94-7.45-7.37,0-13.35-.06-26.7,0-40.05.07-16.85,7.81-29.21,22.25-37.58.64-.36,1.29-.7,2.35-1.28-9.52-8.75-13.94-19.43-12.42-32.11a34.86,34.86,0,0,1,13.24-23.51,36,36,0,0,1,46.62,54.92Zm-15,9.55c2.9,7.26,5.68,13.51,7.84,20a11.15,11.15,0,0,1-.28,7.39c-3.28,7.39-7.12,14.54-10.72,21.79-1.24,2.51-2.9,4.31-6,4.32s-4.73-1.79-6-4.3c-3.43-6.91-6.79-13.87-10.4-20.69a10.16,10.16,0,0,1-.36-9.58c2.63-6,4.87-12.12,7.51-18.81-1.78.29-2.86.37-3.9.64a29.65,29.65,0,0,0-22.8,28.84c-.16,11.23,0,22.46,0,33.69a12.4,12.4,0,0,0,.33,2H251c0-13,.19-25.84-.13-38.65a25,25,0,0,0-2.81-10C243.47,218.88,235.75,213.46,224.43,211.69Zm-9.05-12.42a24.34,24.34,0,0,0,23.07-18.36c.61-2.68.26-4.48-2.57-6-13.7-7.31-27.24-7.34-41-.12-2.89,1.53-3.42,3.41-2.73,6.27A24.36,24.36,0,0,0,215.38,199.27Zm18.05-38.88c-10.21-13-29.47-10.34-35.83-.1C209.44,156.28,221.15,156.37,233.43,160.39Zm-17.32,84.77c1.39-4,3.76-7.79,3.66-11.51s-2.66-7.4-4.31-11.51C211.1,230.14,207.91,237.44,216.11,245.16Z"/><path class="cls-2" d="M309.75,377.65l-11.75.76a17.45,17.45,0,0,1,3.17-13,76.43,76.43,0,0,1,10.7-11.88c10.55-9.34,21.44-18.29,32.11-27.5a32,32,0,0,0,5.24-5.78q15.86-22.45,31.49-45.05c1.12-1.63,2.18-3.93,1.9-5.7a5.81,5.81,0,0,0-3.8-3.88,7,7,0,0,0-5.44,2.08c-7.25,8.07-14.54,16.14-21.2,24.69a40.35,40.35,0,0,1-22.05,14.91c-10.41,2.85-20.53,6.74-30.79,10.17-5.13,1.71-6.14,3.1-6.17,8.65,0,1.48,0,3,0,4.68H281.42c-.68-6.51-.28-12.58,3.41-18.3,3.85-6,7.07-12.32,10.73-18.4,1.77-2.95,1.62-5.47-1.06-7.57-2.44-1.93-5.43-1.15-7.66,2-7.38,10.35-14.78,20.69-22,31.17-6.38,9.3-8,20-8.29,31-.22,9.22,0,18.44,0,28H245.44c-.18-2.62-.47-5.44-.56-8.27-.47-13.94-1.67-28,2.7-41.56a68.14,68.14,0,0,1,7.5-16.14c7.08-10.85,14.74-21.32,22.31-31.85a17.2,17.2,0,0,1,31.32,11.22c-.41,3.47-2.08,6.78-3.19,10.21,5.07-.85,9.87-2.32,11.45-8.4a10.36,10.36,0,0,1,.81-1.68c6.41-12.77,13.21-25.31,15.92-39.66,1.42-7.54,7.86-11.6,15.45-11.35a15,15,0,0,1,14,12.36,51.28,51.28,0,0,1,.46,6.31c3.94-4,8.12-6.68,13.58-6.71,7-.05,12.32,2.95,15.65,9a16.34,16.34,0,0,1-.86,18c-6.29,9.28-13.23,18.16-19.16,27.66a168,168,0,0,1-39.68,43.8c-5.4,4.22-10.65,8.64-15.83,13.14C313.54,368.14,310.22,371.88,309.75,377.65Zm21.15-84.4.71,1.1c2.08-1.35,4.4-2.46,6.19-4.12a83,83,0,0,0,6.12-7.07c1.2-1.42,3.12-2.72,3.45-4.34,1.54-7.42,2.72-14.92,3.75-22.43.12-.89-1.3-2.62-2.27-2.85s-2.3.87-3.28,1.64a3.55,3.55,0,0,0-.74,2.07c-2,11.68-6.65,22.35-12.29,32.66C331.94,291,331.44,292.13,330.9,293.25Z"/><path class="cls-3" d="M132.85,378.41l-11.92-.73c-.81-7.19-5.67-11.22-10.41-15.28-11.16-9.59-22.4-19.09-33.55-28.68a24.3,24.3,0,0,1-4-4.39Q55.81,305,38.83,280.63A17.34,17.34,0,0,1,62.11,255.8a53.78,53.78,0,0,1,4.69,3.77,58.42,58.42,0,0,1,1-7.32,14.83,14.83,0,0,1,13.16-11c7-.41,12.89,3.12,15.4,9.48a35.18,35.18,0,0,1,2,6.79c2.59,15.08,11.27,27.55,17.85,40.87,1.17,2.37,5.73,3.08,8.73,4.56l.56-.81c-.6-1.17-1.22-2.32-1.79-3.5-4-8.19-1.54-17.57,5.91-22.37S147,272.63,152.4,280c8.68,11.71,17.11,23.63,25.12,35.8,5.89,8.94,8,19.33,8.4,29.87.41,10.95.09,21.92.09,33.17H173.78c0-4.82-.2-9.52,0-14.19.52-10.24.88-20.53-2-30.45a59.27,59.27,0,0,0-6.93-15.54c-6.57-10.14-13.81-19.84-20.81-29.7-2.43-3.42-5.22-4.25-7.89-2.49s-2.87,4.67-.82,8.24c3.41,5.94,6.64,12,10.36,17.74s4.08,11.82,3.49,18.44H137.44c0-2,.07-4.08,0-6.14-.16-3.54-1.61-5.93-5.33-7.12-13-4.14-26.07-8.3-38.91-13a26.19,26.19,0,0,1-9.89-6.93c-8.71-9.6-16.9-19.67-25.52-29.36-1.37-1.53-4-2.9-5.94-2.74-4,.35-5.27,4.9-2.66,8.69,6.51,9.44,13.58,18.53,19.6,28.26,9.73,15.71,22.37,28.54,36.63,40,6.69,5.4,13.28,10.95,19.52,16.85A24.57,24.57,0,0,1,132.85,378.41ZM99.09,294.3l.71-.91c-1.38-2.76-2.66-5.57-4.14-8.27a80.75,80.75,0,0,1-8.88-23.64c-.33-1.7-.44-3.58-1.27-5-.75-1.3-2.34-2.12-3.56-3.16-.81,1.45-2.46,3-2.3,4.31.78,6.67,2,13.29,3.15,19.91a6.68,6.68,0,0,0,1.52,2.89c2.78,3.36,5.48,6.82,8.56,9.89C94.59,292,97,293,99.09,294.3Z"/><path class="cls-4" d="M35.62,127.44a59.89,59.89,0,1,1,59.84,59.85A59.7,59.7,0,0,1,35.62,127.44Zm59.91-48c-26.15,0-47.93,21.75-47.94,47.9s21.74,47.94,47.89,47.95,47.91-21.72,47.94-47.9S121.7,79.48,95.53,79.47Z"/><path class="cls-5" d="M395,127.12A59.89,59.89,0,1,1,334.91,67.5,59.76,59.76,0,0,1,395,127.12Zm-107.81,0c-.14,26.15,21.5,48,47.68,48.17s48-21.48,48.16-47.69-21.49-48-47.68-48.16S287.31,101,287.17,127.15Z"/><path class="cls-6" d="M215.35,19.58a53.91,53.91,0,0,1-.1,107.81c-30,0-53.89-24.09-53.85-54.33A53.77,53.77,0,0,1,215.35,19.58Zm-.06,12c-22.88,0-42,19.17-41.91,42a42.32,42.32,0,0,0,41.74,41.82c22.81.17,42-18.92,42.09-41.83S238.19,31.56,215.29,31.56Z"/><path class="cls-7" d="M353.05,109.44c4,0,7.61,0,11.2,0,4.54,0,6.72,2.12,6.75,6.55q.09,11.4,0,22.81c0,4.41-2.23,6.47-6.77,6.54-3.48.06-7,.08-10.46.12-.1,0-.2.13-.72.49,0,3.27,0,6.85,0,10.42,0,4.76-2.1,6.91-6.75,6.94q-11.22.06-22.43,0c-4.52,0-6.64-2.14-6.72-6.6-.06-3.48-.06-7-.09-10.46a5.8,5.8,0,0,0-.26-.9c-3.38,0-6.94,0-10.5,0-5,0-7.09-2-7.12-6.94q0-11,0-22.06c0-4.76,2.1-6.85,6.78-6.91,3.59,0,7.18,0,11.18,0,0-3.87,0-7.45,0-11,0-4.78,2.08-6.92,6.74-6.94q11.22-.08,22.43,0c4.65,0,6.69,2.17,6.73,7C353.07,101.91,353.05,105.39,353.05,109.44Zm-41.79,24c4,0,7.61,0,11.21,0,4.46.06,6.56,2.19,6.61,6.7.05,3.69,0,7.37,0,11h12c0-3.67,0-7,0-10.4,0-5.24,2-7.24,7.16-7.27,3.56,0,7.12,0,10.6,0v-12c-3.9,0-7.62.06-11.33,0-4.23-.07-6.36-2.23-6.43-6.5-.05-3.71,0-7.41,0-11.22h-12c0,3.82,0,7.42,0,11-.05,4.52-2.15,6.65-6.6,6.71-3.7.06-7.4,0-11.22,0Z"/><path class="cls-8" d="M221.54,109.26h-12.3c1.5-5.2-1.5-7.63-5.37-10.2-4.44-3-6.42-7.74-6.53-13.39h11.72c.22.52.51,1.29.87,2,1.36,2.79,3.57,4.22,6.65,3.47a5.57,5.57,0,0,0,4.59-6c-.16-3.07-2.17-5-5.17-5.58-1.82-.37-3.74-.31-5.51-.81-7.17-2-11.57-6.88-12.9-14-1.28-6.88.81-13.17,6.67-17.12,3.74-2.52,6.23-4.91,4.9-9.83h11.92a6.28,6.28,0,0,1,.17,1.57c-.47,3.38.56,5.49,3.85,7.33,5.31,3,7.9,8.07,8.18,14.54H221.52c-.35-.79.34-5.34-.42-5.82-1.87-1.17-5.88-2.28-7.56-1.83-1.92.5-7.33,5-6.21,7.83a10.21,10.21,0,0,0,8.94,6.1A17.81,17.81,0,0,1,232.6,80.61c2.07,7.14-.29,15.07-6.69,19.1C222.16,102.08,220.21,104.48,221.54,109.26Z"/><path class="cls-9" d="M94.25,108.13a22.26,22.26,0,0,1,11.59-6.24c13.49-2.69,26.1,9.07,24.48,22.77a25,25,0,0,1-9.3,17c-8.56,7.11-17,14.36-25.49,21.56-.4.33-.81.64-1.33,1.05-2.52-2.12-5-4.22-7.51-6.33l-20-16.92c-7.68-6.49-10.74-17.4-7.35-26.24,5-13,21.75-17.44,32.56-8.71C92.65,106.71,93.38,107.38,94.25,108.13Zm.26,47.72,4.29-3.63c6-5.12,12.19-10.15,18.13-15.4,5.37-4.76,7.13-10.89,5.06-17.69-2.92-9.59-15.49-12.68-23.06-5.85-1.5,1.35-2.76,3-4.4,4.78-1.66-1.8-2.91-3.37-4.37-4.7-7.92-7.17-20.9-3.6-23.4,6.6-1.71,7,.5,12.9,6,17.55q6.54,5.51,13,11C88.7,151,91.56,153.37,94.51,155.85Z"/><path class="cls-10" d="M75.25,117l3.21,3.14a37.8,37.8,0,0,0-1.34,5.21A5.42,5.42,0,0,0,79,129.8l5,5-3.72,3.3a68.76,68.76,0,0,1-5.91-5.66C70.58,127.88,71.08,120.6,75.25,117Z"/></svg>