<svg id="圖層_1" data-name="圖層 1" xmlns="http://www.w3.org/2000/svg" xmlns:xlink="http://www.w3.org/1999/xlink" viewBox="0 0 425.2 425.2"><defs><style>.cls-1{fill:url(#新增漸層色票_1);}.cls-2{fill:url(#新增漸層色票_1-2);}.cls-3{fill:url(#新增漸層色票_1-3);}.cls-4{fill:url(#新增漸層色票_1-4);}.cls-5{fill:url(#新增漸層色票_1-5);}.cls-6{fill:url(#新增漸層色票_1-12);}.cls-7{fill:url(#新增漸層色票_1-13);}</style><linearGradient id="新增漸層色票_1" x1="209.94" y1="125.07" x2="209.94" y2="304.65" gradientUnits="userSpaceOnUse"><stop offset="0" stop-color="#abe5e4"/><stop offset="1" stop-color="#339cd1"/></linearGradient><linearGradient id="新增漸層色票_1-2" x1="238.45" y1="125.07" x2="238.45" y2="304.65" xlink:href="#新增漸層色票_1"/><linearGradient id="新增漸層色票_1-3" x1="266.55" y1="125.07" x2="266.55" y2="304.65" xlink:href="#新增漸層色票_1"/><linearGradient id="新增漸層色票_1-4" x1="209.94" y1="125.07" x2="209.94" y2="304.65" xlink:href="#新增漸層色票_1"/><linearGradient id="新增漸層色票_1-5" x1="158.06" y1="125.07" x2="158.06" y2="304.65" xlink:href="#新增漸層色票_1"/><linearGradient id="新增漸層色票_1-12" x1="92.01" y1="125.07" x2="92.01" y2="304.65" xlink:href="#新增漸層色票_1"/><linearGradient id="新增漸層色票_1-13" x1="327.86" y1="125.07" x2="327.86" y2="304.65" xlink:href="#新增漸層色票_1"/></defs><path class="cls-1" d="M68.46,142c1.61-2.31,3.84-2.85,6.59-2.85q134.8.09,269.61.05c5.57,0,6.76,1.2,6.76,6.76v43.37c0,4.92-1.19,6.24-6,6.66-11.87,1-19.92,8.41-22.05,20.21-2.2,12.23,8,25.43,20.4,26.43a32.7,32.7,0,0,1,3.84.44,4.21,4.21,0,0,1,3.77,4.39q.06,23.76,0,47.51c0,2.66-1.84,4.37-4.53,4.53-.64,0-1.29,0-1.93,0q-134.94,0-269.88,0c-2.75,0-5-.54-6.59-2.84V245.87c1.43-2.32,3.61-3.16,6.24-3.19a15.68,15.68,0,0,0,3.28-.34,23.58,23.58,0,0,0,18.66-24.79c-.71-11.45-10-20.65-21.94-21.54-2.61-.19-4.8-.87-6.24-3.19Zm141.35,148.1H310.94c9.58,0,19.15,0,28.73,0,1.65,0,2.39-.19,2.37-2.17-.11-11.33-.08-22.66,0-34,0-1.5-.44-1.88-1.88-2.21-15.86-3.64-26.37-16.47-26.54-32.21-.16-15.51,10.43-28.79,26.15-32.49,2-.47,2.29-1.26,2.27-3-.07-10.68-.13-21.36,0-32,0-2.7-.52-3.45-3.37-3.45q-128.76.14-257.51.08a9.05,9.05,0,0,1-1.38,0c-1.63-.26-2,.5-1.94,2q.08,17,0,34c0,1.61.45,2,2,2.38,15.79,3.63,26.32,16.61,26.39,32.31S95.74,248.05,80,251.67c-2,.45-2.15,1.2-2.14,2.86.07,10.87.11,21.73,0,32.6,0,2.36.45,3,2.94,3Q145.3,290,209.81,290.08Z"/><path class="cls-2" d="M279.27,185c-.65.69-1.19,1.3-1.77,1.88L216.37,248c-3.71,3.71-7.46,7.38-11.1,11.15-1.07,1.11-1.73,1.26-2.8,0-1.63-1.86-4.67-3.47-4.83-5.38s3-3.62,4.73-5.36q34-34,67.91-68c1.81-1.81,2.93-2.33,4.61-.07a35.19,35.19,0,0,0,3.47,3.55A13.84,13.84,0,0,1,279.27,185Z"/><path class="cls-3" d="M266.45,228.74a18.92,18.92,0,1,1-18.89,19A19,19,0,0,1,266.45,228.74Zm9.35,18.91a9.29,9.29,0,1,0-18.58,0,9.29,9.29,0,1,0,18.58,0Z"/><path class="cls-4" d="M191.09,190.8a18.85,18.85,0,1,1,18.33,19.14A18.79,18.79,0,0,1,191.09,190.8Zm28.24.19a9.4,9.4,0,0,0-18.79.1,9.4,9.4,0,1,0,18.79-.1Z"/><path class="cls-5" d="M162.92,200.66c0,4.68,0,4.68-4.83,4.68s-4.89,0-4.89-4.93c0-4.78,0-4.78,4.72-4.78C162.92,195.63,162.92,195.63,162.92,200.66Z"/><path class="cls-5" d="M162.92,219.49c0,4.73,0,4.73-4.79,4.73s-4.93,0-4.93-4.89,0-4.87,5-4.87C162.92,214.46,162.92,214.46,162.92,219.49Z"/><path class="cls-5" d="M158.16,233.34c4.76,0,4.76,0,4.76,4.76,0,5,0,5-5.07,5-4.65,0-4.65,0-4.65-4.59v-.27C153.2,233.34,153.2,233.34,158.16,233.34Z"/><path class="cls-5" d="M162.92,181.76c0,4.63,0,4.63-4.53,4.63-5.19,0-5.19,0-5.19-5.1,0-4.48,0-4.48,4.42-4.48h.28C162.92,176.81,162.92,176.81,162.92,181.76Z"/><path class="cls-5" d="M162.92,257.33c0,4.55,0,4.55-4.61,4.55-5.11,0-5.11,0-5.11-5.17,0-4.42,0-4.42,4.5-4.42H158C162.92,252.29,162.92,252.29,162.92,257.33Z"/><path class="cls-5" d="M158,158c4.88,0,4.88,0,4.88,4.84,0,4.64,0,4.64-4.54,4.64-5.18,0-5.18,0-5.18-5.13C153.2,158,153.2,158,158,158Z"/><path class="cls-5" d="M162.92,276.16c0,4.53,0,4.53-4.64,4.53-5.08,0-5.08,0-5.08-5.22,0-4.27,0-4.27,4.39-4.27h.28C162.92,271.2,162.92,271.2,162.92,276.16Z"/><path class="cls-6" d="M92.27,158c4.5,0,4.5,0,4.5,4.64,0,4.83,0,4.83-4.87,4.83-4.64,0-4.64,0-4.64-4.5C87.26,158,87.26,158,92.27,158Z"/><path class="cls-7" d="M327.79,167.47c-4.68,0-4.68,0-4.68-4.74s0-4.73,4.68-4.73,4.83,0,4.83,4.88C332.62,167.47,332.62,167.47,327.79,167.47Z"/><path class="cls-6" d="M92.25,271.21c4.52,0,4.52,0,4.52,4.64,0,4.83,0,4.83-4.86,4.83-4.65,0-4.65,0-4.65-4.76S87.26,271.21,92.25,271.21Z"/><path class="cls-7" d="M327.69,280.68c-4.58,0-4.58,0-4.58-4.55,0-4.92,0-4.92,4.78-4.92s4.73,0,4.73,4.7S332.62,280.68,327.69,280.68Z"/></svg>