<svg id="圖層_1" data-name="圖層 1" xmlns="http://www.w3.org/2000/svg" xmlns:xlink="http://www.w3.org/1999/xlink" viewBox="0 0 425.2 425.2"><defs><style>.cls-1{fill:url(#新增漸層色票_1);}.cls-2{fill:url(#新增漸層色票_1-2);}.cls-3{fill:url(#新增漸層色票_1-3);}.cls-4{fill:url(#新增漸層色票_1-5);}</style><linearGradient id="新增漸層色票_1" x1="177.75" y1="97.96" x2="177.75" y2="301.26" gradientUnits="userSpaceOnUse"><stop offset="0" stop-color="#abe5e4"/><stop offset="1" stop-color="#339cd1"/></linearGradient><linearGradient id="新增漸層色票_1-2" x1="285.71" y1="97.96" x2="285.71" y2="301.26" xlink:href="#新增漸層色票_1"/><linearGradient id="新增漸層色票_1-3" x1="178.04" y1="97.96" x2="178.04" y2="301.26" xlink:href="#新增漸層色票_1"/><linearGradient id="新增漸層色票_1-5" x1="276.76" y1="97.96" x2="276.76" y2="301.26" xlink:href="#新增漸層色票_1"/></defs><path class="cls-1" d="M86.52,249.69c0-17.39.41-31.64-.13-45.85-.47-12.34-.25-24.68-.41-37-.08-5.78,3.25-9,9.07-9q32.24-.26,64.46-.54c8.41-.06,16.82.07,25.23-.07,2,0,2.86.59,3.18,2.55a75.53,75.53,0,0,0,5.65,19c9.87,22,25.07,39.27,46.86,50a89.49,89.49,0,0,0,25.71,8.46c2.07.31,3,1,2.93,3.42-.18,12.2-.14,24.39-.06,36.59.05,6.52.42,13,.51,19.55.07,4.81-2.82,7.79-7.54,8.67a42.68,42.68,0,0,1-7.89.49q-35.21,0-70.41,0a7.52,7.52,0,0,0-4.57,1.45c-13.09,9.12-26.22,18.17-39.31,27.28a68.73,68.73,0,0,0-5.63,4.45,7.46,7.46,0,0,1-8.51,1c-3.09-1.41-4.55-4-4.8-7.47-.59-8.09-.54-16.18-.47-24.27,0-1.68-.6-1.91-2.06-1.9-7.49.07-15,0-22.45,0-5.44,0-8.51-3.36-8.86-8.76C85.93,280.63,86.92,263.57,86.52,249.69ZM219.6,264a10.24,10.24,0,0,0-1.1-3.68c-1.07-2-2.28-4-3.28-6-9.52-19.53-19.56-38.8-29.54-58.1a8.88,8.88,0,0,0-8.14-5.2c-3.77-.09-5.87,2-7.46,5.1-4.76,9.22-9.24,18.59-14.06,27.79-6.33,12.1-12.37,24.35-17.93,36.83-2.12,4.76-.32,10,4.17,11.79a8.59,8.59,0,0,0,11.21-5.69c.86-3,2.66-5.59,3.73-8.49.58-1.58,1.61-1.87,3.16-1.86,11.17.06,22.35.17,33.52-.06,3.15-.07,4.67.92,5.94,3.73,1.56,3.47,2.83,7.21,5.71,9.95a8,8,0,0,0,8.93,1.79A8.77,8.77,0,0,0,219.6,264Z"/><path class="cls-2" d="M352.68,222.14c-22.41,1.1-44.83.34-67.24.56a85.73,85.73,0,0,1-27.65-4.7c-23.6-7.73-39.2-23.94-49.13-46.14-5.74-12.84-6.93-26.34-5.8-40.28,2.09-25.71,14.91-45,35.32-59.7,16.42-11.86,35-15.8,54.91-14a89.06,89.06,0,0,1,19.61,4.39c22.06,7.16,37.4,22,47.1,42.54,12.59,26.64,10.3,52.83-4.25,78.21a48.52,48.52,0,0,1-5.2,8c-1.08,1.24-.06,1.75.62,2.44,4.77,4.86,9.85,9.4,14.87,14,3.13,2.87,3.85,6.14,2.36,9.49a8.13,8.13,0,0,1-8.31,5.21C357.48,222.07,355.08,222.14,352.68,222.14ZM251.79,130.75c0,6.44,0,11.61,0,16.78a26.9,26.9,0,0,0,1.46,8.94,24.7,24.7,0,0,0,38.86,11.35c1.58-1.25,2.73-1.41,4.31-.39,3.16,2,6.9,2.75,10.21,4.5a7.2,7.2,0,0,0,6.17.28,8.1,8.1,0,0,0,5.44-7c.29-3-.84-6-3.56-7.29a89,89,0,0,0-8.64-4c-3.41-1.22-4.72-3.05-4.47-7,.67-10.65-.49-21.32-.53-32,0-11.77-7.16-20.18-18.62-23.27-14.87-4-28.1,6.74-30.15,19.94C251.22,118.36,252.14,125.2,251.79,130.75Z"/><path class="cls-3" d="M178,216.78,166.58,239.7h22.91Z"/><path class="cls-3" d="M178,216.78l11.47,22.92H166.58Z"/><path class="cls-4" d="M285.07,132.05c0,6.14,0,11.12,0,16.1s-3.49,8.58-8.44,8.55c-4.73,0-8.18-3.57-8.19-8.51q0-16.47,0-32.93c0-4.58,3.2-8.18,7.4-8.46,4.44-.3,7.89,2.83,8.7,7.46C285.65,120.57,284.67,126.9,285.07,132.05Z"/></svg>