<svg id="圖層_1" data-name="圖層 1" xmlns="http://www.w3.org/2000/svg" xmlns:xlink="http://www.w3.org/1999/xlink" viewBox="0 0 425.2 425.2"><defs><style>.cls-1{fill:url(#新增漸層色票_1);}.cls-2{fill:url(#新增漸層色票_1-2);}.cls-3{fill:url(#新增漸層色票_1-3);}.cls-4{fill:url(#新增漸層色票_1-4);}.cls-5{fill:url(#新增漸層色票_1-5);}.cls-6{fill:url(#新增漸層色票_1-6);}.cls-7{fill:url(#新增漸層色票_1-7);}.cls-8{fill:url(#新增漸層色票_1-8);}.cls-9{fill:url(#新增漸層色票_1-9);}</style><linearGradient id="新增漸層色票_1" x1="211.23" y1="45.45" x2="211.23" y2="370.73" gradientUnits="userSpaceOnUse"><stop offset="0" stop-color="#abe5e4"/><stop offset="1" stop-color="#339cd1"/></linearGradient><linearGradient id="新增漸層色票_1-2" x1="211.2" y1="45.45" x2="211.2" y2="370.73" xlink:href="#新增漸層色票_1"/><linearGradient id="新增漸層色票_1-3" x1="220.8" y1="45.45" x2="220.8" y2="370.73" xlink:href="#新增漸層色票_1"/><linearGradient id="新增漸層色票_1-4" x1="211.25" y1="45.45" x2="211.25" y2="370.73" xlink:href="#新增漸層色票_1"/><linearGradient id="新增漸層色票_1-5" x1="136.03" y1="45.45" x2="136.03" y2="370.73" xlink:href="#新增漸層色票_1"/><linearGradient id="新增漸層色票_1-6" x1="286.46" y1="45.45" x2="286.46" y2="370.73" xlink:href="#新增漸層色票_1"/><linearGradient id="新增漸層色票_1-7" x1="211.18" y1="45.45" x2="211.18" y2="370.73" xlink:href="#新增漸層色票_1"/><linearGradient id="新增漸層色票_1-8" x1="140.52" y1="45.45" x2="140.52" y2="370.73" xlink:href="#新增漸層色票_1"/><linearGradient id="新增漸層色票_1-9" x1="249.46" y1="45.45" x2="249.46" y2="370.73" xlink:href="#新增漸層色票_1"/></defs><path class="cls-1" d="M69.75,220.16c1.18-3.28,1-6.78,1.58-10.16A141.91,141.91,0,0,1,184.51,92.69a135.08,135.08,0,0,1,43.4-1.45c3.94.5,6,3.14,5.4,6.53-.5,3.1-3.38,5-7.08,4.53a129.75,129.75,0,0,0-77.6,15.19c-32.46,18.34-53.81,45.5-63.55,81.58C71.83,248.2,90.17,302.58,130.29,333.9c18.87,14.73,40,24.34,63.76,27,48.47,5.49,88.51-10.85,119.47-48.59,15.06-18.37,23.88-39.71,26.9-63.23,4.39-34.17-3.54-65.42-23.45-93.58a16.48,16.48,0,0,0-1.18-1.3c0,2.37.1,4.15,0,5.92a5.32,5.32,0,0,1-5.54,5.28,5.49,5.49,0,0,1-5.51-5.41q-.15-10.63,0-21.27a5.28,5.28,0,0,1,5.5-5.36q10.63-.1,21.27,0a5.2,5.2,0,0,1,5.29,5.49,5.34,5.34,0,0,1-5.29,5.53c-1.38.07-2.77,0-4.15,0h-4.19c-.07,1.09.77,1.64,1.28,2.32a139.29,139.29,0,0,1,27.26,67.86c8.18,68.92-33.34,132.57-99.71,152.79a123,123,0,0,1-28.61,5.32c-.44,0-.94-.07-1.07.55H199.08c-.2-.77-.85-.52-1.35-.56a131.73,131.73,0,0,1-18.73-3A141.92,141.92,0,0,1,71.32,253.49c-.5-3.19-.29-6.5-1.57-9.56Z"/><path class="cls-2" d="M214.08,326.15c42.68-.09,82-32.81,90-77.12,9-50-22.27-97.91-71.66-109.37-24.22-5.63-47.22-1.78-68.78,10.62-.87.5-1.72,1.07-2.61,1.54-3,1.59-6.1.88-7.72-1.75a5.62,5.62,0,0,1,2.08-7.87,91.47,91.47,0,0,1,20.52-9.87C213.62,120,248.29,126,279.07,151c19.9,16.19,32,37.48,36.05,62.89,5.65,35.06-3.88,65.74-28.33,91.44a98.82,98.82,0,0,1-57.72,30.28c-38.67,6-71.36-5.73-97.49-34.78-14-15.53-22.06-34-24.86-54.8-3.37-25,1.71-48.17,14.65-69.72,1.8-3,4-4.12,6.53-3.46,4,1,5.55,5,3.32,8.72a103.65,103.65,0,0,0-9.77,21.17c-16.83,51.67,14.42,107.82,67.18,120.63C196.06,325.21,203.64,326,214.08,326.15Z"/><path class="cls-3" d="M211.32,250.91a19.08,19.08,0,0,1-17.85-25.81c.75-1.94.33-2.92-1-4.21-5.39-5.28-10.71-10.64-16-16-2.89-2.91-3.13-6.35-.67-8.72s5.74-2,8.54.75q8.24,8.18,16.39,16.43a2.7,2.7,0,0,0,3.54.76,17.17,17.17,0,0,1,13.92,0c1.68.72,2.57.32,3.75-.87q17.61-17.75,35.34-35.38c3.76-3.74,8.91-2.61,10.08,2.15.64,2.58-.75,4.39-2.43,6.07q-17.3,17.28-34.62,34.54c-1.53,1.51-2,2.61-1.13,4.88C233.71,237.67,224.39,250.81,211.32,250.91Zm7.74-19.19a7.82,7.82,0,1,0-7.77,7.86A7.64,7.64,0,0,0,219.06,231.72Z"/><path class="cls-4" d="M216.81,156.76c0,1.19.08,2.39,0,3.58a5.25,5.25,0,0,1-5.34,5.12,5.33,5.33,0,0,1-5.65-4.86,52.71,52.71,0,0,1,0-8.24,5.35,5.35,0,0,1,5.78-4.72,5.25,5.25,0,0,1,5.19,5C216.89,154,216.81,155.39,216.81,156.76Z"/><path class="cls-5" d="M136,226.18c1.19,0,2.38-.05,3.57,0a5.28,5.28,0,0,1,5.33,5.14,5.37,5.37,0,0,1-4.9,5.88,55.93,55.93,0,0,1-8,0,5.39,5.39,0,0,1-4.93-5.86,5.29,5.29,0,0,1,5.33-5.16C133.64,226.13,134.83,226.18,136,226.18Z"/><path class="cls-6" d="M286.28,237.34c-1.19,0-2.39.06-3.58,0a5.24,5.24,0,0,1-5.15-5.31,5.38,5.38,0,0,1,5.09-5.72,65.93,65.93,0,0,1,7.7,0,5.38,5.38,0,0,1,5,5.77,5.29,5.29,0,0,1-5.24,5.25C288.85,237.41,287.56,237.35,286.28,237.34Z"/><path class="cls-7" d="M216.74,307.08c0,1.19.07,2.39,0,3.57a5.44,5.44,0,0,1-5.6,5.24,5.24,5.24,0,0,1-5.45-5.3c-.11-2.47-.11-4.95,0-7.42a5.18,5.18,0,0,1,5.36-5.09A5.41,5.41,0,0,1,216.7,303a40.61,40.61,0,0,1,0,4.13Z"/><path class="cls-8" d="M140.61,166.56a5.41,5.41,0,0,1-5.63-5.5,5.58,5.58,0,0,1,5.64-5.56,5.43,5.43,0,0,1,5.43,5.43A5.32,5.32,0,0,1,140.61,166.56Z"/><path class="cls-9" d="M249.5,95.74a5.36,5.36,0,0,1,5.52,5.51,5.49,5.49,0,0,1-5.52,5.58,5.72,5.72,0,0,1-5.6-5.58A5.5,5.5,0,0,1,249.5,95.74Z"/></svg>