<svg id="圖層_1" data-name="圖層 1" xmlns="http://www.w3.org/2000/svg" xmlns:xlink="http://www.w3.org/1999/xlink" viewBox="0 0 425.2 425.2"><defs><style>.cls-1{fill:url(#新增漸層色票_1);}.cls-2{fill:url(#新增漸層色票_1-2);}.cls-3{fill:url(#新增漸層色票_1-3);}.cls-4{fill:url(#新增漸層色票_1-4);}.cls-5{fill:url(#新增漸層色票_1-5);}.cls-6{fill:url(#新增漸層色票_1-6);}</style><linearGradient id="新增漸層色票_1" x1="219.61" y1="75.94" x2="219.61" y2="343.61" gradientUnits="userSpaceOnUse"><stop offset="0" stop-color="#abe5e4"/><stop offset="1" stop-color="#339cd1"/></linearGradient><linearGradient id="新增漸層色票_1-2" x1="221.91" y1="75.94" x2="221.91" y2="343.61" xlink:href="#新增漸層色票_1"/><linearGradient id="新增漸層色票_1-3" x1="264.43" y1="75.94" x2="264.43" y2="343.61" xlink:href="#新增漸層色票_1"/><linearGradient id="新增漸層色票_1-4" x1="306.95" y1="75.94" x2="306.95" y2="343.61" xlink:href="#新增漸層色票_1"/><linearGradient id="新增漸層色票_1-5" x1="176.06" y1="75.94" x2="176.06" y2="343.61" xlink:href="#新增漸層色票_1"/><linearGradient id="新增漸層色票_1-6" x1="136.97" y1="75.94" x2="136.97" y2="343.61" xlink:href="#新增漸層色票_1"/></defs><path class="cls-1" d="M361.09,316.29c-.89.17-.67,1-.86,1.55-3.27,8.87-10.32,13.84-19.76,13.88a35.36,35.36,0,0,1-5.25,0c-2.6-.38-2.94.76-2.9,3,.13,7.64.06,15.29,0,22.93a13.06,13.06,0,0,1-7.94,12.51c-5.25,2.51-10.34,1.92-15-1.64a27.19,27.19,0,0,1-2.23-2.07q-16.83-16.57-33.63-33.18a4.93,4.93,0,0,0-3.85-1.57q-40.35.07-80.69,0c-12.76,0-21.28-8.49-21.29-21.23q0-25.14,0-50.29V257c-1,.92-1.61,1.5-2.22,2.1q-11.22,11.06-22.44,22.11c-4.95,4.87-10.65,6.2-16.35,3.68-6.16-2.72-8.84-7.63-8.77-14.27.08-7.56,0-15.11.06-22.66,0-1.86-.33-2.52-2.35-2.47-5.71.16-11.42.08-17.13.05a20,20,0,0,1-20.39-20.43q0-49.73,0-99.47c0-11.77,8.45-20.43,20.26-20.44q77.79-.09,155.57,0c11.68,0,20.26,8.76,20.29,20.52q.08,32.34-.05,64.66c0,2.3.54,2.85,2.84,2.84,19.89-.1,39.79.23,59.68-.17,11.08-.23,20.68,3.36,24.37,16.61Zm-45.31,35.12c0-9.56,0-18.49,0-27.42,0-5.58,3.28-8.88,8.9-8.93,4.88,0,9.76,0,14.64,0,4.27,0,5.19-.93,5.19-5.16V215.38c0-4.88-.62-5.49-5.62-5.49H190c-4.91,0-5.47.55-5.47,5.34v94.23c0,4.91.68,5.59,5.56,5.59q39,0,77.93,0c12.45,0,9.72-1.09,18.7,7.72C296.25,332.19,305.8,341.6,315.78,351.41Zm-181.12-86c.53-.16.74-.16.85-.27q15.66-15.41,31.31-30.8a3.4,3.4,0,0,0,.91-2.75q0-8.56,0-17.13c0-12.91,8.5-21.36,21.44-21.37,21.92,0,43.84,0,65.76,0,2,0,2.64-.41,2.63-2.54-.09-21.28-.05-42.56-.06-63.83,0-4.14-.93-5.06-5-5.06H99.69c-4,0-5,1.07-5,5.1q0,48.49,0,97c0,4,1.06,5,5.12,5,8.29,0,16.58,0,24.87,0,6.94,0,9.94,3,10,9.86C134.67,247.52,134.66,256.35,134.66,265.44Z"/><path class="cls-2" d="M230.24,262.42a8.43,8.43,0,0,1-8.42,8.42,8.4,8.4,0,0,1,.24-16.8A8.4,8.4,0,0,1,230.24,262.42Z"/><path class="cls-3" d="M272.74,262.47a8.41,8.41,0,0,1-8.18,8.37,8.4,8.4,0,0,1-.21-16.8A8.39,8.39,0,0,1,272.74,262.47Z"/><path class="cls-4" d="M315.25,262.33a8.41,8.41,0,0,1-8.31,8.51,8.57,8.57,0,0,1-8.28-8.3A8.48,8.48,0,0,1,307,254,8.38,8.38,0,0,1,315.25,262.33Z"/><path class="cls-5" d="M176,147.69h48.87c5.59,0,9.22,3.31,9.19,8.33s-3.71,8.26-9.31,8.26H127.05c-4.74,0-8.15-2.81-8.94-7.28-.64-3.66,2-7.66,5.8-9a10.39,10.39,0,0,1,3.54-.32Q151.75,147.67,176,147.69Z"/><path class="cls-6" d="M137.09,186.34c3.5,0,7-.06,10.49,0a8.34,8.34,0,0,1,8.34,8.18,8.48,8.48,0,0,1-8.17,8.4q-10.77.16-21.53,0a8.5,8.5,0,0,1-8.2-8.37,8.34,8.34,0,0,1,8.31-8.21C129.92,186.28,133.5,186.34,137.09,186.34Z"/></svg>