<svg id="圖層_1" data-name="圖層 1" xmlns="http://www.w3.org/2000/svg" xmlns:xlink="http://www.w3.org/1999/xlink" viewBox="0 0 425.2 425.2"><defs><style>.cls-1{fill:url(#新增漸層色票_1);}.cls-2{fill:url(#新增漸層色票_1-2);}.cls-3{fill:url(#新增漸層色票_1-3);}.cls-4{fill:url(#新增漸層色票_1-4);}</style><linearGradient id="新增漸層色票_1" x1="243.99" y1="28.5" x2="243.99" y2="397.84" gradientUnits="userSpaceOnUse"><stop offset="0" stop-color="#abe5e4"/><stop offset="1" stop-color="#339cd1"/></linearGradient><linearGradient id="新增漸層色票_1-2" x1="110.93" y1="28.5" x2="110.93" y2="397.84" xlink:href="#新增漸層色票_1"/><linearGradient id="新增漸層色票_1-3" x1="111.01" y1="28.5" x2="111.01" y2="397.84" xlink:href="#新增漸層色票_1"/><linearGradient id="新增漸層色票_1-4" x1="340.87" y1="28.5" x2="340.87" y2="397.84" xlink:href="#新增漸層色票_1"/></defs><path class="cls-1" d="M173.13,359.45V253.34c.38-.1.25-.42.3-.67a20.75,20.75,0,0,1,20.08-17c33.65,0,67.31-.08,101,0,8.25,0,14.26,4.18,18.19,11.38,1.13,2.06,1.51,4.34,2.2,6.53V359.45c-.22,0-.25.2-.29.39q-2.38,12.07-14,16.24c-1.29.46-2.67.7-4,1.05h-36q0-24.39,0-48.76c0-1,.23-1.29,1.27-1.28,6.13.06,12.27,0,18.4.07,1.19,0,1.48-.41,1.61-1.38.23-1.59.5-3.17.76-4.76,1-6.23,2.08-12.45,3.13-18.77h-1.61c-7.47,0-14.95,0-22.42,0-.89,0-1.15-.2-1.14-1.12.05-4.83.06-9.67,0-14.5,0-1,.22-1.29,1.27-1.28,7.56.05,15.13,0,22.69.05,1,0,1.29-.23,1.28-1.27q-.07-11.19,0-22.38c0-1-.24-1.28-1.28-1.27-7.79.05-15.59,0-23.38,0a25.59,25.59,0,0,0-8.28,1.28,24.89,24.89,0,0,0-17.18,24q-.06,7.67,0,15.33c0,.89-.21,1.15-1.12,1.14-4.8,0-9.6,0-14.4,0-.89,0-1.14.21-1.13,1.12q.06,11.32,0,22.66c0,.9.22,1.14,1.13,1.13,4.7-.05,9.41,0,14.11-.05,1.16,0,1.42.27,1.42,1.41q-.06,24.31,0,48.63H190.84c-.06-.3-.32-.25-.53-.29a20.78,20.78,0,0,1-15.13-11.4C174.19,363.53,173.88,361.42,173.13,359.45Z"/><path class="cls-2" d="M168.5,194.08H52.79c-.07-.3-.33-.25-.54-.3A15.48,15.48,0,0,1,42,186.35c-1-1.56-1.26-3.36-2-5V65.08c.36-.11.24-.44.3-.69,1.75-7.12,7.71-12,14.75-12q55.85,0,111.69,0a15.18,15.18,0,0,1,15,15q0,55.85,0,111.69a15.35,15.35,0,0,1-10.84,14.45A10.9,10.9,0,0,0,168.5,194.08Zm-9.37-21.58c-.39-.6-.64-1-.9-1.35q-18.72-27.26-37.46-54.5c-.51-.75-.61-1.17,0-1.93Q135,98.29,149.16,81.8L156,73.88c-2.44,0-4.59.07-6.73,0a3.19,3.19,0,0,0-2.81,1.27Q133.27,90.54,120,105.88l-3.69,4.25c-.39-.54-.66-.91-.92-1.29q-11.69-17-23.36-34a1.9,1.9,0,0,0-1.78-1c-8.76,0-17.53,0-26.29,0-.34,0-.73-.17-1.07.24.24.37.48.75.73,1.12q18,26.19,36,52.35c.53.78.65,1.25-.05,2.06q-18.13,21-36.19,42c-.18.2-.58.34-.37.8,2.44,0,4.88,0,7.32,0a1.61,1.61,0,0,0,1.38-.7q13.74-16,27.5-32c1.61-1.87,3.23-3.72,4.89-5.63.33.47.58.81.81,1.15q12.32,17.92,24.61,35.87a2.67,2.67,0,0,0,2.56,1.32c6-.07,12,0,18,0Z"/><path class="cls-3" d="M74.44,80.21c3.08,0,6.17.22,9.22-.06,2.78-.26,4.3.81,5.86,3.06q28.47,41,57.15,81.89l.91,1.31c-3.17,0-6.16-.23-9.1.07s-4.7-.84-6.42-3.32q-28.4-41-57-81.76C74.79,81.09,74.41,80.83,74.44,80.21Z"/><path class="cls-4" d="M411.86,101.57v48.51c-.64.75-.46,1.72-.66,2.58-3.31,13.89-14.7,23.16-28.94,23.2-27.58.08-55.15,0-82.73,0A28,28,0,0,1,284.86,172c-9.79-5.85-14.75-14.57-14.91-25.95-.1-7.34,0-14.69,0-22,0-6.75-.16-13.5.08-20.23A29.26,29.26,0,0,1,298.7,75.53c5.44-.13,10.9,0,16.35,0q33.39,0,66.79,0c14.41,0,25.75,9,29.28,22.94C411.38,99.48,411.21,100.62,411.86,101.57Zm-90.42,24.12q0,9.13,0,18.29c0,2.27.91,2.86,2.94,1.89l37.3-17.79c.77-.36,1.58-.75,1.61-1.71s-.8-1.46-1.61-1.87l-37.25-18.86c-2.08-1-3-.47-3,1.89Q321.43,116.6,321.44,125.69Z"/></svg>