<svg id="圖層_1" data-name="圖層 1" xmlns="http://www.w3.org/2000/svg" viewBox="0 0 425.2 425.2"><defs><style>.cls-1{fill:#3593c3;}</style></defs><path class="cls-1" d="M362.15,84.79c-3.5-8.67-10.82-13.6-20.42-13.6l-241.25,0a22.6,22.6,0,0,0-7.08,1.12c-8.87,2.88-14.2,10.4-14.2,20.08q0,117.07,0,234.14c0,.57,0,1.14,0,1.71a19.86,19.86,0,0,0,6.65,14.13c3.29,3,7.35,4.44,11.63,5.44H344.72a27.33,27.33,0,0,0,9.6-3.65,21.75,21.75,0,0,0,8.34-11.27V85.67A7.73,7.73,0,0,1,362.15,84.79ZM161,306.92q-18.48-.12-36.95,0c-2,0-2.69-.35-2.68-2.5q.1-63.57,0-127.15c0-2,.52-2.48,2.53-2.46q18.48.13,37,0c2.08,0,2.69.46,2.68,2.55-.08,21.16,0,42.31,0,63.47s0,42.45.06,63.68C163.55,306.54,162.93,306.94,161,306.92ZM142.33,156.83c-13.37,0-24.28-10.7-24.29-23.74s10.94-23.83,24.43-23.82A24,24,0,0,1,166.73,133C166.75,146.2,155.83,156.86,142.33,156.83ZM319.08,306.91q-18.93-.12-37.85,0c-1.75,0-2.14-.48-2.14-2.13q.06-33.87,0-67.76a56.57,56.57,0,0,0-1.38-13.1c-2.69-11.42-9.78-16.68-21.79-16.27-10.88.37-18.07,5.24-21.37,14.55a43.48,43.48,0,0,0-2.27,11.45c-.72,10.22-.29,20.45-.35,30.67q-.1,20.25,0,40.49c0,1.68-.46,2.11-2.17,2.1q-18.92-.11-37.84,0c-1.58,0-2.1-.31-2.1-2q.07-64,0-128.06c0-1.55.34-2.06,2-2q18.15.1,36.31,0c1.67,0,2.11.48,2.07,2-.1,4.62-.05,9.23,0,13.85,0,.68-.25,1.42.3,2,.66,0,.76-.6,1-1,7.19-11.3,17.87-17.46,31.1-19.51a65.3,65.3,0,0,1,25.81,1.34c15.63,3.88,24.85,14,29.13,28.79a96,96,0,0,1,3.5,26.52c.11,25.28.05,50.57.12,75.86C321.2,306.37,320.87,306.93,319.08,306.91Z"/></svg>