<svg id="圖層_1" data-name="圖層 1" xmlns="http://www.w3.org/2000/svg" xmlns:xlink="http://www.w3.org/1999/xlink" viewBox="0 0 425.2 425.2"><defs><style>.cls-1{fill:url(#新增漸層色票_1);}.cls-2{fill:url(#新增漸層色票_1-2);}.cls-3{fill:url(#新增漸層色票_1-3);}.cls-4{fill:url(#新增漸層色票_1-4);}.cls-5{fill:url(#新增漸層色票_1-5);}</style><linearGradient id="新增漸層色票_1" x1="222.53" y1="29.36" x2="222.53" y2="372.73" gradientUnits="userSpaceOnUse"><stop offset="0" stop-color="#abe5e4"/><stop offset="1" stop-color="#339cd1"/></linearGradient><linearGradient id="新增漸層色票_1-2" x1="232.6" y1="29.36" x2="232.6" y2="372.73" xlink:href="#新增漸層色票_1"/><linearGradient id="新增漸層色票_1-3" x1="281.98" y1="29.36" x2="281.98" y2="372.73" xlink:href="#新增漸層色票_1"/><linearGradient id="新增漸層色票_1-4" x1="163.84" y1="29.36" x2="163.84" y2="372.73" xlink:href="#新增漸層色票_1"/><linearGradient id="新增漸層色票_1-5" x1="195.27" y1="29.36" x2="195.27" y2="372.73" xlink:href="#新增漸層色票_1"/></defs><g id="sVnPrr.tif"><path class="cls-1" d="M378.4,227c0,32.47.1,64.94,0,97.41-.07,18.88-6.77,34.91-22,46.59a55,55,0,0,1-34.29,11.77q-99.33-.07-198.68,0c-31.32.06-56.59-25.49-56.68-58.23q-.26-97.91,0-195.81c0-30,22.87-54.56,50.74-56.88,5.17-.43,10.32-.9,15.5-.9q92.78,0,185.53,0c19.34,0,35.89,6.65,48,22.31a56.84,56.84,0,0,1,11.91,35.76Q378.39,178.09,378.4,227ZM221.91,120.91c-31.81,1.62-61,10.13-85.41,32.1-24.55,22.12-34.2,57-22.9,87.27C124,268.12,145.45,284.83,172,295.93c10.52,4.39,21.79,6.1,32.75,8.93,8.65,2.24,11,6.06,9.51,14.9a109.24,109.24,0,0,0-1.9,12.49c-.25,4.77,1.67,6,6.36,4.85,7.76-1.84,14-6.57,20.56-10.71,24.93-15.84,49.54-32.18,70-53.81,13.22-14,23-29.89,25.63-49.61,3.07-23.57-3.94-44.07-19.23-61.54C291,133.25,258.33,122.65,221.91,120.91Z"/><path class="cls-2" d="M243.58,218.13c0-7.75,0-15.31,0-22.86,0-6.5.4-6.7,6.29-7,4.66-.21,6.25,1.51,6.17,6.21-.25,13.94-.05,27.9-.14,41.85,0,2.24,1.15,5.64-2.12,6.17-3.62.59-7.8,1.75-10.72-2.24q-8.44-11.56-17.05-23c-1-1.32-1.69-3.8-3.78-3.08-1.75.61-.89,2.88-.92,4.39-.09,6.33-.3,12.67,0,19,.25,4.61-1.93,5.4-5.83,5.42s-6.47-.58-6.41-5.44c.18-14.27,0-28.55.11-42.83,0-2.26-.8-5.4,2.54-6,3.63-.67,7.39-1.09,10.11,2.68C227.37,199,233,206.49,238.64,214,239.77,215.52,240.61,217.42,243.58,218.13Z"/><path class="cls-3" d="M264.18,215.64c0-7.46.11-14.91,0-22.37-.08-3.56,1.35-5,4.86-4.93,8.59.1,17.18.19,25.77,0,5.71-.14,4.9,3.62,5,7.21s-.36,6.37-5.11,6.13c-5.18-.27-10.38.06-15.56-.1-2.91-.09-3,1.46-2.93,3.67s-.4,4.28,3,4.18c5.51-.16,11,.08,16.53-.1,2.95-.09,4.19,1,4,3.91-.05,1,0,1.94,0,2.92,0,6-.11,6.15-6.33,6.17-4.54,0-9.08.15-13.61-.06-2.74-.12-3.81.62-3.65,3.51.14,2.55.3,4.44,3.6,4.34,5.19-.15,10.38.12,15.56-.09,3.45-.14,4.73,1.29,4.46,4.57a18.64,18.64,0,0,0,0,3.88c.44,3.54-1.3,4.5-4.53,4.46q-13.12-.18-26.25,0c-3.54.05-4.92-1.35-4.85-4.91C264.29,230.56,264.18,223.1,264.18,215.64Z"/><path class="cls-4" d="M145.77,215.76c0-7.3.12-14.6,0-21.9-.12-5.24,3.11-5.48,7.05-5.56,4.11-.08,5.31,1.72,5.24,5.61-.18,10.38,0,20.77-.11,31.16-.06,3.68,1.05,5.31,5,5.07,4.85-.3,9.73,0,14.6-.12,4.38-.13,4.54,2.75,4.41,5.85s.89,7-4.29,7c-9.25,0-18.5,0-27.75,0-3.69,0-4.12-2.38-4.11-5.22Z"/><path class="cls-5" d="M189.33,215.84c0-7.61.13-15.22-.05-22.83-.09-3.78,1.71-4.82,5-4.66s6.91-.48,6.92,4.49c0,15.38.07,30.76,0,46.14,0,5.36-4.31,3.55-7.19,3.88s-4.89-.49-4.79-4.19C189.47,231.06,189.32,223.45,189.33,215.84Z"/></g></svg>