<svg id="圖層_1" data-name="圖層 1" xmlns="http://www.w3.org/2000/svg" xmlns:xlink="http://www.w3.org/1999/xlink" viewBox="0 0 425.2 425.2"><defs><style>.cls-1{fill:url(#新增漸層色票_1);}</style><linearGradient id="新增漸層色票_1" x1="216.62" y1="29.36" x2="216.62" y2="372.73" gradientUnits="userSpaceOnUse"><stop offset="0" stop-color="#abe5e4"/><stop offset="1" stop-color="#339cd1"/></linearGradient></defs><g id="zuyMMc.tif"><path class="cls-1" d="M216.79,77.93q54.45,0,108.9,0c3.36,0,6.72.31,10.08.33,18,.1,29.7,18.73,29.67,31.62-.19,77.76-.06,155.51-.12,233.27,0,17.84-11.68,30.73-29.4,32-18.55,1.36-37.17.34-55.75.52-10.81.11-21.61-.1-32.41.07-3.9.07-5.24-1.31-5.22-5.23q.18-45.43,0-90.87c0-3.83,1.09-5.34,5.12-5.24,9.73.24,19.48,0,29.22.15,3.08.06,4.37-.84,4.83-4,1.94-13.3,4.06-26.58,6.22-39.84.53-3.26-.85-3.93-3.77-3.9-12,.12-24.09-.06-36.13.12-4.08.06-5.63-1.3-5.52-5.49.24-9,0-18.07.1-27.1.2-14.44,9.16-23.49,23.52-23.81,6.37-.15,12.75-.21,19.12-.06,3.35.09,4.76-.95,4.7-4.51-.17-10.62-.09-21.25,0-31.88,0-2.33-.26-4.31-3-4.71-20.21-2.93-40.57-5.68-60.25,2-21,8.16-31.42,24.87-34.71,46.46-2.1,13.72-.7,27.58-1,41.38-.15,7.64,0,7.66-7.5,7.67-9.92,0-19.84.15-29.75-.07-3.62-.07-5.06.91-5,4.73q.25,19.13,0,38.26c0,3.79,1.42,4.81,5,4.74,10.44-.2,20.9.15,31.34-.17,4.78-.15,6,1.54,5.93,6.12q-.27,44.63,0,89.27c0,4.24-1.07,6-5.6,6q-40.63-.23-81.28-.05c-14.34.06-26-4.46-32.92-17.92a33.25,33.25,0,0,1-3.35-15.39q0-115.85-.07-231.68C67.78,96.52,80,78.1,98.33,78.2c20.89.11,41.78-.2,62.68-.26C179.6,77.89,198.19,77.93,216.79,77.93Z"/></g></svg>