<svg id="圖層_1" data-name="圖層 1" xmlns="http://www.w3.org/2000/svg" xmlns:xlink="http://www.w3.org/1999/xlink" viewBox="0 0 425.2 425.2"><defs><style>.cls-1{fill:url(#新增漸層色票_1);}.cls-2{fill:#fff;}.cls-3{fill:#f7f8f8;}</style><linearGradient id="新增漸層色票_1" x1="220.93" y1="34.42" x2="220.93" y2="377.79" gradientUnits="userSpaceOnUse"><stop offset="0" stop-color="#abe5e4"/><stop offset="1" stop-color="#339cd1"/></linearGradient></defs><path class="cls-1" d="M97.5,347.79c-4.28-1-8.34-2.4-11.63-5.44a19.86,19.86,0,0,1-6.65-14.13c0-.57,0-1.14,0-1.71q0-117.06,0-234.14c0-9.68,5.33-17.2,14.2-20.08a22.6,22.6,0,0,1,7.08-1.12l241.25,0c9.6,0,16.92,4.93,20.42,13.6a7.73,7.73,0,0,0,.51.88v247.2a21.75,21.75,0,0,1-8.34,11.27,27.33,27.33,0,0,1-9.6,3.65Zm133-155c-.55-.61-.3-1.35-.3-2,0-4.62-.08-9.23,0-13.85,0-1.57-.4-2.06-2.07-2q-18.15.1-36.31,0c-1.69,0-2,.5-2,2q.06,64,0,128.06c0,1.66.52,2,2.1,2q18.91-.11,37.84,0c1.71,0,2.18-.42,2.17-2.1q-.1-20.25,0-40.49c.06-10.22-.37-20.45.35-30.67a43.48,43.48,0,0,1,2.27-11.45c3.3-9.31,10.49-14.18,21.37-14.55,12-.41,19.1,4.85,21.79,16.27a57.13,57.13,0,0,1,1.39,13.1q0,33.89,0,67.76c0,1.65.39,2.14,2.14,2.13q18.93-.12,37.85,0c1.79,0,2.12-.54,2.12-2.14-.07-25.29,0-50.58-.12-75.86a96.37,96.37,0,0,0-3.49-26.52c-4.29-14.8-13.51-24.91-29.14-28.79a65.3,65.3,0,0,0-25.81-1.34c-13.23,2.05-23.91,8.21-31.1,19.51C231.29,192.16,231.19,192.73,230.53,192.76Zm-67,48.08c0-21.16,0-42.31,0-63.47,0-2.09-.6-2.57-2.68-2.55q-18.47.13-37,0c-2,0-2.54.5-2.53,2.46q.08,63.58,0,127.15c0,2.15.66,2.51,2.68,2.5q18.47-.14,37,0c1.93,0,2.55-.38,2.55-2.4C163.46,283.29,163.49,262.06,163.49,240.84ZM166.73,133a24,24,0,0,0-24.26-23.74C129,109.26,118,119.94,118,133.09s10.92,23.7,24.29,23.74S166.75,146.2,166.73,133Z"/><path class="cls-2" d="M230.53,192.76c.66,0,.76-.6,1-1,7.19-11.3,17.87-17.46,31.1-19.51a65.3,65.3,0,0,1,25.81,1.34c15.63,3.88,24.85,14,29.14,28.79a96.37,96.37,0,0,1,3.49,26.52c.11,25.28.05,50.57.12,75.86,0,1.6-.33,2.16-2.12,2.14q-18.93-.12-37.85,0c-1.75,0-2.14-.48-2.14-2.13q.06-33.87,0-67.76a57.13,57.13,0,0,0-1.39-13.1c-2.69-11.42-9.78-16.68-21.79-16.27-10.88.37-18.07,5.24-21.37,14.55a43.48,43.48,0,0,0-2.27,11.45c-.72,10.22-.29,20.45-.35,30.67q-.1,20.25,0,40.49c0,1.68-.46,2.11-2.17,2.1q-18.92-.11-37.84,0c-1.58,0-2.1-.31-2.1-2q.07-64,0-128.06c0-1.55.34-2.06,2-2q18.15.1,36.31,0c1.67,0,2.11.48,2.07,2-.1,4.62-.05,9.23,0,13.85C230.23,191.41,230,192.15,230.53,192.76Z"/><path class="cls-3" d="M163.49,240.84c0,21.22,0,42.45.06,63.68,0,2-.62,2.42-2.55,2.4q-18.48-.12-36.95,0c-2,0-2.69-.35-2.68-2.5q.1-63.57,0-127.15c0-2,.52-2.48,2.53-2.46q18.48.13,37,0c2.08,0,2.69.46,2.68,2.55C163.46,198.53,163.49,219.68,163.49,240.84Z"/><path class="cls-3" d="M166.73,133c0,13.19-10.9,23.85-24.4,23.82s-24.28-10.7-24.29-23.74,10.94-23.83,24.43-23.82A24,24,0,0,1,166.73,133Z"/></svg>