<svg id="圖層_1" data-name="圖層 1" xmlns="http://www.w3.org/2000/svg" xmlns:xlink="http://www.w3.org/1999/xlink" viewBox="0 0 425.2 425.2"><defs><style>.cls-1{fill:url(#新增漸層色票_1);}.cls-2{fill:url(#新增漸層色票_1-2);}</style><linearGradient id="新增漸層色票_1" x1="181.99" y1="31.89" x2="181.99" y2="375.26" gradientUnits="userSpaceOnUse"><stop offset="0" stop-color="#abe5e4"/><stop offset="1" stop-color="#339cd1"/></linearGradient><linearGradient id="新增漸層色票_1-2" x1="279.64" y1="31.89" x2="279.64" y2="375.26" xlink:href="#新增漸層色票_1"/></defs><g id="saWv13.tif"><path class="cls-1" d="M111.82,295c1.83-5.82,3.39-10.86,5-15.88,1.45-4.56,4.61-9.36,4-13.58-.68-4.38-6.7-6.29-10.28-9.4-14.25-12.37-24.29-27.28-27.76-46-4.28-23.14,1.47-44,16.27-62.05,15.54-18.91,36.22-29.39,60-34.15,22.56-4.52,44.72-2.91,66,5.76,28,11.43,49,30.07,57.37,60.4.11.4.2.8.27,1.21a6,6,0,0,1,0,.88,86.65,86.65,0,0,0-39.82,4.55c-27.58,10.23-46.11,29.13-52.75,58.41-2.52,11.11-2.78,22.34.49,33.44.66,2.21.1,3.08-2.39,3.3-11.93,1-23.57-1.14-35.17-3.28a16.63,16.63,0,0,0-11.69,1.6C131.88,285.19,122.22,289.77,111.82,295Zm37.1-140.65c-8.63-.1-15.11,5.18-15.1,12.31,0,6.9,6.32,12.21,14.72,12.39,7.52.16,13-4.95,13.12-12.24C161.78,159.25,156.81,154.39,148.92,154.3Zm69.55,0c-7.62,0-14.56,6-14.48,12.39s7.39,12.44,15.11,12.33,12.86-5.18,12.72-12.56C231.67,158.47,227,154.24,218.47,154.3Z"/><path class="cls-2" d="M337.51,342.4c-8.46-4.51-15.81-8.22-22.92-12.31a11.86,11.86,0,0,0-10-1.24,91.28,91.28,0,0,1-55.94-1.33c-23.38-7.87-41.33-22.27-50.15-46-8.71-23.38-2.94-49.4,14.64-67.5,18.23-18.78,41-27.27,66.41-27.13,29.71.16,55.12,11.7,73.15,35.85,15.94,21.36,16.54,50-.12,72.16A116,116,0,0,1,332.4,315.5c-2,1.6-2.48,3-1.58,5.56C333.17,327.72,335.08,334.53,337.51,342.4ZM264.27,236.69c-.07-5.54-5.78-9.94-12.59-9.71-4.78.16-9.72,5.39-9.55,10.12.19,5.31,5.07,10.15,10.1,10C259.07,246.91,264.35,242.34,264.27,236.69Zm43,10.38c7-.12,12.23-4.58,12.18-10.3s-5.62-10-12.57-9.8c-4.58.14-9.4,5.16-9.46,9.84C297.37,242,302.35,247.16,307.28,247.07Z"/></g></svg>